<svg width="1676" height="1506" viewBox="0 0 1676 1506" fill="none" xmlns="http://www.w3.org/2000/svg">
<path fill-rule="evenodd" clip-rule="evenodd" d="M929.746 2.79262C924.418 8.12062 904.487 51.3156 893.895 80.4906C885.469 103.7 884.17 110.068 883.641 130.741C883.385 140.779 882.858 148.991 882.471 148.991C882.083 148.991 879.845 143.479 877.496 136.741C870.326 116.176 856.796 90.6696 842.894 71.5116C839.254 66.4956 828.573 57.0786 817.649 49.2556C809.219 43.2186 794.363 41.4396 782.117 45.0016C776.811 46.5446 771.839 51.2676 769.709 56.7876C767.547 62.3906 767.554 61.1566 769.114 159.491C770.002 215.421 770.539 231.099 771.79 237.491C772.65 241.891 773.364 246.152 773.374 246.96C773.385 247.767 770.807 245.869 767.644 242.741C761.543 236.706 747.241 227.983 727.894 218.496C707.427 208.46 687.389 203.627 665.894 203.542C653.61 203.494 652.608 203.642 647.707 206.226C641.34 209.583 635.703 215.176 633.33 220.491C629.425 229.237 624.406 254.339 624.398 265.159C624.392 273.498 623.99 274.138 619.851 272.408C615.454 270.571 601.914 270.598 593.124 272.46C574.449 276.418 563.916 289.047 560.711 311.321C558.803 324.586 559.443 330.455 563.795 339.62L567.319 347.041L555.107 338.525C535.835 325.088 520.134 315.445 487.894 297.249C450.966 276.406 439.843 270.477 426.394 264.466C420.619 261.885 404.869 254.468 391.394 247.983C366.643 236.071 336.835 223.701 319.394 218.104C314.169 216.427 299.319 212.319 286.394 208.974C273.469 205.63 256.144 201.127 247.894 198.969C227.133 193.537 221.721 192.487 193.563 188.429C152.605 182.525 132.979 182.144 93.7408 186.488C50.0718 191.322 34.7978 198.043 17.0938 220.213C7.93177 231.686 5.19677 236.426 2.22477 245.991C0.160766 252.632 -0.0912303 255.323 0.0227697 269.491C0.27177 300.444 6.21977 330.78 14.9668 345.705C16.3318 348.034 20.0728 353.214 23.2818 357.215C26.4898 361.217 32.8438 369.666 37.4018 375.991C41.9598 382.316 47.5748 389.741 49.8798 392.491C55.4808 399.174 68.3098 417.187 73.5018 425.658C86.8828 447.491 98.5048 478.679 109.375 521.931C116.77 551.356 118.57 556.581 126.96 572.991C132.201 583.241 134.636 586.405 155.964 610.673C161.422 616.883 172.157 625.026 182.394 630.72C200.98 641.058 229.837 645.724 249.46 641.564C253.071 640.799 258.453 639.864 261.42 639.488L266.815 638.803L262.08 644.147C245.089 663.322 234.594 685.906 229.909 713.372C227.07 730.017 228.466 760.29 232.774 775.491C236.16 787.44 241.381 798.311 252.51 816.581C256.499 823.131 261.862 831.936 264.426 836.147C270.726 846.49 273.738 854.027 277.903 869.864C284.078 893.34 289.368 901.085 312.394 920.36C326.34 932.034 358.994 953.688 372.811 960.424C393.764 970.639 429.162 982.316 448.894 985.521C468.029 988.629 492.704 987.013 511.077 981.447C534.275 974.419 546.69 965.851 570.516 940.424C573.059 937.711 577.109 933.793 579.516 931.718C589.506 923.109 590.248 922.245 591.387 917.899C592.766 912.639 594.91 909.231 604.775 896.611C608.879 891.36 613.51 884.798 615.066 882.029C618.161 876.517 620.01 875.418 618.913 879.741C616.857 887.85 615.268 898.712 614.45 910.248C613.674 921.192 613.118 924.008 610.848 928.494L608.165 933.798L609.4 945.145C610.08 951.385 610.735 963.691 610.855 972.491C611.1 990.45 612.615 999.296 617.835 1013.23C626.169 1035.48 645.854 1060.14 666.078 1073.67C683.921 1085.61 720.152 1102.37 740.894 1108.28C753.363 1111.84 771.895 1115.63 786.008 1117.52C802.702 1119.75 837.405 1120.64 845.541 1119.05C853.567 1117.48 863.958 1112.7 874.95 1105.54C889.001 1096.38 895.683 1093.58 921.394 1086.06C955.179 1076.19 968.69 1070.07 983.394 1057.99C1000.72 1043.75 1015.75 1024.63 1025.36 1004.6C1033.11 988.45 1036.47 975.141 1037.95 954.848L1038.65 945.206L1041.6 947.836C1043.23 949.283 1046.57 953.498 1049.03 957.203C1059.38 972.765 1083.24 988.454 1105.05 994.031C1115.54 996.713 1131.19 997.974 1140.95 996.923C1184.51 992.229 1194.61 988.804 1226.37 967.95C1235.77 961.777 1243.62 956.898 1243.8 957.108C1244.72 958.132 1257.93 999.772 1262.79 1016.99C1284.17 1092.62 1295.61 1158.27 1302.61 1245.49C1304.66 1271.03 1304.32 1369.02 1302.09 1394.99C1299.48 1425.44 1296.75 1448.8 1292.81 1474.36C1288.78 1500.58 1288.57 1499.42 1297.89 1502.9C1305.24 1505.65 1313.89 1506.44 1320.96 1505C1328.35 1503.5 1338.48 1498.77 1340.15 1496.05C1342.44 1492.31 1348.2 1448.2 1350.86 1413.99C1353.39 1381.55 1354.39 1354.26 1354.39 1317.69C1354.39 1287.86 1354.62 1282.45 1355.98 1279.82C1356.86 1278.13 1359.5 1271.97 1361.86 1266.12C1364.22 1260.27 1369.14 1249.42 1372.79 1241.99C1378.21 1230.99 1381.21 1226.36 1389.02 1216.99C1402.68 1200.61 1406.77 1196.45 1420.6 1184.88C1427.36 1179.23 1438.76 1168.73 1445.93 1161.55C1454.77 1152.69 1464.65 1144.22 1476.65 1135.22C1496.93 1120.01 1503.57 1113.88 1509.22 1105.14C1516.99 1093.11 1520.52 1076 1516.97 1067.49C1514.43 1061.41 1510.66 1056.45 1506.25 1053.39C1499.49 1048.7 1499.49 1048.56 1507.38 1033.23C1514.81 1018.78 1517.36 1011.35 1517.38 1004.13C1517.4 996.148 1511.11 988.485 1500.62 983.704C1494.15 980.757 1474.73 980.124 1460.41 982.392C1446.33 984.622 1439.91 984.51 1437.39 981.991C1434.8 979.395 1434.87 977.4 1437.89 968.393C1443.94 950.39 1454.46 933.649 1468.31 919.991C1481.25 907.231 1488 902.268 1521.39 880.994C1537.07 871.007 1553.27 860.328 1557.39 857.264C1567.22 849.968 1584.5 832.572 1592.02 822.43C1600.52 810.941 1602.76 805.358 1602.82 795.491C1602.88 786.19 1600.9 781.398 1594.78 776.021C1589.88 771.726 1586.38 770.344 1575.72 768.507C1565.01 766.66 1561.39 765.286 1561.39 763.057C1561.39 761.038 1571.69 745.721 1578.24 738.004C1580.8 734.987 1589.16 725.987 1596.82 718.004C1627.55 685.996 1635.43 672.471 1635.37 651.847C1635.35 642.122 1633.45 636.902 1628.42 632.663C1622.8 627.936 1618.67 626.644 1609.39 626.702C1598.87 626.768 1587.19 630.33 1567.29 639.54C1553.25 646.038 1546.07 648.525 1544.37 647.477C1541.29 645.57 1545.89 630.862 1556.92 607.358C1563.95 592.383 1572.3 577.788 1600.9 530.491C1641.08 464.038 1649.13 449.255 1659.67 422.491C1675.93 381.194 1679.15 355.401 1670.31 337.249C1667.88 332.254 1666.34 330.456 1662.58 328.252C1658.49 325.847 1656.88 325.506 1649.89 325.557C1634.11 325.673 1613.59 335.192 1583.39 356.396C1563.84 370.128 1556.07 377.113 1538.54 396.732C1517.34 420.455 1501.22 443.92 1484.34 475.623C1474.66 493.795 1472.11 494.795 1458.22 485.877C1455.07 483.857 1451.71 482.673 1448.07 482.297C1439.51 481.413 1433.15 484.862 1421.33 496.807C1413.16 505.065 1411.01 507.965 1407.06 516.012C1401.82 526.721 1398.56 537.305 1394.38 557.187C1392.8 564.719 1390.76 572.311 1389.86 574.056C1388.35 576.979 1387.91 577.189 1384.32 576.708C1382.06 576.405 1377.89 574.46 1374.42 572.088C1367.2 567.159 1362.41 566.692 1356.62 570.349C1351.56 573.543 1345.57 580.342 1343.31 585.457C1341.34 589.896 1336.01 610.674 1334.85 618.424C1334.47 620.936 1333.82 622.991 1333.4 622.991C1332.98 622.991 1322.34 617.592 1309.76 610.994C1297.18 604.396 1279.92 596.029 1271.39 592.401C1255.06 585.449 1220.86 573.72 1198.72 567.475C1186.65 564.068 1185.5 563.54 1184.9 561.125C1182.28 550.432 1162.61 529.697 1148.16 522.372C1145.54 521.044 1143.39 519.572 1143.39 519.102C1143.39 518.632 1145.31 517.948 1147.64 517.582C1160.89 515.51 1218.59 499.071 1226.89 495.003C1233.92 491.559 1240.52 485.386 1247.07 476.132C1249.66 472.48 1256.43 463.082 1262.13 455.248C1273.53 439.575 1278.02 430.999 1281.85 417.629C1285.04 406.515 1285.1 398.671 1282.1 388.29C1276.33 368.362 1267.25 362.506 1242.39 362.681C1219.91 362.84 1200.36 368.354 1149.89 388.766C1104.43 407.156 1088.39 413.238 1088.39 412.095C1088.39 411.161 1105.93 400.892 1121.87 392.495C1135.05 385.55 1169.05 365.747 1186.5 354.848C1209.48 340.49 1220.18 331.692 1238.6 312.004C1264.73 284.062 1268.07 275.994 1269.07 238.491C1269.64 217.139 1267.78 193.243 1265.03 186.669C1263.2 182.28 1257.2 177.446 1250.39 174.868C1243.24 172.158 1233.75 172.766 1225.7 176.451C1222.61 177.864 1219.88 178.809 1219.62 178.551C1219.36 178.293 1221.42 173.224 1224.2 167.287C1230.18 154.501 1233.82 143.223 1236.07 130.491C1237.59 121.955 1237.59 120.553 1236.14 113.302C1233.64 100.849 1230.61 95.0736 1223.44 89.1046C1210.51 78.3486 1204.35 77.2346 1180.85 81.4016C1163.53 84.4706 1161.64 85.1926 1152.85 92.0996C1149.25 94.9266 1146.04 96.9686 1145.71 96.6366C1145.37 96.3046 1145.68 92.6566 1146.39 88.5296C1147.09 84.4036 1147.38 78.9176 1147.03 76.3396C1144.79 60.0296 1128.75 45.2636 1105.39 38.0186C1091.37 33.6696 1079.49 31.7546 1068.98 32.1496C1061.22 32.4416 1058.89 32.9656 1053.04 35.7366C1036.59 43.5266 1018.24 63.0566 1009.47 82.1176C1007.86 85.6226 1005.81 90.2836 1004.92 92.4746C1002.72 97.8756 1001.43 95.6716 1001.41 86.4906C1001.38 77.2906 999.665 58.6336 997.865 47.9906C994.348 27.1996 982.645 14.1346 958.241 3.75262C952.33 1.23762 949.123 0.542623 941.832 0.197623C932.84 -0.228377 932.747 -0.208375 929.746 2.79262ZM952.272 7.12063C955.292 8.15963 960.717 10.6246 964.328 12.5976C991.422 27.4026 995.74 40.2686 995.841 106.491C995.911 152.636 992.928 182.176 983.452 229.19C975.895 266.679 958.148 330.991 955.359 330.991C954.88 330.991 951.071 329.191 946.894 326.991C942.717 324.791 938.391 322.991 937.281 322.991C934.017 322.991 931.241 321.056 931.814 319.18C932.098 318.251 933.453 308.041 934.827 296.491C940.166 251.584 942.53 220.991 940.661 220.991C939.256 220.991 939.2 221.358 933.469 267.991C930.664 290.816 928.037 311.966 927.632 314.991L926.894 320.491L922.029 320.141C918.87 319.914 915.797 320.407 913.269 321.547C910.22 322.922 908.858 323.068 906.99 322.217L904.606 321.13L904.136 293.811C903.687 267.725 903.457 265.091 899.044 235.491C896.503 218.441 892.798 196.006 890.812 185.635C888.826 175.264 887.413 165.67 887.672 164.315C887.932 162.96 887.789 157.045 887.356 151.171C885.941 131.973 888.873 109.782 895.362 90.5836C904.772 62.7466 927.936 11.8156 933.532 6.66161C936.354 4.06161 937.017 3.88861 941.692 4.53161C944.491 4.91661 949.252 6.08163 952.272 7.12063ZM1084.53 38.5586C1095.45 40.6056 1108.25 44.3156 1114.72 47.3086C1126.1 52.5716 1137.39 63.4466 1140.25 71.8896C1141.82 76.5566 1141.66 85.2326 1139.85 92.8956C1137.84 101.455 1132.53 112.499 1122.05 129.933C1108.4 152.644 1102.63 165.208 1091.72 195.991C1081.55 224.7 1071.09 247.622 1059.12 267.44C1055.82 272.912 1045.19 289.345 1035.5 303.959C1025.82 318.572 1015.71 334.023 1013.04 338.295C1010.38 342.567 1006.43 348.294 1004.27 351.023L1000.35 355.985L994.623 352.831C985.439 347.776 985.557 348.279 991.58 339.883C997.714 331.331 1004.4 319.045 1004.38 316.345C1004.38 315.287 1002.62 317.284 1000.29 320.991C994.111 330.81 983.182 344.991 981.79 344.991C979.552 344.991 977.394 343.796 977.394 342.557C977.394 341.886 980.037 335.297 983.268 327.914C991.632 308.8 999.043 287.991 997.486 287.991C997.063 287.991 991.857 298.728 985.916 311.85C979.975 324.973 974.354 336.718 973.424 337.951L971.734 340.192L965.564 337.077C962.171 335.364 959.394 333.477 959.394 332.884C959.394 332.292 960.265 330.7 961.329 329.347C963.738 326.284 967.754 314.197 974.774 288.882C991.129 229.909 999.971 175.317 1001.89 121.485C1002.41 106.873 1002.5 106.386 1005.36 102.388C1006.98 100.131 1009.22 95.9586 1010.34 93.1176C1016.19 78.2796 1024.33 66.2316 1036.27 54.7166C1053.35 38.2576 1063.97 34.7016 1084.53 38.5586ZM809.476 50.7116C814.585 52.9816 827.761 63.2086 834.601 70.2146C843.099 78.9186 860.866 109.488 868.182 127.991C877.305 151.068 883.336 173.715 888.288 203.491C896.397 252.261 899.394 278.904 899.394 302.235V320.991L895.144 321.007C892.806 321.015 888.194 321.716 884.894 322.564C881.594 323.413 877.964 324.342 876.827 324.63C875.026 325.087 874.518 324.339 872.882 318.823C869.745 308.253 863.161 290.797 846.237 248.185C831.089 210.044 828.654 204.397 827.749 205.303C827.015 206.037 842.566 251.487 854.159 282.491C860.74 300.091 867.147 317.602 868.395 321.405C871.086 329.598 871.736 328.708 858.013 335.65C848.207 340.61 847.011 340.654 840.061 336.302C834.157 332.606 819.296 317.924 811.91 308.491C798.873 291.84 786.491 270.296 782.024 256.491C775.342 235.844 774.601 225.545 773.435 137.265C772.421 60.4976 772.508 58.6916 777.459 53.4216C778.744 52.0536 781.843 50.2736 784.345 49.4666C790.55 47.4656 803.629 48.1136 809.476 50.7116ZM1210.51 86.7576C1212.92 87.8466 1217.43 91.1576 1220.52 94.1146C1236.28 109.174 1234.63 134.476 1215.37 173.109C1211.97 179.919 1208.06 186.692 1206.68 188.16C1205.3 189.628 1204.46 191.285 1204.8 191.844C1205.45 192.884 1193.06 216.952 1185.42 229.491C1175.26 246.185 1162.35 264.185 1150.01 278.856C1137.46 293.782 1094.25 334.479 1075.3 349.22C1060.19 360.973 1043.01 375.169 1030.14 386.533C1026.22 389.999 1025.38 391.991 1027.86 391.991C1029.46 391.991 1041.36 383.051 1060.54 367.44C1067.34 361.912 1076.72 354.523 1081.39 351.02C1086.07 347.517 1092.82 342.148 1096.39 339.089C1108.4 328.818 1145.34 292.718 1153.22 283.56C1172.91 260.679 1188.59 236.879 1206.58 202.543C1214.55 187.345 1216.03 185.902 1228.87 180.78C1241.93 175.571 1257.66 180.648 1260.36 190.943C1264 204.856 1264.9 244.025 1261.95 260.986C1259.66 274.213 1258.51 277.419 1253.1 285.755C1248.24 293.23 1225.99 317.689 1216.2 326.322C1203.15 337.817 1185.93 349.169 1147.21 371.807C1135.83 378.458 1123.24 385.553 1119.23 387.574C1115.21 389.596 1105.62 394.944 1097.91 399.458C1090.2 403.972 1072.42 413.879 1058.39 421.474C1044.37 429.068 1029.12 437.677 1024.5 440.605C1019.88 443.533 1015.72 445.694 1015.26 445.407C1014.79 445.12 1015.48 442.772 1016.79 440.188C1018.1 437.605 1020.11 432.313 1021.27 428.428C1022.44 424.483 1024.37 420.447 1025.63 419.286C1026.88 418.142 1034.68 412.689 1042.98 407.166C1057.47 397.522 1071.53 386.821 1072.23 384.905C1072.77 383.418 1070.84 383.858 1068.28 385.803C1063.55 389.397 1026.43 412.991 1025.5 412.991C1024.93 412.991 1024.78 409.28 1025.11 403.708C1025.74 393.145 1024.23 386.213 1019.31 377.063C1017.71 374.078 1016.39 371.239 1016.39 370.754C1016.39 370.268 1018.56 367.536 1021.21 364.681C1025.09 360.508 1040.51 341.832 1044.7 336.241C1045.22 335.554 1045.25 334.987 1044.77 334.982C1044.29 334.977 1036.83 342.289 1028.2 351.232L1012.51 367.491L1008.26 363.29L1004.02 359.089L1008.53 353.29C1014.21 345.979 1060.73 275.886 1066.13 266.491C1077.92 246.004 1088.42 222.254 1098.87 192.491C1106.62 170.398 1114.18 154.133 1125.81 134.522C1130.39 126.805 1135.73 117.315 1137.68 113.434C1141.06 106.695 1141.75 106.01 1152.91 98.2326C1161.66 92.1346 1165.89 89.8246 1169.75 89.0406C1196.8 83.5376 1202.65 83.2096 1210.51 86.7576ZM189.394 194.366C221.112 199.039 224.466 199.727 258.894 208.62C334.997 228.277 346.743 232.797 437.894 277.5C471.829 294.142 523.031 323.957 550.395 343.008C560.569 350.091 578.569 362.409 590.394 370.38C609.863 383.503 657.847 419.888 690.588 446.354C710.075 462.106 745.394 493.212 745.394 494.622C745.394 495.313 744.381 497.057 743.142 498.497L740.891 501.115L731.667 495.303C726.594 492.106 709.044 479.56 692.668 467.421C645.278 432.295 631.609 423.178 579.004 391.61C526.231 359.94 488.613 340.694 446.894 324.018C424.521 315.076 416.062 312.445 382.614 304.029C337.437 292.661 321.782 289.902 279.394 285.838C251.304 283.144 200.124 282.594 182.394 284.794C169.104 286.443 133.033 292.24 115.394 295.561C83.1638 301.628 45.0578 312.859 25.6678 322.006C19.8548 324.748 14.9798 326.991 14.8338 326.991C14.1838 326.991 9.36478 304.622 8.26278 296.491C7.59278 291.541 7.00977 279.841 6.96877 270.491C6.86977 248.065 8.26678 243.228 18.9268 229.077C36.4748 205.781 50.2698 198.526 85.5638 194.033C112.473 190.607 119.852 190.147 142.894 190.459C161.975 190.717 168.145 191.236 189.394 194.366ZM689.629 210.963C708.454 214.636 724.025 220.911 747.894 234.446C763.346 243.208 774.856 253.73 778.007 261.975C782.083 272.643 791.796 289.951 801.303 303.491C812.073 318.829 824.566 331.683 835.623 338.802C838.774 340.831 841.361 342.716 841.372 342.991C841.383 343.266 839.07 344.795 836.232 346.389C829.001 350.451 823.66 355.55 820.182 361.713C818.544 364.616 816.894 366.991 816.517 366.991C816.139 366.991 810.208 363.279 803.335 358.741C796.463 354.203 786.712 348.016 781.667 344.991C773.431 340.053 772.32 339.031 770.796 334.991C758.684 302.88 728.278 266.495 702.894 253.737C684.363 244.424 661.394 242.849 661.394 250.892C661.394 254.601 663.541 255.136 673.537 253.918C689.402 251.986 697.212 253.88 708.151 262.312C717.028 269.155 736.158 289.499 743.604 300.015C749.957 308.985 762.053 330.665 761.189 331.529C760.968 331.75 757.047 329.427 752.476 326.367C747.905 323.306 744.362 321.395 744.604 322.12C745.008 323.332 756.664 333.275 762.309 337.222C764.118 338.487 765.924 342.497 769.505 353.201C774.16 367.115 774.23 367.505 772.19 368.012C770.18 368.513 770.196 368.58 772.601 369.676C774.757 370.658 775.417 372.193 777.323 380.654C778.541 386.064 779.783 391.347 780.082 392.392C780.462 393.726 780.217 394.132 779.259 393.753C777.539 393.072 748.43 375.197 742.394 371.115C702.376 344.05 695.668 338.819 674.894 318.472C665.211 308.988 658.639 303.594 649.135 297.33C631.233 285.531 628.523 280.654 629.723 262.387C630.447 251.362 635.539 227.588 638.36 222.058C640.954 216.974 647.732 211.28 653.363 209.456C659.359 207.514 675.354 208.179 689.629 210.963ZM123.59 221.888C110.868 226.282 107.464 235.727 113.696 249.339C117.701 258.088 119.081 258.596 134.747 257.1C142.551 256.354 149.316 255.163 151.394 254.168C155.918 252.001 158.39 247.039 158.392 240.124C158.394 234.882 158.254 234.619 152.313 228.752C143.449 219.997 134.947 217.966 123.59 221.888ZM145.764 231.929C151.698 238.076 152.386 239.189 151.79 241.679C150.15 248.531 148.039 249.495 132.258 250.597C122.671 251.267 122.614 251.257 120.925 248.679C117.77 243.864 116.455 237.746 117.865 234.439C120.277 228.777 126.932 225.121 134.98 225.035C138.747 224.994 139.589 225.533 145.764 231.929ZM212.394 233.52C205.926 235.302 202.756 237.418 199.559 242.083C197.537 245.034 197.274 246.431 197.6 252.491C198.067 261.148 200.42 266.301 204.872 268.414C211.51 271.563 229.564 269.425 237.981 264.493C243.223 261.421 247.394 254.846 247.394 249.656C247.394 246.861 246.546 245.058 243.805 242.024C236.379 233.804 223.758 230.387 212.394 233.52ZM229.272 239.143C239.916 245.111 242.28 248.322 239.829 253.487C237.681 258.013 233.136 260.727 224.716 262.511C208.249 266 203.394 263.373 203.394 250.977C203.394 242.554 207.221 239.685 223.272 236.076C223.48 236.029 226.18 237.409 229.272 239.143ZM60.6158 245.461C48.1758 249.345 41.9848 260.738 47.4808 269.632C51.4808 276.104 62.7088 280.362 69.6948 278.057C76.7858 275.717 82.3968 266.972 82.3898 258.273C82.3808 246.771 73.3798 241.475 60.6158 245.461ZM72.9568 251.057C75.3828 253.589 75.8938 254.968 75.8938 258.983C75.8938 264.823 73.4568 268.65 68.0168 271.353C64.4508 273.125 64.0558 273.134 59.8428 271.524C47.9938 266.999 49.0058 256.34 61.8528 250.358C68.3838 247.316 69.4368 247.383 72.9568 251.057ZM622.108 278.076C623.325 278.537 625.463 281.166 626.858 283.919C630.069 290.257 634.292 294.457 642.442 299.419C653.043 305.872 660.204 311.781 673.765 325.264C694.447 345.826 699.106 349.215 758.682 387.028C773.899 396.686 781.604 402.155 781.874 403.491C782.097 404.591 782.561 407.239 782.907 409.376C783.504 413.07 783.421 413.23 781.215 412.632C772.687 410.32 746.798 404.965 745.489 405.241C742.586 405.855 747.172 407.507 765.644 412.503L783.394 417.304V420.777V424.249L777.144 423.538C761.472 421.753 753.63 421.03 750.394 421.072C747.231 421.113 747.117 421.207 749.207 422.045C751.046 422.783 781.325 427.991 783.774 427.991C784.115 427.991 784.394 429.004 784.394 430.241C784.394 432.437 781.973 434.809 773.144 441.262L769.353 444.033L756.624 441.458C740.293 438.153 711.187 430.843 700.894 427.461C696.494 426.015 688.394 422.655 682.894 419.994C672.753 415.088 669.539 413.045 633.894 388.855C622.894 381.39 608.719 372.235 602.394 368.51C585.815 358.746 579.944 354.397 575.533 348.611C568.261 339.073 565.235 331.185 565.318 321.991C565.455 307.061 569.48 295.391 577.487 286.716C582.38 281.415 589.185 278.458 599.858 276.996C606.321 276.111 618.475 276.701 622.108 278.076ZM245.394 290.017C271.798 291.479 293.843 293.625 317.394 297.025C337.535 299.933 367.02 306.228 368.799 308C369.297 308.496 370.092 313.984 370.566 320.196C371.039 326.408 372.516 338.241 373.848 346.491C375.18 354.741 376.584 364.335 376.969 367.811L377.668 374.132L368.281 373.471C354.6 372.507 280.444 377.483 254.894 381.08C235.215 383.85 201.608 390.436 183.894 394.994C152.589 403.049 115.949 414.725 100.546 421.555C92.2578 425.23 84.8778 428.007 84.1468 427.726C83.4158 427.446 81.0578 424.353 78.9068 420.854C73.5828 412.19 61.3228 394.995 54.4058 386.491C51.2738 382.641 46.3188 376.116 43.3948 371.991C40.4698 367.866 34.3388 359.732 29.7698 353.914C22.9748 345.264 15.7308 333.321 16.6928 332.358C17.4688 331.583 44.0238 321.497 54.1788 318.12C79.6758 309.644 103.399 304.13 142.894 297.501C189.658 289.651 210.85 288.104 245.394 290.017ZM149.759 306.913C140.071 309.318 134.78 318.758 139.059 326.001C141.093 329.444 144.266 330.991 149.292 330.991C157.678 330.991 164.828 326.805 166.398 320.977C168.927 311.583 160.305 304.295 149.759 306.913ZM237.952 308.483C232.341 310.482 229.326 312.989 225.894 318.509C223.128 322.958 222.896 324.043 222.919 332.413C222.937 338.941 223.571 343.509 225.177 348.674C229.284 361.88 234.484 365.238 250.894 365.277C261.42 365.302 268.814 363.883 289.74 357.819C303.572 353.81 306.863 351.091 307.897 342.81C309.106 333.134 306.86 324.869 301.3 318.536C298.879 315.78 296.417 314.452 290.048 312.469C273.557 307.336 246.899 305.296 237.952 308.483ZM388.004 311.935C436.766 323.994 490.129 347.141 551.894 383.023C609.546 416.516 636.009 433.664 689.394 472.121C705.069 483.413 719.799 493.908 722.128 495.443C724.456 496.979 726.154 498.57 725.902 498.978C725.41 499.774 712.556 497.939 705.809 496.11C703.563 495.501 697.713 494.312 692.809 493.467C681.826 491.575 667.402 488.172 648.394 482.99C640.419 480.815 626.244 477.464 616.894 475.543C607.544 473.622 596.069 470.891 591.394 469.476C586.719 468.06 576.369 465.338 568.394 463.428C553.96 459.971 536.696 455.211 535.008 454.223C534.521 453.938 535.157 452.924 536.421 451.97C538.702 450.25 538.704 450.227 536.687 449.148C535.568 448.549 527.732 447.139 519.274 446.015C501.467 443.648 497.478 442.602 480.446 435.828C454.648 425.568 425.165 409.899 409.343 398.04C400.996 391.784 388.122 378.338 385.434 373.07C384.295 370.837 382.433 363.719 381.296 357.251C376.272 328.665 375.411 323.259 374.784 316.336C374.364 311.701 374.484 308.991 375.11 308.991C375.655 308.991 381.457 310.316 388.004 311.935ZM158.144 313.618C160.766 315.272 161.116 319.127 158.849 321.393C158 322.242 155.474 323.486 153.237 324.156C149.862 325.168 148.72 325.124 146.531 323.9C141.697 321.195 142.887 314.98 148.723 312.457C152.078 311.006 154.469 311.301 158.144 313.618ZM279.856 314.179C291.012 317.877 298.056 323.301 300.258 329.89C300.883 331.76 301.394 335.922 301.394 339.14C301.394 346.718 300.015 348.071 288.803 351.49C268.19 357.778 265.35 358.315 252.223 358.404C240.856 358.482 239.26 358.276 236.723 356.4C232.896 353.57 229.342 344.341 228.673 335.497C227.633 321.746 232.565 314.522 244.72 311.992C251.529 310.575 273.018 311.912 279.856 314.179ZM83.9288 316.646C65.2508 320.962 57.5258 324.967 53.7318 332.305C49.7808 339.944 52.9598 351.764 60.2918 356.702C63.0528 358.562 65.0428 358.991 70.9078 358.991C77.1398 358.991 79.0648 358.52 85.0098 355.54C92.7618 351.654 102.24 344.33 106.699 338.78C112.372 331.719 110.937 320.933 103.781 316.84C98.9038 314.051 95.3148 314.016 83.9288 316.646ZM96.7098 320.113C100.55 322.086 104.394 326.297 104.394 328.53C104.394 332.08 100.271 337.165 92.8658 342.745C84.3558 349.158 78.6388 351.938 72.4528 352.67C64.1728 353.651 58.3938 348.685 58.3938 340.588C58.3938 332.382 63.2988 328.302 79.8018 322.779C91.9888 318.7 93.4968 318.463 96.7098 320.113ZM900.425 327.018C903.465 329.654 906.563 330.379 911.449 329.598C913.627 329.25 920.026 328.72 925.668 328.421C935.819 327.882 935.993 327.911 942.41 331.229C954.84 337.656 990.75 357.19 994.807 359.732C1001.93 364.196 1011.85 375.145 1015.51 382.586C1018.84 389.353 1018.89 389.67 1018.85 402.477C1018.79 417.388 1017.28 424.052 1009.86 442.187C1004.23 455.922 1003.73 460.347 1005.91 476.809C1007.37 487.822 1007.46 491.022 1006.45 496.242C1005.12 503.164 999.706 514.921 995.799 519.368C992.952 522.608 995.432 522.645 971.12 519.004C963.544 517.87 939.469 515.604 917.62 513.969C861.389 509.76 849.722 509.055 825.056 508.37L803.217 507.764L803.91 497.598C804.454 489.613 804.259 486.274 802.998 482.029C801.466 476.871 801.485 476.435 803.403 472.473C804.508 470.19 806.196 467.604 807.153 466.726C808.111 465.848 810.131 463.995 811.644 462.606C813.93 460.508 814.394 459.251 814.394 455.159C814.394 449.298 813.25 448.092 806.809 447.166L802.109 446.491L808.164 438.491C823.673 418.003 844.268 401.394 869.131 389.324C881.904 383.124 887 381.801 888.008 384.427C889.001 387.015 886.84 390.709 883.247 392.567C880.129 394.179 879.951 394.163 878.283 392.102C877.331 390.926 876.348 389.408 876.098 388.728C875.753 387.789 875.347 387.77 874.411 388.649C873.455 389.547 873.438 390.594 874.337 393.319C876.491 399.844 880.012 400.408 887.599 395.446C892.137 392.477 894.408 386.512 892.552 382.438C891.471 380.067 891.623 379.793 894.746 378.488C899.788 376.382 920.575 370.18 931.894 367.405C953.535 362.1 958.342 362.218 974.286 368.449C983.902 372.207 987.252 372.733 989.194 370.791C992.449 367.536 988.566 363.207 980.385 360.97C973.966 359.215 950.867 359.499 938.394 361.485C902.171 367.255 868.448 379.798 842.945 396.988C826.252 408.24 814.595 419.285 802.044 435.741C799.422 439.179 796.921 441.991 796.485 441.991C796.049 441.991 794.275 441.497 792.543 440.893C788.818 439.595 788.432 437.03 791.394 433.264C793.001 431.221 793.394 429.207 793.394 423.016C793.394 412.885 796.499 406.576 807.439 394.476C816.141 384.852 818.312 381.398 820.683 373.398C824.637 360.06 829.284 355.371 847.939 345.899C855.614 342.003 866.282 336.331 871.644 333.297C886.629 324.818 895.625 322.855 900.425 327.018ZM1659.86 332.897C1665.9 336.292 1669.4 346.371 1669.45 360.563C1669.52 380.519 1659.41 412.971 1642.66 446.488C1633.51 464.802 1628.86 472.898 1601.88 517.491C1567.23 574.751 1562.64 582.701 1553.89 600.491C1539.45 629.879 1535.01 644.699 1538.87 650.589C1540.48 653.046 1540.97 653.184 1546.74 652.769C1551.67 652.415 1555.98 650.923 1568.39 645.287C1590.98 635.027 1599.01 632.531 1609.46 632.509C1617.21 632.493 1618.44 632.763 1622.3 635.314C1628.53 639.429 1630.84 645.163 1630 654.412C1628.4 671.986 1621.7 683.059 1597.14 708.761C1575.02 731.898 1562.21 747.54 1556.97 757.805C1553.07 765.444 1557.12 770.89 1568.21 772.913C1586.92 776.327 1592.18 778.992 1595.64 786.805C1598.19 792.591 1597.61 800.706 1594.1 808.182C1588.99 819.062 1568.55 841.266 1552.93 852.907C1547.96 856.61 1532.5 866.806 1518.57 875.565C1489.03 894.144 1475.99 903.652 1464.79 914.781C1450.61 928.864 1442.14 941.634 1434.66 960.206C1431.22 968.753 1430.09 972.905 1430.01 977.319C1429.9 982.68 1430.15 983.377 1433.1 986.015C1437.71 990.142 1441.82 990.544 1457.31 988.384C1464.78 987.343 1475.84 986.516 1481.89 986.547C1495.1 986.615 1501.05 988.726 1507.37 995.582C1510.84 999.346 1511.39 1000.57 1511.39 1004.5C1511.39 1010.85 1508.54 1018.6 1501.32 1031.9C1496.91 1040.04 1495.1 1044.44 1495.03 1047.26C1494.93 1050.93 1495.43 1051.68 1502.15 1057.85C1506.34 1061.69 1510.01 1066.06 1510.89 1068.21C1512.95 1073.3 1512.78 1080.56 1510.4 1088.14C1505.73 1103.05 1498.4 1111.44 1474.44 1129.29C1462.44 1138.23 1451.99 1147.15 1441.39 1157.49C1432.87 1165.81 1420.72 1176.93 1414.39 1182.19C1401.02 1193.32 1400.21 1194.15 1385.42 1211.99C1375.78 1223.62 1373.33 1227.36 1367.72 1238.99C1364.14 1246.42 1359.84 1255.75 1358.16 1259.74C1356.49 1263.73 1354.67 1266.99 1354.12 1266.99C1353.5 1266.99 1353.34 1264.8 1353.7 1261.24C1354.51 1253.36 1356.22 1238.12 1357.38 1228.49C1357.91 1224.09 1358.61 1213.29 1358.94 1204.49C1359.27 1195.69 1360.63 1176.34 1361.95 1161.49C1363.27 1146.64 1365.28 1120.32 1366.4 1102.99C1367.53 1085.67 1368.68 1070.02 1368.97 1068.22C1369.26 1066.42 1370.84 1063.41 1372.49 1061.53C1376.5 1056.96 1392.9 1049.01 1407.39 1044.6C1413.72 1042.68 1422.49 1040 1426.89 1038.65L1434.89 1036.19L1429.75 1036.09C1416.01 1035.82 1388.83 1044 1375.53 1052.4C1373.13 1053.92 1370.83 1054.78 1370.42 1054.33C1370 1053.87 1370.29 1047 1371.05 1039.08C1373.12 1017.37 1387.67 904.364 1388.49 903.57C1388.71 903.358 1393.62 902.441 1399.39 901.533C1424.32 897.613 1430.09 895.494 1446.3 884.309C1459.69 875.072 1469.18 866.974 1481.42 854.35C1497.27 838.001 1500.93 831.416 1504.02 813.671C1505.93 802.709 1505.4 784.695 1502.89 775.491C1499.06 761.434 1488.3 745.162 1468.05 722.818L1457.48 711.145L1475.89 696.818C1486.02 688.938 1493.71 682.355 1492.97 682.19C1490.69 681.68 1474.27 691.997 1455.32 705.831C1453.67 707.039 1452.65 706.332 1444.98 698.66L1436.47 690.149L1442.3 674.238C1445.51 665.487 1448.93 656.655 1449.9 654.612C1452.65 648.816 1470.49 635.01 1505.64 611.459C1515.41 604.919 1523.39 599.02 1523.39 598.35C1523.39 595.193 1484.69 618.751 1464.72 634.06C1460.43 637.353 1456.78 639.658 1456.62 639.181C1456.19 637.894 1469.28 609.846 1479.11 590.991C1494.6 561.287 1518.79 520.098 1542.78 482.572C1546.97 476.022 1550.39 470.399 1550.38 470.077C1550.37 469.754 1549.91 468.816 1549.36 467.991C1548.54 466.773 1546.43 468.462 1538.12 476.991C1498.22 517.945 1459.14 586.512 1427.42 671.206L1424.15 679.921L1418.02 675.571C1414.65 673.179 1406.49 667.545 1399.89 663.052L1387.89 654.882L1382.26 641.944C1372.93 620.486 1369.85 617.65 1376.35 636.481C1378.57 642.934 1380.39 648.63 1380.39 649.139C1380.39 649.649 1377.8 648.304 1374.63 646.151C1371.46 643.999 1362.01 638.539 1353.63 634.02C1345.25 629.501 1338.39 625.387 1338.39 624.88C1338.39 622.845 1342.67 603.93 1345.12 595.141C1347.4 586.942 1348.35 585.108 1352.8 580.241C1355.59 577.188 1359.34 574.074 1361.14 573.322C1364.83 571.782 1366.29 572.291 1374.93 578.123C1380.12 581.622 1386.85 582.887 1390.34 581.019C1393.73 579.205 1397 570.871 1399.77 556.991C1402.4 543.841 1406.99 527.961 1410.37 520.308C1414.84 510.209 1425.47 498.022 1436.38 490.491C1442.25 486.438 1449.25 486.304 1455.04 490.135C1457.23 491.59 1461.35 493.779 1464.19 495C1474.59 499.475 1479.41 495.947 1490.39 475.829C1522.74 416.512 1558.59 376.405 1603.15 349.666C1632.53 332.032 1649.42 327.037 1659.86 332.897ZM796.105 359.741C814.126 371.599 815.438 372.665 814.859 374.981C813.911 378.768 812.628 378.989 805.997 376.505C802.64 375.247 795.83 373.238 790.862 372.04L781.83 369.862L779.052 359.851C777.524 354.346 776.028 349.2 775.727 348.416C775.426 347.632 775.528 346.991 775.954 346.991C776.38 346.991 785.448 352.728 796.105 359.741ZM136.361 352.241C132.381 354.931 131.179 358.574 132.911 362.693C136.078 370.226 150.196 366.232 151.983 357.297C153.345 350.487 143.616 347.338 136.361 352.241ZM145.173 357.063C145.494 358.751 140.886 361.413 139.319 360.445C137.963 359.607 138.191 356.243 139.644 355.635C141.897 354.692 144.868 355.459 145.173 357.063ZM104.802 363.913C97.2788 367.712 94.8048 371.561 95.6808 378.099C96.7648 386.18 105.673 391.209 114.824 388.904C123.486 386.723 127.542 379.697 125.474 370.457C124.017 363.945 121.745 361.82 115.654 361.268C111.787 360.917 109.751 361.414 104.802 363.913ZM115.849 365.612C118.05 366.457 120.394 371.239 120.394 374.886C120.394 376.609 119.37 379.07 117.981 380.685C115.915 383.087 114.822 383.491 110.394 383.491C105.966 383.491 104.873 383.087 102.807 380.685C101.48 379.142 100.394 377.012 100.394 375.951C100.394 372.113 106.925 366.897 114.062 365.035C114.155 365.011 114.959 365.271 115.849 365.612ZM1260.39 369.584C1270.69 372.642 1275.77 380.087 1278.46 396.088C1280.03 405.442 1279.19 410.25 1273.41 425.207C1269.72 434.767 1267.6 438.217 1253.76 457.207C1236.87 480.377 1232.96 484.942 1226.89 488.508C1224.69 489.802 1213.67 493.601 1202.39 496.952C1191.12 500.302 1172.14 506.27 1160.21 510.214L1138.53 517.384L1130.71 514.739C1121.32 511.561 1117.11 510.73 1094.39 507.576C1066.97 503.767 1024.45 503.275 1012.5 506.628C1010.26 507.257 1010.15 507.114 1010.9 504.396C1011.33 502.798 1011.78 494.966 1011.88 486.991L1012.08 472.491L1021.98 471.253C1027.43 470.573 1037.07 469.002 1043.39 467.764C1058.89 464.729 1052.98 464.224 1033.61 466.928C1015.59 469.443 1011.81 469.524 1011 467.409C1010.09 465.041 1010.27 458.449 1011.32 455.697C1012.41 452.829 1024.79 445.306 1034.39 441.673C1037.97 440.321 1047.19 436.187 1054.89 432.486C1070.85 424.817 1089.8 416.943 1107.63 410.571C1114.38 408.162 1133.84 400.571 1150.89 393.702C1194.01 376.332 1213.5 370.282 1233.89 367.949C1242.73 366.938 1253.78 367.619 1260.39 369.584ZM796.547 377.591C812.091 383 811.457 381.84 803.763 390.778C793.814 402.336 794.964 401.47 791.484 400.028C789.124 399.051 788.3 397.954 787.805 395.13C787.455 393.128 786.319 387.761 785.281 383.202C784.243 378.643 783.394 374.706 783.394 374.452C783.394 373.385 786.787 374.195 796.547 377.591ZM380.553 380.286C382.016 380.949 385.264 384.03 387.771 387.134C398.811 400.8 428.556 420.466 459.46 434.532C466.299 437.644 472.325 440.599 472.852 441.099C473.426 441.643 455.594 441.752 428.352 441.372C383.03 440.739 341.857 442.082 314.394 445.09C298.643 446.815 233.002 457.819 215.894 461.603C197.423 465.688 173.138 473.537 155.894 480.995C149.294 483.849 140.493 487.64 136.337 489.419C129.96 492.149 123.333 496.184 114.412 502.767C112.838 503.928 112.432 503.159 109.922 494.267C108.403 488.89 105.899 481.116 104.356 476.991C97.5018 458.665 92.1818 445.36 89.8618 440.741C86.9758 434.995 87.4448 433.765 93.2238 431.925C95.2418 431.282 100.416 429.229 104.72 427.362C127.812 417.344 179.818 402.47 219.394 394.565C249.861 388.478 265.972 386.704 354.394 379.697C364.998 378.857 378.047 379.151 380.553 380.286ZM307.394 399.484C297.97 401.376 292.838 403.722 289.295 407.756C286.507 410.932 286.22 411.833 286.633 416.128C287.54 425.571 296.162 434.327 305.705 435.5C312.248 436.304 333.826 434.458 342.394 432.362C350.281 430.432 360.073 425.945 363.666 422.615C370.819 415.985 366.768 406.519 354.872 402.069C344.196 398.074 320.768 396.799 307.394 399.484ZM344.894 405.136C352.872 407.434 359.859 411.155 360.8 413.605C361.819 416.263 358.887 419.613 353.18 422.309C337.053 429.926 304.758 432.247 298.144 426.266C295.611 423.975 292.394 417.663 292.394 414.983C292.394 409.91 302.866 405.027 317.894 403.093C326.97 401.925 336.165 402.621 344.894 405.136ZM791.379 406.741C791.37 407.703 790.927 409.166 790.394 409.991C789.658 411.129 789.421 410.707 789.409 408.241C789.401 406.453 789.844 404.991 790.394 404.991C790.944 404.991 791.387 405.779 791.379 406.741ZM932.467 407.626C930.183 410.529 929.72 415.917 931.594 417.791C933.293 419.49 937.963 419.279 939.823 417.42C942.029 415.213 942.232 408.752 940.174 406.241C938.455 404.145 934.67 404.825 932.467 407.626ZM676.552 422.88C681.69 425.609 690.619 429.481 696.394 431.485C712.189 436.967 746.762 445.063 760.523 446.504C768.027 447.29 768.416 448.235 763.555 453.858L760.894 456.936L734.894 455.323C711.34 453.862 708.642 453.512 706.217 451.601C704.744 450.44 697.094 444.289 689.217 437.931C681.339 431.573 669.719 422.39 663.394 417.524C648.298 405.912 646.873 404.392 658.052 411.828C663.09 415.178 671.415 420.152 676.552 422.88ZM936.394 412.491C936.394 413.316 935.733 413.991 934.925 413.991C934.031 413.991 933.682 413.405 934.032 412.491C934.349 411.666 935.01 410.991 935.501 410.991C935.992 410.991 936.394 411.666 936.394 412.491ZM166.894 415.665C158.37 416.729 149.174 419.379 145.15 421.931C139.056 425.795 136.927 431.219 137.632 441.079C138.222 449.317 140.055 452.491 145.959 455.491C151.542 458.328 166.573 458.219 174.562 455.283C183.116 452.139 192.444 445.29 196.711 439.018C198.885 435.825 198.911 427.674 196.758 424.031C192.796 417.323 180.719 413.94 166.894 415.665ZM183.884 421.883C196.19 427.327 195.233 436.111 181.365 445.01C167.721 453.765 148.81 454.271 144.673 445.991C142.945 442.533 143.081 433.497 144.915 429.951C146.633 426.629 151.397 423.897 159.424 421.631C170.108 418.615 176.647 418.682 183.884 421.883ZM835.894 429.756C835.344 430.16 834.036 432.178 832.987 434.239C831.146 437.86 831.143 438.056 832.892 439.989C837.034 444.566 844.727 441.216 844.727 434.837C844.727 430.31 839.35 427.217 835.894 429.756ZM839.824 434.878C840.125 435.365 839.702 436.32 838.883 437C837.701 437.981 837.087 437.981 835.905 437C834.093 435.496 834.837 433.991 837.394 433.991C838.429 433.991 839.523 434.39 839.824 434.878ZM954.822 442.319C953.665 445.334 954.926 449.317 957.69 451.372C960.269 453.289 960.695 453.333 963.19 451.939C965.047 450.902 965.988 449.472 966.195 447.375C966.561 443.659 965.188 442.431 959.646 441.517C956.33 440.97 955.272 441.145 954.822 442.319ZM452.67 447.99L494.447 448.948L511.392 454.519C520.712 457.584 528.559 460.449 528.83 460.888C529.101 461.326 523.374 461.97 516.103 462.318C479.651 464.067 426.024 469.989 401.078 475.022C362.197 482.866 311.42 497.449 273.394 511.693C226.695 529.184 181.064 552.913 146.548 577.655L141.201 581.487L138.854 578.543C136.106 575.097 128.171 559.153 124.838 550.381C121.862 542.548 114.049 510.333 114.708 508.615C115.517 506.507 125.554 500.295 132.488 497.612C136.011 496.249 143.891 492.871 149.999 490.107C171.2 480.511 200.547 471.582 227.394 466.56C277.888 457.114 317.954 451.427 344.394 449.951C401.182 446.782 400.531 446.794 452.67 447.99ZM736.894 459.009C755.913 460.386 757.394 460.628 757.394 462.36C757.394 464.63 751.477 471.99 749.638 472.008C748.679 472.017 745.644 473.36 742.894 474.991C740.144 476.622 737.347 477.965 736.677 477.974C735.773 477.987 720.756 465.13 712.394 457.184C712.119 456.923 713.919 456.966 716.394 457.279C718.869 457.593 728.094 458.371 736.894 459.009ZM765.626 466.69L765.088 473.389L758.241 480.142C754.475 483.856 751.394 486.682 751.394 486.423C751.394 484.55 764.883 459.991 765.912 459.991C766.05 459.991 765.922 463.006 765.626 466.69ZM535.894 473.391C550.006 474.124 600.801 482.775 633.11 489.948C638.179 491.073 663.376 495.628 689.104 500.07C714.833 504.512 736.09 508.354 736.343 508.607C736.596 508.86 736.207 510.513 735.479 512.279C734.75 514.046 732.594 519.541 730.688 524.491C728.783 529.441 726.576 534.16 725.786 534.978C724.574 536.231 718.718 536.502 688.621 536.698C634.719 537.049 619.304 538.364 566.894 547.083C539.615 551.621 522.565 554.97 490.394 562.112C478.019 564.859 458.444 569.124 446.894 571.59C406.589 580.196 395.049 583.414 346.394 599.612C314.79 610.134 314.279 610.351 280.394 627.677C271.449 632.251 244.394 637.52 244.394 634.689C244.394 634.135 248.092 630.263 252.611 626.086C265.397 614.269 278.792 601.576 305.894 575.596C319.644 562.416 335.844 547.388 341.894 542.203C370.367 517.797 398.24 500.87 425.359 491.518C437.441 487.351 473.703 477.864 486.894 475.419C495.824 473.763 516.675 472.195 523.394 472.674C525.319 472.811 530.944 473.134 535.894 473.391ZM454.219 474.5C453.939 474.779 446.615 477.026 437.944 479.492C399.649 490.384 377.238 502.928 337.394 535.773C324.163 546.68 259.801 610.729 247.485 625.245C242.749 630.828 238.183 635.257 236.81 635.602C233.04 636.548 214.976 634.095 205.508 631.351C188.921 626.544 173.098 617.632 163.754 607.833C157.237 600.998 145.444 586.599 145.418 585.444C145.405 584.868 152.257 580.299 160.644 575.29C203.682 549.587 243.174 530.353 280.394 516.966C319.262 502.987 373.17 487.227 401.894 481.446C426.596 476.474 456.17 472.548 454.219 474.5ZM262.894 476.709C259.321 477.577 254.574 481.897 253.919 484.876C253.125 488.494 255.219 493.645 258.846 496.991C260.968 498.949 262.617 499.491 266.458 499.491C270.778 499.491 271.8 499.051 275.06 495.792C278.312 492.54 278.808 491.391 279.163 486.292C279.715 478.368 277.557 475.941 270.105 476.107C267.239 476.171 263.994 476.442 262.894 476.709ZM749.394 476.971C749.394 477.948 746.381 486.107 745.721 486.918C745.53 487.153 744.031 486.059 742.39 484.488L739.408 481.63L743.651 478.815C748.19 475.803 749.394 475.416 749.394 476.971ZM208.496 478.201C200.398 479.187 194.391 481.729 191.96 485.2C188.292 490.437 191.362 500.372 197.654 503.626C204.766 507.303 218.47 502.459 223.366 494.537C226.149 490.033 226.05 483.819 223.144 480.646C220.283 477.522 217.661 477.084 208.496 478.201ZM270.693 480.914C273.968 482.16 274.653 484.435 272.969 488.466C270.608 494.116 265.708 495.574 261.708 491.817C258.235 488.554 258.627 484.429 262.644 481.98C266.32 479.739 267.269 479.613 270.693 480.914ZM217.972 484.478C220.288 486.794 220.36 487.155 219.021 489.728C216.243 495.068 208.726 499.991 203.349 499.991C200.489 499.991 195.394 494.708 195.394 491.742C195.394 487.03 203.622 482.128 211.689 482.035C214.438 482.003 216.171 482.677 217.972 484.478ZM833.869 488.613C828.941 493.93 830.122 502.991 835.743 502.991C839.568 502.991 844.394 496.301 844.394 490.997C844.394 485.905 837.77 484.404 833.869 488.613ZM907.262 487.998C903.053 490.223 901.66 494.588 903.488 499.831C904.836 503.699 907.018 505.001 912.078 504.959C916.198 504.925 918.034 503.872 920.69 500.018C922.423 497.504 922.963 491.389 921.629 489.391C919.18 485.723 912.748 485.1 907.262 487.998ZM839.394 492.557C839.394 495.025 837.465 497.991 835.859 497.991C834.078 497.991 833.891 493.894 835.594 492.191C837.287 490.498 839.394 490.701 839.394 492.557ZM917.199 494.125C917.419 496.026 916.742 497.359 914.766 498.913C911.385 501.572 909.409 501.272 907.462 497.802C906.088 495.354 906.123 494.948 907.876 493.011C909.28 491.459 910.74 490.974 913.343 491.192C916.343 491.445 916.941 491.9 917.199 494.125ZM1517.14 514.209C1480.05 573.722 1456.71 619.369 1438.4 668.231C1432.13 684.964 1431.64 685.894 1429.87 684.596C1428.06 683.276 1428.24 682.55 1434.27 666.855C1449.11 628.232 1468.39 586.718 1484.84 557.991C1498.33 534.421 1524.44 496.708 1526.11 498.377C1526.42 498.679 1522.38 505.804 1517.14 514.209ZM1091.52 513.01C1120.58 517.234 1124.52 518.137 1136.79 523.38C1149 528.596 1153.2 531.289 1162.74 540.061C1168.95 545.764 1179.97 559.748 1179.01 560.708C1178.79 560.923 1172.61 559.289 1165.26 557.077C1133.84 547.618 1066.92 532.618 1035.7 528.035L1022.52 526.102L1015.02 520.555C1010.9 517.503 1007.26 514.584 1006.94 514.067C1006.62 513.551 1007.27 512.49 1008.38 511.711C1010 510.578 1016.37 510.256 1040.28 510.099C1068.99 509.91 1070.98 510.024 1091.52 513.01ZM855.894 515.082C865.794 515.631 877.719 516.497 882.394 517.006C887.069 517.515 900.794 518.625 912.894 519.474C942.456 521.547 955.099 523.019 1008.14 530.56C1055.46 537.286 1057.21 537.612 1106.39 548.838C1149.41 558.656 1144.73 557.336 1220.89 581.171C1256.72 592.384 1275.04 600.083 1310.59 618.863C1322.86 625.345 1340.09 634.43 1348.89 639.051C1364.23 647.105 1402.09 671.609 1418.89 684.361C1434.75 696.389 1466 728.903 1481.93 749.946C1496.39 769.042 1500.85 787.193 1497.32 812.57C1495.31 826.997 1490.37 835.808 1476.43 849.849C1462.28 864.093 1438.54 882.991 1434.8 882.991C1434.11 882.991 1432.78 880.629 1431.84 877.741C1422.84 850.239 1388.21 797.619 1345.79 746.991C1325.12 722.329 1307.64 705.976 1272.89 678.804C1239.23 652.482 1214.08 636.533 1167.89 612.215C1143.61 599.433 1133.15 594.843 1106.33 585.202C1066.48 570.884 1028.19 560.987 958.894 547.096C921.786 539.658 891.4 534.984 854.394 531.022C838.719 529.344 820.118 527.352 813.058 526.595C805.998 525.838 799.819 524.816 799.328 524.325C797.929 522.926 800.201 516.245 802.683 514.456C805.073 512.732 815.8 512.858 855.894 515.082ZM1011.16 521.631C1014.07 523.633 1016.32 525.376 1016.17 525.504C1015.8 525.815 1000.99 523.871 1000.55 523.454C999.957 522.903 1003.83 518.056 1004.88 518.022C1005.43 518.005 1008.25 519.629 1011.16 521.631ZM160.894 523.936C155.108 526.304 152.838 534.176 156.332 539.75C162.104 548.956 175.683 549.543 180.842 540.81C182.805 537.487 183.109 530.196 181.417 527.033C180.787 525.857 179.145 524.467 177.768 523.943C174.753 522.797 163.689 522.792 160.894 523.936ZM174.171 528.548C178.605 531.653 175.303 540.991 169.772 540.991C163.655 540.991 158.551 535.164 161.095 531.086C163.533 527.178 170.332 525.859 174.171 528.548ZM809.431 531.496C815.706 532.324 836.828 534.804 856.367 537.009C900.304 541.966 906.626 542.984 959.394 553.602C1034.59 568.731 1079.61 581.228 1128.39 600.51C1144.48 606.869 1181.84 626.305 1181.19 627.978C1180.61 629.463 1162.77 644.276 1154.39 650.223C1149.72 653.542 1143.64 658.157 1140.89 660.478C1134.41 665.946 1131.16 667.564 1123.94 668.898C1111.62 671.176 1087.12 669.278 1065.39 664.362C1054.16 661.82 1032.47 654.957 1016.89 649.014C999.837 642.505 994.428 639.932 989.255 635.862C973.945 623.817 958.851 616.209 966.055 624.168C966.968 625.178 967.465 626.253 967.16 626.558C966.544 627.174 945.528 616.866 935.394 610.978C931.819 608.901 923.044 604.252 915.894 600.648C908.744 597.044 896.819 590.428 889.394 585.947C881.969 581.466 870.612 575.142 864.156 571.894C840.035 559.757 796.394 533.682 796.394 531.407C796.394 529.677 795.6 529.672 809.431 531.496ZM825.305 558.918C841.959 569.484 866.791 584.842 880.488 593.047C907.141 609.014 942.765 632.388 953.394 640.882C966.144 651.072 981.698 667.625 992.022 681.991C1000.07 693.189 1016 718.826 1021.53 729.491C1040.48 766.001 1048.85 805.598 1052.4 875.491C1053.33 893.894 1056.58 937.3 1057.96 949.741C1058.71 956.539 1057.06 956.691 1051.47 950.339C1042.47 940.112 1036.65 929.979 1032.33 916.991C1024.89 894.625 1018.13 881.261 986.603 826.54C982.499 819.416 976.564 809.697 973.414 804.941C968.179 797.034 922.491 732.063 904.536 706.991C887.131 682.686 854.102 641.29 838.759 624.549C830.378 615.405 804.111 590.062 780.939 568.765L775.985 564.211L782.068 554.851C785.414 549.703 788.992 544.005 790.019 542.189C791.185 540.128 792.477 539.041 793.456 539.297C794.319 539.523 808.651 548.352 825.305 558.918ZM700.828 541.885C701.132 542.377 699.605 543.49 697.434 544.358C693.277 546.022 670.442 552.186 654.394 555.976C625.11 562.893 585.062 574.769 553.894 585.779C529.723 594.317 521.475 598.743 508.262 610.267C501.509 616.157 497.683 618.264 468.838 631.986C409.93 660.01 395.296 667.603 364.133 686.319C329.287 707.247 317.839 715.181 294.394 734.656C274.844 750.895 261.074 764.408 252.526 775.741C249.104 780.278 245.858 783.991 245.314 783.991C243.484 783.991 240.389 774.868 238.237 763.132C232.203 730.239 238.751 692.339 254.96 666.332C261.759 655.425 275.563 641.435 287.179 633.679C304.03 622.428 315.07 617.68 355.394 604.337C400.93 589.27 408.752 587.238 487.75 569.959C576.457 550.557 616.62 544.463 671.394 542.092C698.54 540.918 700.223 540.906 700.828 541.885ZM715.347 547.741C712.981 550.353 703.689 559.842 694.699 568.826C685.708 577.81 669.938 594.46 659.653 605.826C649.369 617.192 635.315 632.284 628.424 639.363C587.101 681.815 544.148 708.912 480.173 732.887C469.302 736.96 465.331 737.991 460.508 737.991C453.174 737.991 452.797 737.489 451.514 726.015C449.98 712.309 452.332 700.681 458.95 689.246C460.464 686.631 467.83 678.41 475.32 670.977L488.937 657.462L494.906 643.506C498.272 635.635 502.758 627.044 505.194 623.803C509.952 617.474 521.177 607.978 529.594 603.163C546.057 593.744 610.333 573.052 668.326 558.503C678.464 555.96 693.314 551.461 701.326 548.505C719.893 541.655 720.909 541.599 715.347 547.741ZM724.394 550.769C724.394 553.122 722.154 556.149 707.821 573.161C685.955 599.116 666.174 627.132 652.163 651.991C648.598 658.316 642.694 668.758 639.044 675.195C614.762 718.017 607.337 741.281 596.98 806.991C592.541 835.151 590.764 850.845 588.99 877.537C588.122 890.594 587.043 899.894 586.147 902.037C585.353 903.937 582.496 908.478 579.798 912.129C577.101 915.78 571.969 922.97 568.394 928.107C560.398 939.597 550.488 950.194 541.047 957.349C533.603 962.99 524.904 967.991 522.535 967.991C520.822 967.991 520.8 968.065 528.299 948.819C538.082 923.716 547.265 883.562 557.763 819.991C564.647 778.308 569.043 747.969 571.962 721.991C573.415 709.066 575.193 697.066 575.913 695.325C576.833 693.098 579.942 690.329 586.384 685.998C605.312 673.271 626.491 654.031 647.488 630.491C667.28 608.302 682.522 591.821 697.891 575.991C705.1 568.566 713.617 559.453 716.818 555.741C722.844 548.752 724.394 547.735 724.394 550.769ZM269.894 559.158C265.281 561.709 263.394 564.308 263.394 568.109C263.394 572.813 266.126 574.991 272.028 574.991C275.477 574.991 276.673 574.448 278.805 571.914C281.938 568.191 282.053 565.794 279.312 561.359C277.085 557.756 273.812 556.991 269.894 559.158ZM200.772 560.428C188.781 565.647 195.09 582.302 209.065 582.319C219.562 582.332 224.695 570.84 218.24 561.775C216.431 559.234 215.718 558.994 210.076 559.03C206.676 559.052 202.489 559.681 200.772 560.428ZM724.394 564.921C724.394 565.918 721.2 574.779 717.296 584.612C698.657 631.557 685.548 669.19 676.93 700.491C665.633 741.52 651.869 781.406 639.618 808.615C636.924 814.597 632.355 826.406 629.463 834.859C626.571 843.311 622.867 853.211 621.231 856.859C616.16 868.171 606.03 885.188 603.4 886.812C602.022 887.664 599.893 889.245 598.67 890.325C596.592 892.161 596.402 892.176 595.776 890.544C593.306 884.108 601.862 815.224 610.377 772.991C619.647 727.013 624.014 715.83 653.025 663.807C673.201 627.626 680.78 615.904 702.689 586.991C721.058 562.75 724.394 559.358 724.394 564.921ZM213.194 564.191C213.854 564.851 214.394 567.101 214.394 569.191C214.394 576.638 208.283 579.006 202.644 573.743C197.788 569.21 201.544 563.315 209.444 563.07C210.847 563.027 212.534 563.531 213.194 564.191ZM275.205 565.684C275.646 568.772 271.773 570.799 269.594 568.62C268.172 567.198 268.2 566.862 269.899 564.985C272.205 562.437 274.789 562.777 275.205 565.684ZM776.783 579.741C782 590.093 792.572 607.534 809.061 632.991C830.247 665.702 844.306 689.818 858.903 718.491C869.511 739.327 871.433 745.716 872.139 762.496C872.684 775.426 872.265 777.367 863.826 800.991C861.218 808.29 861.176 808.759 862.276 818.491C865.295 845.218 862.346 860.391 851.463 874.121C847.205 879.493 839.514 886.36 835.337 888.521C832.517 889.979 832.314 889.913 828.265 886.256C824.978 883.287 822.136 878.472 814.827 863.491C793.952 820.705 783.589 791.298 776.945 755.991C771.536 727.246 771.281 723.338 770.352 654.991C769.87 619.516 769.174 587.265 768.806 583.321C767.421 568.481 770.429 567.131 776.783 579.741ZM762.734 602.153C763.097 615.442 763.394 645.605 763.394 669.181C763.394 716.88 764.382 731.141 769.428 756.256C771.059 764.377 772.382 772.252 772.368 773.756C772.337 777.078 769.116 782.129 754.998 800.991C738.388 823.181 688.32 899.18 667.134 934.359C654.886 954.698 641.639 980.652 635.422 996.491C627.82 1015.86 628.504 1014.54 626.93 1012.9C623.592 1009.44 618.38 985.286 618.424 973.491C618.467 962.152 623.982 922.272 625.924 919.264C626.909 917.739 633.872 908.616 641.397 898.991C666.428 866.976 681.229 845.567 701.893 811.491C724.142 774.801 730.794 756.722 743.474 698.491C753.246 653.612 753.858 649.242 756.876 602.677C757.69 590.129 758.616 579.442 758.934 578.927C759.252 578.412 760.089 577.991 760.793 577.991C761.781 577.991 762.225 583.521 762.734 602.153ZM806.977 601.241C842.698 637.505 854.745 651.752 890.477 699.991C902.967 716.853 938.999 767.827 962.578 801.991C974.006 818.55 1001.52 866.336 1014.38 891.955C1023.14 909.415 1028.66 928.584 1030.02 946.26C1032.34 976.527 1016.7 1014.21 990.894 1040.51C979.085 1052.54 961.848 1064.99 956.999 1064.99C955.73 1064.99 955.606 1062.23 956.109 1045.19C956.702 1025.05 956.405 1020.79 952.328 990.991C948.35 961.925 945.772 951.18 930.856 901.491C920.717 867.718 915.509 854.012 882.769 774.929C881.382 771.578 879.867 764.525 878.959 757.191C878.13 750.494 876.285 741.522 874.859 737.253C868.46 718.092 836.547 662.51 804.374 614.491C793.443 598.176 786.894 587.793 783.975 582.148C780.401 575.236 785.672 579.612 806.977 601.241ZM753.39 588.8C753.383 597.859 748.614 643.471 746.469 654.991C740.561 686.728 728.201 736.903 721.831 755.007C713.991 777.29 700.628 801.638 674.916 840.491C655.748 869.456 627.152 907.41 625.03 906.703C624.409 906.496 623.649 904.773 623.34 902.875C623.032 900.976 622.477 898.935 622.109 898.338C621.169 896.818 625.957 874.329 629.062 865.679C630.481 861.725 635.177 850.041 639.497 839.714C643.818 829.387 648.774 816.337 650.512 810.714C653.473 801.135 660.871 782.823 672.621 755.991C675.39 749.666 683.957 731.891 691.657 716.491C699.357 701.091 708.551 681.974 712.088 674.01C718.989 658.469 737.969 611.625 743.943 595.389C747.396 586.003 750.513 581.328 752.498 582.555C752.991 582.86 753.392 585.67 753.39 588.8ZM460.894 592.42C444.799 595.235 435.287 597.838 422.12 603.031C399.942 611.776 382.404 622.21 377.222 629.741C373.193 635.596 372.198 642.996 375.014 646.157C379.374 651.051 389.636 652.381 400.73 649.492C416.926 645.273 471.11 615.059 478.739 605.993C483.619 600.193 481.889 589.862 476.073 590.068C474.874 590.111 468.044 591.169 460.894 592.42ZM475.224 596.32C476.015 600.488 474.238 602.962 466.642 608.273C452.917 617.867 418.441 636.538 404.676 641.831C394.287 645.826 383.699 646.296 380.317 642.914C379.174 641.771 378.499 640.159 378.817 639.332C379.134 638.504 379.394 637.416 379.394 636.912C379.394 635.133 386.898 627.723 392.669 623.804C407.391 613.807 436.536 601.93 459.621 596.521C471.451 593.749 474.728 593.706 475.224 596.32ZM494.126 627.241C493.86 627.929 491.273 633.968 488.375 640.663L483.106 652.835L468.964 667.163C453.28 683.052 448.714 690.058 445.865 702.604C445.005 706.392 444.066 710.281 443.778 711.246C441.781 717.957 418.564 735.199 382.556 756.714C338.993 782.742 310.554 805.47 287.894 832.366C283.494 837.588 279.362 841.891 278.712 841.926C277.143 842.012 275.878 840.11 260.918 815.179C249.92 796.85 248.271 793.557 249.137 791.656C250.622 788.397 261.355 774.427 267.957 767.16C272.983 761.628 297.538 740.765 318.894 723.883C329.552 715.458 338.148 709.912 372.92 689.032C397.852 674.06 413.704 665.461 444.894 649.992C466.894 639.08 486.244 629.249 487.894 628.145C491.311 625.858 494.858 625.344 494.126 627.241ZM1199.03 636.615C1231.42 654.697 1279.2 690.142 1311.8 720.28C1336.31 742.929 1381.53 800.281 1403.43 836.491C1410.95 848.936 1429.39 883.886 1429.39 885.707C1429.39 887.692 1419.71 890.889 1407.34 892.989C1400.5 894.151 1388.14 896.402 1379.89 897.991C1371.64 899.58 1359.2 901.823 1352.25 902.974C1345.29 904.125 1334.15 906.559 1327.5 908.383C1318.9 910.739 1315.14 911.379 1314.52 910.595C1314.04 909.988 1311.57 904.541 1309.03 898.491C1303.49 885.29 1294.22 868.129 1280.94 846.491C1250.69 797.166 1225.63 764.006 1193.1 730.234C1184.73 721.554 1172.34 708.611 1165.56 701.472C1153.85 689.156 1146.03 681.766 1138.34 675.747C1135.28 673.349 1135.08 672.927 1136.53 671.777C1155.66 656.599 1169.63 644.95 1176.69 638.287C1181.54 633.724 1185.87 629.991 1186.33 629.991C1186.79 629.991 1192.5 632.972 1199.03 636.615ZM1016.24 665.361C1052.74 696.648 1059.27 702.689 1091.05 734.62C1126.7 770.443 1129.32 773.389 1158.43 810.491C1192.54 853.95 1202.17 867.956 1215.34 893.244C1225.48 912.7 1237.41 940.367 1238.07 945.928C1238.73 951.458 1240.47 949.756 1220.89 962.722C1206.43 972.302 1192.09 979.538 1179.62 983.546C1169.95 986.656 1168.95 986.288 1167.93 979.209C1166.87 971.959 1158.97 942.998 1154.08 928.491C1142.87 895.23 1123.89 852.589 1106.75 822.19C1077.88 770.949 1051.61 731.865 1026.32 702.491C1011.48 685.259 980.886 651.763 971.994 643.016C967.814 638.905 964.394 635.227 964.394 634.842C964.394 634.458 971.86 637.569 980.986 641.756L997.577 649.37L1016.24 665.361ZM312.394 636.801C302.23 640.925 289.884 650.166 285.008 657.3C279.078 665.975 279.214 674.301 285.424 682.874C289.684 688.754 292.321 689.568 300.712 687.591C311.282 685.101 318.193 681.367 324.894 674.526C332.73 666.526 338.935 654.714 338.078 649.432C336.262 638.243 323.866 632.146 312.394 636.801ZM324.02 641.618C328.501 643.744 331.394 647.525 331.394 651.254C331.394 657.183 321.039 671.665 313.311 676.543C308.308 679.702 296.948 683.302 294.468 682.515C291.472 681.564 287.558 676.38 286.804 672.365C285.652 666.22 287.899 661.383 295.295 654.089C302.217 647.262 313.943 640.073 318.243 640.02C319.535 640.004 322.134 640.723 324.02 641.618ZM1035.76 663.052C1054.63 668.973 1063.33 671.077 1080.39 673.853C1099.46 676.955 1106.26 677.355 1117.18 676.017C1125.78 674.964 1127.51 675.006 1130.01 676.327C1135.4 679.178 1188.72 735.075 1212.21 762.491C1233.76 787.639 1256.02 819.337 1278.96 857.51C1291.63 878.601 1308.93 912.318 1307.92 913.956C1307.66 914.362 1305.31 915.504 1302.68 916.493C1294.52 919.56 1262.34 935.913 1253.29 941.592C1248.55 944.561 1244.17 946.991 1243.55 946.991C1242.39 946.991 1242.21 946.396 1240.35 936.491C1239.73 933.191 1235.82 922.841 1231.67 913.491C1210.87 866.627 1203.41 855.149 1150.5 788.491C1135.43 769.513 1128.49 761.945 1099.96 733.402C1078.97 712.396 1059.06 693.589 1045.44 681.902C1018.8 659.043 1017.69 658.056 1018.76 658.02C1019.24 658.004 1026.89 660.269 1035.76 663.052ZM433.394 667.403C421.282 672.53 384.207 691.011 374.939 696.541C358.322 706.458 350.224 715.66 348.768 726.279C348.279 729.848 348.668 731.909 350.644 736.226C353.693 742.886 357.955 746.146 364.424 746.768C371.978 747.494 379.669 743.485 402.394 726.976C408.169 722.781 416.243 717.398 420.336 715.014C429.005 709.964 435.727 704.079 437.238 700.216C443.027 685.422 445.394 678.75 445.394 677.224C445.394 676.228 444.494 673.649 443.394 671.491C442.294 669.333 441.394 666.988 441.394 666.28C441.394 664.484 439.743 664.716 433.394 667.403ZM1317.69 667.951C1307.81 673.973 1309.73 688.992 1322.14 702.766C1328.32 709.628 1332.03 711.976 1336.68 711.984C1346.04 712.001 1356.39 701.725 1356.39 692.413C1356.39 688.333 1350.65 678.502 1345.38 673.579C1337.73 666.419 1324.59 663.747 1317.69 667.951ZM437.194 673.191C439.192 675.189 438.583 678.658 434.321 689.559C429.749 701.252 428.105 703.02 414.394 710.979C410.269 713.374 403.519 717.876 399.394 720.985C382.219 733.926 371.584 739.991 366.062 739.991C358.846 739.991 354.135 732.38 356.323 724.256C357.857 718.558 365.652 710.301 375.399 704.048C383.863 698.619 433.178 672.104 434.944 672.033C435.522 672.01 436.534 672.531 437.194 673.191ZM1333.89 673.442C1339.67 674.638 1341.38 675.469 1343.68 678.192C1347.38 682.591 1350.39 688.972 1350.39 692.439C1350.39 698.531 1342.91 705.991 1336.8 705.991C1334.6 705.991 1332.59 704.56 1328 699.743C1317.87 689.101 1314.78 678.398 1320.47 673.741C1323.08 671.615 1324.88 671.574 1333.89 673.442ZM256.813 684.802C251.395 688.727 249.094 692.542 248.985 697.78C248.907 701.514 249.372 702.581 252.16 705.072C254.762 707.398 256.357 707.991 260.01 707.991C263.89 707.991 265.116 707.469 267.994 704.591C270.958 701.627 271.394 700.547 271.394 696.169C271.394 692.031 270.814 690.384 268.099 686.819C266.287 684.438 263.906 682.359 262.808 682.199C261.709 682.038 259.012 683.21 256.813 684.802ZM1222.71 685.317C1213.81 688.598 1204.37 698.982 1204.42 705.437C1204.45 709.949 1207.25 715.414 1217.67 731.25C1231.16 751.756 1242.67 761.909 1252.48 761.969C1261.26 762.023 1277.97 749.653 1282.99 739.381C1288.05 729.041 1285.02 719.479 1273.15 708.382C1265.72 701.432 1255.23 694.295 1243.6 688.28C1234.71 683.681 1229.25 682.906 1222.71 685.317ZM263.966 690.071C266.557 692.934 266.503 699.435 263.871 701.46C258.646 705.481 252.099 700.528 254.453 694.335C256.845 688.045 260.607 686.359 263.966 690.071ZM1246.68 694.109C1256.55 699.232 1274.26 714.89 1277.65 721.491C1280.11 726.297 1280.2 732.521 1277.88 737.014C1273.84 744.832 1258.67 755.991 1252.09 755.991C1245.5 755.991 1232.28 742.905 1221.77 725.969C1208.99 705.396 1208.92 704.997 1216.79 697.377C1223.42 690.954 1227.65 689.802 1237.68 691.686C1241.41 692.387 1245.46 693.478 1246.68 694.109ZM1027.59 713.91C1048.54 739.436 1066.25 766.154 1092.92 812.466C1113.99 849.057 1132.48 888.533 1145.97 925.755C1151.74 941.664 1164.46 985.294 1163.57 986.1C1162.25 987.29 1137.04 990.207 1128.68 990.138C1115.04 990.025 1097.92 984.93 1082.83 976.494C1074.97 972.099 1062.69 962.516 1061.96 960.205C1061.65 959.229 1061.22 944.494 1061 927.461C1060.24 869.493 1057.8 830.169 1053.31 803.491C1050.64 787.644 1045.3 765.667 1041.4 754.491C1037.1 742.144 1025.83 719.542 1017.97 707.491C1014.38 701.991 1011.43 696.833 1011.42 696.029C1011.39 694.375 1013.14 696.313 1027.59 713.91ZM570.394 698.529C570.394 700.455 559.665 770.125 556.847 786.491C542.911 867.454 540.405 880.613 533.416 909.491C527.104 935.574 514.811 968.844 510.219 972.273C507.07 974.623 495.713 977.429 482.731 979.063C472.121 980.398 460.172 979.87 447.874 977.522C437.502 975.541 413.658 969.109 410.194 967.357L407.494 965.992L416.694 952.234C427.941 935.415 434.517 923.262 450.912 888.991C480.999 826.102 496.061 790.052 511.284 744.491C514.408 735.141 517.314 726.926 517.741 726.235C518.169 725.544 527.379 720.503 538.207 715.032C549.035 709.56 560.144 703.513 562.894 701.593C567.496 698.379 570.394 697.195 570.394 698.529ZM1118.89 707.913C1111.62 710.976 1111.02 718.586 1117.07 731.127C1119.29 735.727 1123.17 742.212 1125.68 745.538C1131.82 753.644 1146.67 767.792 1150.91 769.564C1158.27 772.637 1170.31 770.257 1174.88 764.825C1178.15 760.933 1178.32 753.731 1175.26 747.701C1172.31 741.875 1164.45 732.161 1157.62 725.898C1143.53 712.974 1126.1 704.881 1118.89 707.913ZM1133.21 716.15C1144.38 720.742 1150.64 725.249 1158.58 734.388C1167.8 745.016 1171.37 751.265 1171.38 756.797C1171.39 760.911 1171.2 761.186 1167.14 762.946C1158.83 766.55 1157.33 766.466 1150.69 762.03C1145.08 758.286 1136.14 749.108 1128.74 739.491C1125.01 734.648 1121.07 726.996 1119.35 721.244C1118.22 717.459 1118.28 716.779 1119.89 714.994C1122.34 712.29 1124.23 712.454 1133.21 716.15ZM1391.39 718.737C1387.1 720.209 1382.25 727.966 1382.09 733.61C1381.98 737.68 1386.7 744.775 1395.82 754.241C1401.94 760.587 1402.59 760.991 1406.77 760.991C1413.35 760.991 1423.18 755.644 1426.11 750.471C1430.15 743.329 1428.44 734.665 1421.39 726.637C1415.64 720.087 1411.13 718.185 1401.39 718.205C1396.72 718.215 1392.22 718.454 1391.39 718.737ZM445.377 730.993C446.015 734.567 447.391 738.955 448.433 740.743C449.476 742.532 450.09 744.62 449.797 745.383C449.504 746.146 445.808 749.857 441.584 753.63C414.137 778.145 378.685 815.897 353.422 847.512C344.979 858.079 327.607 883.912 320.823 895.991C318.197 900.666 315.299 905.754 314.384 907.299L312.719 910.106L307.261 905.66C300.809 900.404 294.139 891.868 290.855 884.664C288.295 879.049 281.394 854.806 281.394 851.431C281.394 847.145 314.735 812.737 332.703 798.48C344.363 789.228 360.653 778.059 378.209 767.28C401.924 752.72 421.299 739.636 432.394 730.69C439.008 725.357 443.139 722.644 443.555 723.36C443.919 723.984 444.738 727.42 445.377 730.993ZM1415.17 727.301C1416.41 728.445 1418.6 731.764 1420.03 734.677C1423.14 741.045 1422.73 745.337 1418.62 749.277C1415.04 752.699 1407.83 755.297 1405.45 754.02C1404.48 753.5 1400.47 749.288 1396.54 744.66C1388.74 735.482 1387.74 732.257 1391.3 727.852C1392.92 725.85 1394.4 725.404 1401.05 724.92C1410.35 724.244 1412.16 724.549 1415.17 727.301ZM511.394 729.978C511.394 733.102 484.784 799.472 472.097 827.991C444.79 889.376 406.15 963.991 401.667 963.991C398.908 963.991 382.091 956.884 371.402 951.201C353.974 941.935 318.394 917.096 318.394 914.196C318.394 912.904 330.336 891.895 336.131 882.991C354.725 854.422 383.957 820.037 428.547 774.285C442.909 759.549 455.282 747.127 456.042 746.683C456.802 746.239 460.221 745.425 463.64 744.874C467.059 744.323 478.415 740.552 488.875 736.493C507.83 729.137 511.394 728.106 511.394 729.978ZM536.841 745.399C535.162 746.13 530.38 750.05 526.214 754.11L518.64 761.491L514.017 775.679C505.801 800.892 508.274 806.491 527.625 806.491C536.02 806.491 536.473 806.374 539.398 803.448C543.081 799.766 549.862 784.431 552.621 773.544C555.685 761.461 554.183 751.78 548.341 745.938C546.077 743.674 541.314 743.451 536.841 745.399ZM544.597 751.741C546.627 754.088 548.394 759.561 548.394 763.501C548.394 765.267 546.845 771.388 544.951 777.102C537.766 798.786 535.702 801.44 526.228 801.179C522.515 801.077 519.097 800.371 517.617 799.401C515.417 797.96 515.21 797.261 515.616 792.642C515.866 789.809 517.724 782.233 519.746 775.806C523.037 765.347 523.97 763.522 528.643 758.409C535.813 750.564 541.517 748.18 544.597 751.741ZM403.394 756.808C391.347 763.985 384.394 770.49 384.394 774.585C384.394 778.389 386.523 781.388 390.35 782.973C396.762 785.629 406.884 780.801 415.878 770.797C423.156 762.703 424.01 759.065 419.805 754.068C418.305 752.285 416.307 751.024 415.055 751.069C413.866 751.113 408.619 753.695 403.394 756.808ZM459.359 754.166C447.946 759.87 429.758 779.213 427.329 788.231C424.499 798.74 436.854 812.903 448.909 812.969C453.283 812.993 459.371 810.217 463.548 806.294C467.289 802.78 480.83 782.464 483.899 775.761C485.356 772.579 486.558 767.988 486.68 765.14C486.864 760.815 486.495 759.707 484.001 757.103C477.309 750.117 469.359 749.17 459.359 754.166ZM473.079 757.058C477.429 758.706 480.394 762.002 480.394 765.19C480.394 768.786 475.327 778.868 467.669 790.508C461.897 799.282 457.238 804.194 452.748 806.24C445.67 809.464 433.385 799.973 433.398 791.291C433.409 784.28 451.925 763.805 463.894 757.567C467.437 755.72 469.279 755.618 473.079 757.058ZM415.784 758.813C416.546 760.046 413.683 765.064 410.083 768.806C402.273 776.924 392.793 780.473 390.477 776.146C389.016 773.416 391.195 770.928 401.107 764.012C409.22 758.352 414.371 756.527 415.784 758.813ZM317.116 763.126C313.133 766.097 311.088 770.544 311.845 774.584C313.652 784.212 328.045 782.701 329.923 772.687C331.636 763.559 324.089 757.925 317.116 763.126ZM907.317 767.914C904.753 770.478 904.395 771.552 904.401 776.664C904.413 786.686 909.613 805.22 920.624 834.491C930.214 859.982 934.419 866.839 944.34 873.159C951.472 877.702 956.548 876.596 960.492 869.638C962.418 866.24 962.825 864.135 962.746 857.984C962.491 838.108 940.793 793.122 920.906 771.241C914.331 764.006 911.836 763.395 907.317 767.914ZM323.965 768.419C325.241 773.502 321.243 777.77 317.846 774.951C315.966 773.391 316.003 770.994 317.951 768.214C320.047 765.221 323.19 765.328 323.965 768.419ZM280.246 770.741C274.825 776.462 273.394 779.083 273.394 783.29C273.394 786.217 274.097 787.848 276.317 790.068C279.76 793.511 283.072 793.774 289.011 791.077C294.144 788.747 296.394 785.624 296.394 780.834C296.394 776.086 295.255 773.177 292.053 769.741C288.349 765.767 284.664 766.08 280.246 770.741ZM922.104 778.728C939.24 802.43 955.846 839.14 957.054 855.991C957.627 863.987 955.409 869.315 951.308 869.792C947.429 870.242 939.479 862.604 935.159 854.276C928.199 840.857 912.371 793.848 909.963 779.444C909.416 776.169 909.692 774.882 911.411 772.697C914.215 769.132 915.822 770.038 922.104 778.728ZM1332.89 770.934C1329.58 772.323 1326.35 776.494 1325.76 780.149C1325.01 784.723 1328.5 792.107 1333.25 796.02C1338.59 800.423 1344.11 800.216 1348.29 795.456C1355.63 787.095 1349.63 772.783 1337.89 770.642C1336.24 770.342 1333.99 770.473 1332.89 770.934ZM288.837 775.214C291.091 778.431 290.753 781.722 287.875 784.601C283.457 789.019 277.304 786.468 278.725 780.808C279.629 777.208 283.235 772.991 285.41 772.991C286.439 772.991 287.981 773.991 288.837 775.214ZM1340.85 777.406C1346.29 779.681 1348.18 786 1344.84 790.768C1341.78 795.139 1336.82 792.823 1332.98 785.232C1331.18 781.677 1331.91 778.957 1335.16 777.064C1337.36 775.783 1336.89 775.755 1340.85 777.406ZM880.882 782.741C881.268 783.704 883.327 789.508 885.458 795.641C887.589 801.773 893.907 818.198 899.498 832.141C910.06 858.479 918.706 883.962 929.811 921.491C937.636 947.933 940.466 959.67 943.794 979.491C950.002 1016.47 951.712 1040.86 949.364 1058.95C948.146 1068.34 947.72 1069.65 945.606 1070.49C942.4 1071.77 893.987 1085.99 892.84 1085.99C892.016 1085.99 891.701 1079.51 891.709 1062.74C891.728 1024.28 888.399 1005.25 870.941 944.018C863.499 917.915 858.889 897.962 857.715 886.77C857.146 881.345 857.381 880.517 862.252 870.77C869.97 855.327 870.813 850.898 869.919 830.491C869.51 821.141 869.212 812.178 869.257 810.574C869.325 808.175 876.634 784.311 878.088 781.741C878.821 780.445 880.152 780.922 880.882 782.741ZM775.937 784.741C776.751 788.591 786.398 816.54 790.937 828.198L794.717 837.906L786.643 855.698C768.546 895.579 752.253 940.618 734.445 999.991C720.341 1047.01 717.081 1060.11 715.034 1077.98C714.071 1086.39 713.5 1088.54 712.162 1088.8C707.733 1089.65 670.631 1068.45 660.082 1059.04C646.65 1047.06 632.928 1029 633.112 1023.55C633.244 1019.63 643.79 992.067 650.256 978.745C659.202 960.309 680.319 924.639 701.911 891.491C706.926 883.791 714.308 872.316 718.314 865.991C731.078 845.84 773.866 782.027 774.625 782.008C775.027 781.999 775.617 783.228 775.937 784.741ZM1434.25 784.396C1428.9 788.104 1426.24 793.04 1425.65 800.367C1425.04 807.996 1426.69 811.742 1432.51 815.962C1439.94 821.345 1450.24 820.895 1455.94 814.939C1458.62 812.145 1458.89 811.225 1458.87 805.173C1458.85 799.736 1458.32 797.526 1456 793.314C1451.84 785.747 1448.79 783.228 1442.89 782.492C1438.59 781.955 1437.39 782.218 1434.25 784.396ZM1448.7 789.778C1452.84 794.349 1454.82 805.454 1452.33 810.105C1450.66 813.234 1446.69 814.263 1441.3 812.968C1435.27 811.523 1432.28 808.344 1431.74 802.803C1431.24 797.732 1434.41 791.3 1438.41 789.275C1441.99 787.467 1446.82 787.703 1448.7 789.778ZM362.635 793.986C352.655 800.071 353.959 811.991 364.605 811.991C370.122 811.991 375.394 806.877 375.394 801.525C375.394 792.793 369.908 789.551 362.635 793.986ZM368.754 799.2C370.238 801.553 366.943 806.21 364.081 805.802C361.09 805.377 360.717 801.668 363.395 798.99C365.707 796.678 367.2 796.736 368.754 799.2ZM404.636 810.025C403.394 810.524 401.887 812.01 401.287 813.326C400.687 814.643 397.48 818.111 394.161 821.033C379.328 834.089 378.284 846.303 391.428 853.008C400.628 857.702 410.413 856.025 417.979 848.459C424.268 842.17 425.903 834.324 422.963 824.553C420.883 817.643 416.886 812.405 412.29 810.566C407.844 808.787 407.736 808.779 404.636 810.025ZM1313.47 812.626C1307.55 820.15 1315.7 833.908 1323.87 830.185C1329.63 827.56 1329.65 819.05 1323.91 813.312C1319.82 809.217 1316.33 808.988 1313.47 812.626ZM412.455 818.218C421.514 828.137 419.476 842.223 408.171 847.834C402.787 850.505 397.954 850.226 392.535 846.931C385.895 842.893 386.347 836.922 393.995 827.632C398.368 822.32 406.844 814.991 408.614 814.991C409.105 814.991 410.833 816.443 412.455 818.218ZM1363.9 819.288C1360.52 822.663 1358.4 828.16 1358.41 833.491C1358.42 838.477 1362 854.206 1364.38 859.732C1366.86 865.51 1374.69 873.525 1378.87 874.574C1385.89 876.338 1395.29 872.589 1399.78 866.226C1405.84 857.646 1402.19 844.567 1388.64 826.375C1382.09 817.572 1379.5 815.991 1371.64 815.991C1367.94 815.991 1366.64 816.546 1363.9 819.288ZM1322.59 819.518C1323.43 821.364 1323.44 822.343 1322.63 823.151C1320.32 825.467 1316.48 821.805 1317.76 818.491C1318.65 816.157 1321.31 816.724 1322.59 819.518ZM1132.55 821.47C1128.85 825.679 1127.72 830.806 1129.32 836.135C1132.75 847.581 1152.24 846.034 1152.36 834.306C1152.41 829.772 1151.01 826.679 1146.82 822.043C1143.77 818.667 1142.53 817.991 1139.38 817.991C1136.32 817.991 1135.02 818.65 1132.55 821.47ZM316.394 824.066C310.278 826.827 303.586 833.563 302.332 838.223C299.829 847.518 306.285 856.158 315.734 856.158C321.147 856.158 325.11 854.218 329.191 849.569C332.867 845.383 334.381 840.52 334.388 832.876C334.396 824.98 331.963 821.983 325.571 822.013C322.999 822.025 318.869 822.949 316.394 824.066ZM1381.39 824.879C1384.57 827.148 1394.94 845.987 1396.44 852.217C1397.94 858.434 1395.66 863.484 1389.89 866.716C1383.81 870.127 1380.84 869.707 1375.91 864.741C1370.97 859.763 1368.04 852.657 1365.91 840.452C1364.19 830.547 1365.23 825.413 1369.39 823.249C1372.43 821.67 1377.95 822.419 1381.39 824.879ZM1144.35 825.751C1147.03 827.927 1148.26 835.025 1146.24 836.702C1141.46 840.667 1134.39 837.647 1134.39 831.641C1134.39 825.004 1139.61 821.917 1144.35 825.751ZM326.823 828.562C331.394 833.134 325.057 848.604 317.875 850.407C314.927 851.146 309.916 848.834 308.424 846.046C305.972 841.465 307.142 837.848 312.873 832.298C317.338 827.973 318.99 826.991 321.801 826.991C323.699 826.991 325.958 827.698 326.823 828.562ZM750.894 834.344C741.463 838.745 735.092 848.594 728.22 869.397C724.131 881.775 724.571 884.207 732.117 890.932C735.225 893.702 739.69 896.702 742.039 897.599C746.089 899.146 746.507 899.13 750.102 897.283C754.523 895.012 758.225 889.351 764.574 875.152C768.807 865.686 768.891 865.286 768.752 855.334C768.595 844.06 767.44 839.388 763.719 834.966C760.648 831.316 757.689 831.173 750.894 834.344ZM1230.81 833.818C1219.93 840.663 1223.41 865.002 1237.48 880.392C1246.72 890.51 1256.55 892.804 1264.54 886.71C1278.62 875.972 1278.18 864.72 1263 846.991C1254.82 837.436 1247.35 832.742 1239.52 832.241C1235.23 831.966 1233.16 832.341 1230.81 833.818ZM760.765 841.02C766.431 847.753 765.771 859.251 758.875 873.991C750.028 892.898 748.037 894.73 740.888 890.54C736.147 887.762 731.394 882.655 731.394 880.341C731.394 877.77 736.124 864.61 740.191 855.863C744.316 846.992 747.645 842.971 753.375 839.941C757.953 837.519 757.801 837.497 760.765 841.02ZM1248.72 840.838C1253.87 843.175 1255.85 844.827 1259.8 850.073C1267.02 859.681 1269.72 865.553 1269.08 870.288C1268.08 877.727 1258.8 886.063 1253.11 884.634C1248.97 883.595 1237.81 872.539 1234.9 866.593C1231.8 860.248 1229.87 850.593 1230.76 845.841C1232.3 837.631 1238.09 836.018 1248.72 840.838ZM1324.25 840.149C1317.52 844.052 1314.46 853.384 1317.8 859.791C1318.58 861.276 1320.61 863.82 1322.32 865.445C1324.94 867.934 1326.41 868.459 1331.66 868.781C1337.73 869.152 1337.99 869.064 1341.39 865.52C1344.42 862.37 1344.88 861.238 1344.83 857.153C1344.75 851.8 1340.55 843.044 1336.55 839.899C1333.4 837.418 1328.8 837.511 1324.25 840.149ZM1335.17 845.255C1337.67 847.912 1340.39 854.045 1340.39 857.004C1340.39 860.096 1336 863.991 1332.52 863.991C1329.1 863.991 1323.69 859.891 1322.31 856.26C1320.87 852.482 1322.31 849.063 1326.67 845.903C1331.51 842.398 1332.42 842.328 1335.17 845.255ZM806.404 861.513C814.44 878.2 819.724 887.415 823.879 891.991C826.048 894.38 826.188 895.558 827.022 918.491C828.268 952.784 827.989 1019.73 826.523 1037.99C824.928 1057.86 822.046 1077.95 818.387 1094.69C814.649 1111.79 814.535 1111.99 808.579 1111.99C796.309 1111.99 759.617 1106.02 743.894 1101.46C733.351 1098.41 720.416 1093.39 718.671 1091.67C717.708 1090.73 718.916 1084.37 724.337 1061.87C731.805 1030.86 733.12 1026.09 740.401 1003.49C743.059 995.241 748.619 977.417 752.758 963.883C761.77 934.409 770.671 909.239 784.404 874.392C795.667 845.814 796.033 844.991 797.456 844.991C798.002 844.991 802.029 852.426 806.404 861.513ZM886.633 847.423C880.638 850.464 879.95 851.351 875.324 862.001C869.347 875.764 869.09 881.318 873.726 896.639C875.699 903.158 877.807 911.641 878.411 915.491C880.382 928.052 885.516 946.628 888.424 951.721C892.117 958.186 896.452 960.372 904.438 959.794C915.851 958.969 922.449 951.203 923.233 937.673C923.963 925.065 920.369 912.479 905.191 874.491C895.326 849.802 893.043 844.861 891.621 845.127C891.221 845.201 888.977 846.235 886.633 847.423ZM895.159 862.788C915.266 919.648 916.406 923.497 916.372 934.401C916.334 946.767 911.745 952.991 902.666 952.991C897.388 952.991 894.878 950.899 892.487 944.511C889.921 937.651 885.949 921.791 884.369 912.097C883.707 908.03 881.814 900.605 880.163 895.597C875.867 882.566 876.045 877.882 881.314 865.353C885.425 855.578 887.944 852.537 890.988 853.676C891.589 853.901 893.466 858.001 895.159 862.788ZM1172.16 857.957C1168.44 860.885 1167.03 865.194 1167.69 871.616C1169.23 886.451 1179.31 894.444 1190.07 889.342C1194.52 887.23 1196.67 883.909 1196.67 879.147C1196.67 873.887 1193.95 868.711 1187.61 861.855C1182.84 856.707 1181.72 855.991 1178.42 855.991C1176.2 855.991 1173.64 856.795 1172.16 857.957ZM368.894 864.033C359.469 869.129 354.87 876.656 355.624 885.752C356.042 890.794 356.504 891.753 359.993 894.816C365.981 900.073 372.94 902.97 379.611 902.981C384.861 902.99 385.625 902.693 388.975 899.343C393.59 894.729 397.372 886.683 397.384 881.453C397.397 876.168 393.846 869.364 389.107 865.594C383.954 861.494 374.886 860.794 368.894 864.033ZM1183.28 863.621C1187.12 866.313 1191.39 873.952 1191.39 878.13C1191.39 882.677 1188.67 884.991 1183.33 884.991C1179.23 884.991 1177.25 883.277 1174.93 877.737C1170.53 867.205 1175.76 858.358 1183.28 863.621ZM419.5 867.885C410.879 876.506 413.811 889.991 424.306 889.991C433.832 889.991 437.141 879.531 431.175 868.284C428.137 862.557 424.938 862.447 419.5 867.885ZM385.107 870.538C388.274 872.614 390.634 877.664 390.571 882.231C390.514 886.386 385.595 895.316 382.765 896.402C378.319 898.108 370.664 895.639 364.644 890.557C361.958 888.29 361.394 887.106 361.394 883.74C361.394 877.162 366.808 869.556 373.394 866.882C375.057 866.207 381.625 868.257 385.107 870.538ZM497.805 871.882C489.603 876.884 487.923 884.72 493.794 890.591C496.542 893.339 497.971 893.991 501.247 893.991C506.515 893.991 509.668 892.49 511.729 889.001C515.133 883.239 512.894 874.501 507.204 871.344C503.969 869.549 501.389 869.696 497.805 871.882ZM426.266 872.336C429.42 876.137 428.27 883.991 424.559 883.991C421.87 883.991 420.394 881.948 420.394 878.225C420.394 872.21 423.541 869.053 426.266 872.336ZM504.171 877.548C506.62 879.263 507.183 883.802 505.194 885.791C504.534 886.451 502.824 886.991 501.394 886.991C498.128 886.991 496.394 885.302 496.394 882.12C496.394 879.508 498.937 875.991 500.826 875.991C501.444 875.991 502.949 876.692 504.171 877.548ZM1080.39 877.697C1076.95 878.955 1074.39 882.382 1074.39 885.731C1074.39 890.171 1075.79 892.629 1079.37 894.481C1083.33 896.525 1086 896.38 1088.39 893.991C1091.97 890.419 1090.54 880.943 1085.95 877.756C1084.75 876.919 1082.58 876.896 1080.39 877.697ZM1085.75 885.235C1086.56 888.346 1084.09 890.814 1081.94 889.033C1080.35 887.71 1079.88 884.84 1081.06 883.658C1082.51 882.209 1085.19 883.111 1085.75 885.235ZM792.598 885.561C786.3 889.972 781.17 908.967 781.004 928.491C780.876 943.645 781.843 946.417 788.65 950.391C799.271 956.593 814.359 953.751 819.067 944.662C821.443 940.075 822.573 925.239 821.415 913.833C819.839 898.304 815.093 888.435 807.723 885.355C803.307 883.51 795.372 883.618 792.598 885.561ZM853.349 894.491C855.019 907.235 858.827 925.487 862.736 939.491C864.578 946.091 868.198 959.079 870.781 968.353C881.47 1006.73 884.419 1025.84 885.116 1061.25L885.643 1088.02L882.147 1091.25C877.06 1095.96 858.671 1106.77 850.734 1109.71C843.294 1112.47 825.229 1114.01 822.456 1112.12C821.226 1111.28 821.409 1109.53 823.717 1099.99C826.854 1087.03 830.874 1063.82 832.468 1049.49C833.079 1043.99 833.817 1019.31 834.107 994.651C834.538 957.972 834.322 945.688 832.919 927.151C830.69 897.7 830.616 898.3 836.894 895.059C839.644 893.639 844.102 890.788 846.801 888.724C849.499 886.66 851.811 885.088 851.938 885.231C852.065 885.374 852.7 889.541 853.349 894.491ZM807.093 891.941C811.03 893.728 811.435 894.307 813.561 901.169C815.482 907.37 815.819 910.634 815.763 922.491C815.667 942.496 813.706 946.007 801.8 947.493C792.422 948.663 786.389 942.596 786.4 932.007C786.414 918.693 791.586 895.799 795.452 891.933C797.893 889.492 801.704 889.495 807.093 891.941ZM463.531 900.36C455.148 903.394 447.425 913.946 447.404 922.396C447.396 925.656 448.053 926.928 451.387 930.099C455.83 934.326 460.122 935.574 466.977 934.635C475.756 933.431 480.884 927.27 480.826 917.995C480.782 911.019 479.168 906.284 475.444 902.207C472.232 898.691 469.371 898.247 463.531 900.36ZM981.812 900.96C978.808 902.175 974.654 907.462 973.317 911.772C971.222 918.523 970.976 935.035 972.872 941.611C974.95 948.819 979.225 956.502 983.357 960.458C986.018 963.006 987.197 963.415 991.688 963.35C997.174 963.271 1003.55 960.689 1006.61 957.311C1007.55 956.27 1009.29 953.215 1010.48 950.524C1013.47 943.767 1012.81 930.974 1008.85 919.145C1005.43 908.911 1003.01 905.186 997.864 902.273C993.725 899.928 985.937 899.291 981.812 900.96ZM469.544 906.071C474.627 908.791 475.985 919.947 471.834 924.88C467.116 930.487 457.048 929.714 454.229 923.528C451.895 918.405 459.949 904.991 465.36 904.991C466.551 904.991 468.434 905.477 469.544 906.071ZM1381.39 907.35C1381.39 908.647 1378.69 930.36 1375.39 955.6C1366.25 1025.43 1364.56 1043.32 1360.37 1114.49C1359.24 1133.74 1357.84 1153.54 1357.27 1158.49C1356.69 1163.44 1355.8 1179.42 1355.3 1193.99C1354.31 1222.55 1353.67 1231.01 1352.4 1232.34C1351.95 1232.81 1351.28 1229.21 1350.9 1224.34C1350.52 1219.47 1349.58 1208.74 1348.8 1200.49C1344.35 1153.3 1347.4 1070.69 1356.45 993.491C1359.83 964.636 1368.43 908.471 1369.61 907.483C1369.85 907.289 1378.15 905.502 1380.64 905.109C1381.06 905.044 1381.39 906.053 1381.39 907.35ZM998 908.468C1001.08 910.488 1002.71 913.868 1004.99 922.991C1007.54 933.184 1007.46 944.28 1004.81 949.496C1002.45 954.13 995.604 958.222 990.954 957.774C987.321 957.424 982.203 950.724 979.335 942.565C975.552 931.8 977.578 912.81 983.009 908.139C985.388 906.092 986.47 905.84 990.712 906.342C993.426 906.664 996.706 907.62 998 908.468ZM1363.92 910.241C1361.01 923.078 1354.84 967.788 1350.44 1007.99C1346.46 1044.31 1344.52 1071.37 1343.43 1105.83C1342.94 1121.42 1342.31 1134.41 1342.03 1134.69C1341.75 1134.97 1341.27 1133.69 1340.97 1131.84C1340.67 1130 1338.86 1118.82 1336.95 1106.99C1327.94 1051.25 1316.16 999.741 1300.82 948.991C1298.41 941.016 1296.32 932.919 1296.17 930.997L1295.89 927.504L1307.39 922.91C1320.99 917.477 1333.48 913.846 1349.9 910.552C1365.07 907.51 1364.54 907.522 1363.92 910.241ZM386.394 912.886C381.21 915.707 375.659 921.51 374.918 924.881C373.63 930.746 379.37 937.13 387.275 938.624C394.429 939.976 404.071 932.189 405.037 924.278C406.17 914.991 395.032 908.185 386.394 912.886ZM491.181 912.741C484.433 920.493 482.394 924.247 482.394 928.922C482.394 932.664 482.95 934.299 484.96 936.468C487.221 938.907 488.06 939.176 492.022 938.729C499.512 937.885 505.035 931.085 503.812 924.213C502.89 919.03 499.598 913.405 496.721 912.094C493.499 910.626 492.968 910.688 491.181 912.741ZM397.634 920.039C399.824 922.743 399.822 922.776 397.368 926.801C396.258 928.622 393.785 930.765 391.872 931.565C388.835 932.834 387.955 932.834 384.93 931.57C379.492 929.298 379.195 925.811 384.016 920.832C387.555 917.178 388.243 916.873 391.884 917.346C394.31 917.662 396.563 918.717 397.634 920.039ZM1174.39 919.61C1170.4 922.113 1168.1 925.949 1167.64 930.893C1167.07 937.047 1170.18 941.713 1176.63 944.387C1180.74 946.09 1181.83 946.176 1185.48 945.084C1191.52 943.273 1194.39 940.006 1194.39 934.941C1194.39 929.973 1192.04 926.339 1185.67 921.477C1180.66 917.651 1178.18 917.24 1174.39 919.61ZM495.994 923.25C497.123 926.509 497.044 927.166 495.253 929.444C489.878 936.277 486.16 928.944 491.062 921.179C492.973 918.152 494.443 918.769 495.994 923.25ZM1121.29 921.254C1116.9 924.177 1114.01 929.956 1114.9 934.011C1116.45 941.079 1123.81 945.772 1131.35 944.498C1142.41 942.63 1143.76 930.79 1133.91 922.139C1129.61 918.361 1126.01 918.109 1121.29 921.254ZM1130.56 925.241C1139.25 932.274 1134.86 942.349 1125.05 937.881C1119.93 935.548 1119.88 930.112 1124.95 926.129C1128.11 923.636 1128.5 923.576 1130.56 925.241ZM1183.46 924.991C1183.96 924.991 1185.55 926.779 1186.99 928.964C1190.2 933.809 1189.7 937.206 1185.54 938.932C1179.38 941.484 1172.13 935.435 1174.36 929.592C1175.46 926.687 1179.37 923.769 1181.22 924.477C1181.95 924.76 1182.96 924.991 1183.46 924.991ZM843.307 926.273C840.288 928.591 839.394 931.898 839.394 940.744C839.394 951.378 841.489 959.24 845.353 963.104C851.344 969.095 859.836 967.905 861.294 960.87C862.273 956.147 860.912 948.557 856.811 935.872L853.294 924.991L849.094 925.023C846.784 925.04 844.18 925.603 843.307 926.273ZM850.285 932.882C852.334 934.931 856.394 950.458 856.394 956.242C856.394 958.183 855.704 960.318 854.848 961.029C852.626 962.873 848.462 959.525 846.663 954.447C843.662 945.98 844.113 930.991 847.369 930.991C847.933 930.991 849.245 931.842 850.285 932.882ZM1292.73 942.241C1332.18 1068.15 1352.73 1220.16 1348.45 1354.49C1346.91 1403.1 1345.1 1425.82 1339.3 1469.49C1337.2 1485.33 1335.77 1493.02 1334.71 1494.2C1332.82 1496.28 1322.71 1499.69 1315.83 1500.56C1310.35 1501.25 1298.9 1498.92 1296.62 1496.64C1295.59 1495.61 1295.92 1491.71 1298.4 1476.11C1303.6 1443.35 1307.51 1405.79 1309.39 1370.49C1310.65 1347.05 1310.64 1287.65 1309.39 1263.49C1304.18 1163.06 1286.4 1066.97 1255.79 973.721C1252.22 962.848 1249.57 953.509 1249.91 952.968C1250.99 951.211 1286.44 931.072 1288.55 931.01C1288.91 931 1290.79 936.054 1292.73 942.241ZM695.664 953.426C693.887 954.225 691.526 956.366 690.417 958.184C685.319 966.547 690.902 975.991 700.944 975.991C703.786 975.991 705.373 975.212 708.116 972.469C711.465 969.12 711.615 968.675 711.178 963.404C710.833 959.237 710.107 957.249 708.253 955.395C705.192 952.334 699.925 951.511 695.664 953.426ZM705.69 961.086C707.169 963.449 705.778 967.495 703.061 968.733C697.456 971.287 692.62 964.063 697.587 960.555C700.34 958.61 704.304 958.87 705.69 961.086ZM803.388 971.925C796.576 973.997 790.195 979.359 787.006 985.691C784.403 990.86 784.894 999.645 788.144 1006.06C793.255 1016.14 806.598 1021.13 814.292 1015.83C820.703 1011.42 821.498 1008.5 821.046 991.048C820.65 975.753 820.621 975.583 817.964 973.298C815.16 970.886 808.78 970.285 803.388 971.925ZM814.256 977.885C815.108 978.424 815.956 982.069 816.521 987.619C818.143 1003.55 814.729 1012.01 806.689 1011.97C801.664 1011.95 795.547 1008.33 793.248 1004.01C791.034 999.846 790.814 992.001 792.805 988.191C796.897 980.358 808.99 974.548 814.256 977.885ZM1002.08 978.44C996.971 980.261 994.6 982.571 993.265 987.026C990.923 994.843 996.028 1001.99 1003.95 1001.99C1007.38 1001.99 1008.84 1001.39 1011.24 998.994C1015.77 994.463 1016.45 987.92 1013.23 979.741C1011.98 976.556 1008.5 976.15 1002.08 978.44ZM1010.2 988.188C1010.43 991.858 1010.05 993.335 1008.45 994.938C1003.77 999.612 997.79 995.957 998.276 988.726C998.432 986.388 1004.24 982.879 1007.39 983.22C1009.62 983.461 1009.93 984.012 1010.2 988.188ZM850.611 987.552C847.894 989.455 845.393 994.08 845.398 997.191C845.403 1000.39 848.905 1005.81 851.818 1007.14C856.314 1009.19 861.751 1006.4 863.004 1001.41C863.96 997.601 862.522 990.506 860.316 988.137C857.962 985.61 853.746 985.356 850.611 987.552ZM677.948 989.718C673.943 990.737 668.646 994.941 667.002 998.404C664.9 1002.83 665.664 1007.97 669.016 1011.95C672.099 1015.62 675.615 1016.45 679.726 1014.5C684.443 1012.26 686.463 1008.12 687.13 999.301C687.632 992.655 687.472 991.521 685.859 990.341C684.006 988.987 681.576 988.795 677.948 989.718ZM858.674 994.07C859.363 995.164 859.242 996.522 858.281 998.496C856.417 1002.32 854.857 1002.63 852.843 999.553C851.271 997.155 851.271 996.827 852.842 994.43C854.647 991.676 857.072 991.526 858.674 994.07ZM903.348 996.741C899.547 1000.14 898.274 1006.63 900.688 1010.32C904.704 1016.45 913.315 1015.82 916.083 1009.19C917.76 1005.18 917.034 998.462 914.63 995.741C912.245 993.042 906.964 993.51 903.348 996.741ZM702.124 997.597C695.996 999.481 689.019 1006.08 687.402 1011.53C684.275 1022.07 694.078 1033.97 705.894 1033.98C706.994 1033.98 709.387 1033.07 711.212 1031.96C718.9 1027.27 721.427 1011.84 716.017 1002.61C714.494 1000.01 712.127 997.46 710.756 996.939C707.755 995.798 708.049 995.775 702.124 997.597ZM682.394 998.523C682.394 1000.99 679.852 1006.37 677.934 1007.96C676.348 1009.27 675.967 1009.18 674.256 1007.07C672.027 1004.32 672.564 1001.33 675.75 998.763C678.45 996.588 682.394 996.445 682.394 998.523ZM912.923 1002.08C913.763 1004.73 912.622 1007.8 910.349 1009.01C908.87 1009.81 908.001 1009.6 906.491 1008.09C904.202 1005.8 904.686 1002.6 907.633 1000.54C910.017 998.866 912.095 999.474 912.923 1002.08ZM759.394 1002.58C751.985 1005.79 747.314 1013.02 749.289 1018.22C750.578 1021.6 755.075 1024.99 758.279 1024.99C765.377 1024.98 772.186 1015.88 770.808 1008.24C769.435 1000.63 766.852 999.355 759.394 1002.58ZM711.471 1005.91C714.736 1009.18 714.841 1009.81 713.32 1016.9C711.874 1023.64 709.134 1026.99 705.071 1026.99C698.674 1026.98 693.394 1021.77 693.394 1015.46C693.394 1011.06 702.155 1003.18 707.221 1003.03C707.951 1003.01 709.863 1004.31 711.471 1005.91ZM766.067 1008.58C767.775 1013.03 760.261 1020.78 756.924 1018.02C753.908 1015.51 755.727 1011.26 760.989 1008.52C764.654 1006.61 765.312 1006.61 766.067 1008.58ZM923.327 1025.26C916.823 1029.64 916.053 1039.09 921.678 1045.48C926.615 1051.08 935.864 1048.83 938.049 1041.49C939.78 1035.68 939.678 1027.84 937.837 1025.21C935.644 1022.08 928.004 1022.1 923.327 1025.26ZM783.778 1029.9C776.594 1033.17 772.185 1041.3 772.037 1051.56C771.977 1055.69 772.497 1057.44 774.622 1060.22C780.872 1068.42 798.594 1071.55 805.949 1065.77C816.783 1057.25 813.058 1033.95 800.079 1029.05C795.787 1027.43 788.362 1027.82 783.778 1029.9ZM934.814 1033.66C934.651 1042.14 928.167 1046.32 924.92 1040.04C922.843 1036.02 923 1034.04 925.613 1031.26C927.287 1029.48 928.699 1028.97 931.363 1029.19C934.807 1029.48 934.892 1029.59 934.814 1033.66ZM800.429 1036.24C807.111 1039.61 808.884 1045.08 806.306 1054.37C803.924 1062.95 797.836 1065 786.9 1060.91C779.761 1058.24 777.928 1055.58 778.705 1049.01C779.549 1041.89 781.838 1038.15 786.71 1035.93C792.185 1033.45 795.021 1033.51 800.429 1036.24ZM859.307 1038.27C854.692 1041.38 849.394 1051.72 849.394 1057.62C849.394 1073.17 867.785 1080.08 876.522 1067.81C881.292 1061.11 878.255 1044.42 871.184 1038.47C867.518 1035.38 863.687 1035.32 859.307 1038.27ZM869.67 1044.25C873.661 1047.47 875.507 1057.43 873.063 1062.56C869.961 1069.06 862.646 1070.28 857.952 1065.06C853.711 1060.36 856.959 1046.92 863.15 1043.56C866.674 1041.65 866.425 1041.62 869.67 1044.25ZM744.873 1059.31C734.447 1069.74 744.881 1088.68 759.304 1085.51C766.032 1084.03 768.151 1076.27 764.855 1065.17C763.556 1060.8 762.707 1059.68 759.395 1057.99C753.38 1054.92 748.85 1055.33 744.873 1059.31ZM758.471 1064.91C763.805 1070.25 761.829 1079.99 755.413 1079.99C750.824 1079.99 745.57 1072.27 746.987 1067.61C748.842 1061.5 753.88 1060.32 758.471 1064.91Z" fill="black"/>
</svg>
