<svg width="1227" height="1588" viewBox="0 0 1227 1588" fill="none" xmlns="http://www.w3.org/2000/svg">
<path fill-rule="evenodd" clip-rule="evenodd" d="M614.286 0.477724C594.604 2.53472 574.142 14.6447 567.897 27.9307C565.419 33.2017 566.116 33.0947 554.286 30.0287C546.389 27.9827 525.8 27.9627 514.167 29.9917C500.65 32.3477 483.984 36.8067 466.286 42.8017C423.223 57.3867 419.221 59.2267 409.929 68.7107C397.384 81.5147 390.042 98.4397 387.923 119.446C385.147 146.958 392.356 172.986 409.759 198.288C418.319 210.732 441.864 238.523 448.568 244.096C451.713 246.71 454.736 249.235 455.286 249.708C455.836 250.18 452.589 248.988 448.07 247.057C425.578 237.45 405.115 234.532 384.114 237.939C359.432 241.942 341.034 251.539 328.467 266.967C322.882 273.824 310.979 297.513 307.878 307.943C306.734 311.793 305.39 317.899 304.893 321.513C303.985 328.102 304.28 369.257 305.322 381.443C306.48 394.996 310.969 406.598 316.122 409.355L318.623 410.694L316.455 414.818C313.501 420.439 312.939 433.007 315.28 441.098C318.438 452.007 326.613 466.332 333.755 473.472C337.347 477.062 341.649 480.563 343.314 481.251C345.428 482.124 347.068 484.031 348.747 487.568C350.07 490.354 353.147 494.853 355.585 497.564C368.337 511.748 384.322 513.913 420.889 506.408C438.676 502.758 442.466 502.283 450.508 502.692C458.987 503.124 460.156 503.443 465.008 506.654C467.911 508.574 471.401 510.823 472.763 511.651C474.935 512.971 475.376 514.258 476.345 522.092C478.922 542.943 490.824 556.731 506.08 556.538C525.039 556.299 541.599 545.417 550.427 527.396C554.913 518.237 558.896 506.45 560.716 496.943C561.348 493.643 562.081 489.93 562.344 488.693C563.229 484.542 566.188 486.325 573.786 495.591C577.911 500.622 584.591 508.384 588.63 512.84C595.012 519.881 597.075 523.211 604.369 538.247C613.347 556.753 616.728 562.288 623.476 569.527C629.131 575.593 630.83 579.828 630.1 586.032C628.654 598.314 629.288 602.002 634.77 613.195C641.207 626.34 641.738 630.182 641.373 660.943C641.061 687.284 640.252 691.629 633.552 702.943C627.666 712.881 621.821 720.64 612.682 730.643C603.358 740.849 597.2 744.364 583.286 747.422C572.971 749.689 571.428 749.832 572.286 748.443C572.626 747.893 572.401 747.443 571.786 747.443C571.171 747.443 570.951 746.986 571.296 746.427C571.642 745.868 572.414 745.713 573.013 746.083C573.723 746.522 573.905 746.007 573.537 744.598C573.172 743.202 573.352 742.675 574.049 743.106C574.723 743.522 574.894 743.168 574.507 742.158C574.105 741.111 574.326 740.713 575.137 741.024C575.85 741.298 577.124 739.958 578.103 737.904C579.261 735.475 579.408 734.518 578.553 734.96C577.856 735.321 578.266 734.79 579.463 733.78C584.112 729.858 599.588 693.617 598.458 689.297C598.191 688.277 598.426 687.443 598.98 687.443C599.557 687.443 599.838 685.561 599.637 683.038C599.444 680.616 599.623 678.843 600.036 679.097C600.999 679.693 601.023 675.013 600.062 674.052C599.663 673.654 599.272 671.666 599.192 669.635C599.112 667.605 598.797 665.043 598.493 663.943C598.188 662.843 597.905 661.579 597.863 661.134C597.82 660.689 597.341 660.6 596.797 660.936C596.227 661.288 596.065 660.88 596.414 659.97C597.563 656.976 588.682 645.235 585.93 646.11C584.507 646.562 584.487 646.482 585.786 645.514C587.066 644.56 586.855 644.042 584.344 641.979C582.726 640.65 581.028 639.794 580.569 640.077C580.111 640.36 579.86 639.996 580.011 639.267C580.189 638.409 579.263 637.943 577.378 637.943C575.645 637.943 574.3 637.337 574.052 636.443C573.71 635.216 573.809 635.193 574.594 636.315C575.122 637.069 576.135 637.493 576.844 637.257C577.641 636.991 576.897 635.946 574.896 634.521L571.657 632.215L569.002 634.579C567.541 635.879 566.914 636.199 567.608 635.29C568.302 634.381 568.513 633.442 568.078 633.204C567.642 632.966 567.834 632.902 568.504 633.063C569.174 633.224 569.969 632.956 570.271 632.468C570.995 631.296 566.745 628.35 565.469 629.139C564.914 629.482 564.79 629.245 565.188 628.602C565.612 627.915 564.874 626.985 563.356 626.293C560.752 625.107 558.761 622.604 555.519 616.443C553.992 613.541 553.788 611.644 554.323 605.335C556.107 584.319 543.004 568.336 523.906 568.234C511.24 568.166 496.651 570.863 498.527 572.927C498.944 573.386 498.458 573.464 497.446 573.099C495.424 572.371 489.578 575.297 490.399 576.626C490.677 577.076 490.177 577.443 489.289 577.443C486.783 577.443 470.06 591.311 462.35 599.783C458.536 603.975 455.214 607.204 454.969 606.959C454.724 606.714 453.582 607.173 452.432 607.978C451.282 608.784 449.406 609.443 448.263 609.443C447.121 609.443 445.721 609.908 445.153 610.476C443.338 612.291 440.904 610.394 437.604 604.592C430.055 591.32 407.293 572.979 387.067 563.869C373.179 557.615 365.284 556.068 350.403 556.688C332.114 557.449 318.227 561.618 299.786 571.882C291.754 576.352 281.892 581.247 259.617 591.82C252.309 595.288 249.103 597.451 246.488 600.676C239.768 608.963 236.359 618.2 234.766 632.443C233.65 642.422 233.357 681.681 234.322 691.943C238.382 735.11 245.109 754.599 260.827 768.736C264.217 771.785 271.73 776.637 278.952 780.443C293.909 788.325 295.362 790.317 294.916 802.318C294.765 806.375 294.211 810.825 293.685 812.208C292.945 814.155 293.131 815.196 294.508 816.816C296.203 818.811 296.204 818.845 294.512 817.533C292.418 815.91 292.265 816.029 291.419 819.943L290.77 822.943L292.242 820.443C293.052 819.068 293.729 818.393 293.747 818.943C293.764 819.493 292.873 821.429 291.766 823.244C289.285 827.312 289.232 835.968 291.669 838.865C292.558 839.922 292.724 840.458 292.036 840.056C290.567 839.197 290.442 840.408 291.666 843.628C292.15 844.901 292.597 846.282 292.659 846.697C292.896 848.293 298.058 857.493 299.065 858.116C299.728 858.525 299.886 858.147 299.487 857.107C298.578 854.736 299.503 855.046 300.851 857.564C301.648 859.054 301.659 859.482 300.886 859.005C298.883 857.767 299.745 859.791 302.401 862.563C303.839 864.064 305.593 865.07 306.3 864.799C307.006 864.528 307.878 864.782 308.237 865.363C308.634 866.006 308.282 866.187 307.338 865.825C304.678 864.804 305.62 866.143 309.998 869.609C312.315 871.443 313.856 872.268 313.424 871.443C312.992 870.618 313.303 870.757 314.116 871.753C316.436 874.593 325.305 877.471 333.653 878.09C339.357 878.514 345.223 877.999 356.869 876.05C379.202 872.314 377.749 872.034 381.001 880.704C386.473 895.291 398.716 910.276 409.5 915.586C416.366 918.967 430.072 918.955 437.286 915.561C440.036 914.267 445.211 912.86 448.786 912.434C452.361 912.008 456.567 911.369 458.133 911.014C462.511 910.022 472.935 904.651 476.325 901.641C477.996 900.157 478.671 899.393 477.825 899.943C476.488 900.812 476.465 900.715 477.649 899.204C478.399 898.248 479.448 897.734 479.981 898.063C481.27 898.86 486.887 893.416 486.096 892.135C485.756 891.585 485.944 891.422 486.514 891.775C488.258 892.853 492.709 888.639 492.264 886.33C491.805 883.945 492.369 884.281 499.446 890.602C507.085 897.426 517.473 901.569 532.549 903.806C548.611 906.189 555.865 903.24 562.964 891.443C570.822 878.384 573.454 860.83 569.561 847.443C568.681 844.418 567.651 839.55 567.271 836.626C566.723 832.407 566.262 831.43 565.041 831.898C563.818 832.368 563.742 832.202 564.666 831.088C565.439 830.156 565.527 828.891 564.927 827.315C564.431 826.01 563.909 824.493 563.766 823.943C563.623 823.393 562.69 820.572 561.693 817.673C559.471 811.215 557.682 802.293 557.535 796.943L557.425 792.943L562.856 793.015C565.842 793.054 572.111 793.432 576.786 793.854C584.665 794.566 585.633 794.442 590.036 792.168C595.691 789.248 595.313 786.972 593.266 811.633C589.657 855.112 583.659 892.806 568.796 965.416C563.635 990.627 562.793 999.548 565.266 1002.81C566.552 1004.51 566.135 1005.33 560.722 1011.76C547.07 1027.98 535.409 1048.85 529.399 1067.81C527.459 1073.93 525.619 1080.18 525.31 1081.69C525.001 1083.21 524.391 1084.44 523.955 1084.44C523.519 1084.44 519.107 1079.38 514.149 1073.19C505.869 1062.86 484.198 1038.91 480.045 1035.5C479.077 1034.71 475.136 1031.1 471.286 1027.49C453.271 1010.6 409.839 976.929 395.949 969.086C391.913 966.807 384.076 962.093 378.534 958.609C351.719 941.757 314.212 921.723 295.286 914.142C277.017 906.825 225.76 891.664 194.918 884.455C159.985 876.29 104.028 866.343 76.2859 863.367C56.3079 861.225 32.2709 864.026 19.0839 870.034C6.45488 875.788 -1.03413 885.874 0.115867 895.582C1.80087 909.807 15.3899 920.357 41.7859 927.934C55.3159 931.817 74.0159 934.987 115.786 940.476C192.063 950.501 217.031 956.109 279.786 977.31C322.701 991.808 337.894 997.983 369.17 1013.64C434.9 1046.53 458.347 1064.31 475.778 1094.44C481.569 1104.45 489.219 1115.87 494.04 1121.69C496.24 1124.35 497.381 1126.43 496.629 1126.42C495.89 1126.41 491.461 1125.72 486.786 1124.87C460.253 1120.09 408.522 1127.15 368.786 1140.98C334.91 1152.76 299.705 1172.05 276.028 1191.78C265.205 1200.8 259.228 1208.05 254.034 1218.44C250.703 1225.11 250.286 1226.78 250.286 1233.44C250.286 1239.81 250.698 1241.64 253.02 1245.59C256.743 1251.93 263.894 1257.99 270.062 1260.03C282.962 1264.32 304.635 1260.15 331.583 1248.21C337.796 1245.46 343.088 1243.41 343.341 1243.66C343.595 1243.92 343.306 1266.13 342.7 1293.03C341.292 1355.45 342.131 1378.38 346.938 1408.94C356.939 1472.51 377.322 1514.14 412.786 1543.43C438.991 1565.07 478.439 1581.23 516.786 1586.04C526.839 1587.3 534.343 1587.47 555.124 1586.89C580.452 1586.2 581.013 1586.14 583.52 1583.81C585.223 1582.23 587.282 1581.44 589.682 1581.44C596.687 1581.43 612.572 1578.5 621.87 1575.52C644.785 1568.15 664.335 1554.26 679.941 1534.24C683.431 1529.76 688.702 1523.37 691.656 1520.02C705.655 1504.17 715.276 1485.85 729.248 1448.44C741.5 1415.64 756.565 1353.65 765.814 1297.99C770.402 1270.37 771.625 1239.1 768.74 1223.19C766.681 1211.83 760.877 1203.11 752.406 1198.64C747.661 1196.14 746.443 1195.95 735.786 1196.03C726.392 1196.11 718.793 1197.14 694.286 1201.65C665.055 1207.04 664.004 1207.16 653.286 1206.37C630.075 1204.68 586.404 1205.62 557.827 1208.43C552.624 1208.94 548.157 1209.15 547.9 1208.89C547.642 1208.63 548.585 1207.19 549.995 1205.68C554.014 1201.39 556.007 1196.56 556.55 1189.79C556.967 1184.6 556.685 1182.94 554.865 1179.85C551.688 1174.47 553.406 1173.42 560.012 1176.73C562.913 1178.18 567.311 1179.8 569.786 1180.33C579.74 1182.44 610.218 1185.58 617.038 1185.19C637.877 1184.01 645.954 1183.38 663.786 1181.54C674.511 1180.42 689.136 1179.02 696.286 1178.42C720.354 1176.39 739.023 1172.61 752.904 1166.97C766.105 1161.61 771.42 1155.77 770.504 1147.63C769.778 1141.17 764.636 1136.65 754.069 1133.16C736.255 1127.28 718.18 1125.45 683.786 1126.01C659.32 1126.42 656.49 1126.55 628.286 1128.48C600.589 1130.38 570.044 1135.22 549.036 1141.05C547.498 1141.48 546.782 1141.24 546.772 1140.31C546.765 1139.56 546.495 1137.96 546.172 1136.76C545.663 1134.86 546.505 1134.11 552.537 1131.07C561.631 1126.49 570.212 1119.93 588.928 1103.27C646.961 1051.59 706.595 1011.59 781.786 973.899C801.9 963.818 806.137 961.801 826.286 952.716C864.839 935.332 1005.41 880.1 1101.79 844.471C1170.33 819.131 1197.59 805.571 1215 788.159C1224.1 779.055 1226.26 774.424 1226.25 763.943C1226.25 757.639 1225.79 755.069 1224.06 751.819C1217.95 740.3 1206.12 736.443 1176.9 736.443C1126.87 736.443 1085.18 743.86 1013.5 765.513C913.01 795.871 802.049 847.162 712.286 904.749C663.131 936.283 611.938 977.148 576.604 1013.05C552.452 1037.6 546.598 1044.9 542.399 1055.69C537.47 1068.36 535.675 1077.05 535.597 1088.63L535.526 1099.32L532.156 1095.29C530.303 1093.07 528.786 1090.58 528.786 1089.76C528.786 1087.25 532.681 1072.85 535.432 1065.19C547.22 1032.38 579.543 992.823 617.53 964.731C626.633 957.998 661.78 934.578 679.786 923.246C693.629 914.534 710.327 904.378 749.786 880.671C795.335 853.307 826.103 830.637 859.786 799.622C908.97 754.335 1019.49 638.247 1041.39 608.861C1062.56 580.456 1068.82 565.368 1066.66 547.943C1065.53 538.805 1062.26 533.931 1054.79 530.198C1043.61 524.621 1031.74 524.28 1016.48 529.098C1000.76 534.062 963.146 552.663 937.286 568.257C880.76 602.343 814.659 659.969 763.166 720.054C717.839 772.944 685.088 821.585 632.371 914.311C616.038 943.04 610.374 951.906 605.774 955.943L603.495 957.943L604.044 955.443C604.346 954.068 606.196 948.443 608.156 942.943C615.38 922.666 618.444 901.951 621.356 853.686C622.795 829.834 623.048 780.451 621.751 776.541C621.255 775.047 623.822 773.117 633.756 767.508C641.713 763.016 646.72 757.934 654.017 746.943C664.311 731.436 669.389 719.485 672.366 703.755C673.782 696.278 673.935 690.927 673.382 668.443C672.697 640.581 673.742 627.27 677.283 618.796C678.181 616.647 683.361 610.595 689.508 604.515C703.134 591.037 713.853 584.657 733.2 578.508C742.44 575.571 749.305 572.048 754.965 567.337C757.539 565.195 760.116 563.443 760.692 563.443C761.269 563.443 762.474 564.564 763.372 565.934C764.27 567.305 765.417 568.171 765.92 567.86C766.424 567.549 766.712 567.724 766.561 568.248C766.41 568.773 767.547 570.381 769.088 571.823C771.666 574.235 773.055 574.874 775.036 574.561C775.448 574.496 775.786 574.858 775.786 575.365C775.786 575.873 777.327 576.796 779.21 577.418C791.233 581.386 802.661 580.67 819.035 574.923C823.996 573.181 826.958 570.699 822.661 571.884C820.644 572.44 820.551 572.372 822.044 571.437C823.011 570.831 824.252 570.613 824.803 570.953C825.353 571.294 826.759 571.269 827.927 570.898C829.625 570.359 829.773 570.033 828.668 569.268C827.642 568.558 827.8 568.45 829.286 568.847C831.972 569.565 836.378 566.205 835.208 564.33C833.982 562.366 833.787 560.326 834.89 561.007C835.401 561.323 835.579 561.969 835.286 562.443C834.508 563.701 836.342 564.551 838.253 563.817C839.272 563.426 839.665 562.566 839.284 561.564C838.813 560.324 838.945 560.218 839.845 561.111C840.745 562.005 842.096 561.114 845.582 557.33C852.636 549.673 853.204 548.669 851.623 546.65C850.442 545.142 850.475 545.09 851.908 546.209C853.331 547.32 853.782 546.768 855.584 541.709C857.982 534.978 858.991 527.711 857.836 525.498C857.376 524.616 857.632 521.598 858.427 518.526C860.163 511.824 859.07 507.777 854.421 503.695C850.273 500.054 847.709 499.138 834.286 496.499C828.236 495.31 820.361 493.695 816.786 492.911C808.559 491.106 802.687 491.094 796.022 492.868C784.054 496.054 778.647 501.176 761.765 525.316C755.468 534.322 748.625 543.137 746.558 544.906C742.055 548.761 737.288 550.306 726.427 551.433C711.099 553.024 701.621 556.454 693.103 563.492C688.247 567.506 685.479 568.373 684.189 566.286C682.94 564.266 683.737 556.526 685.834 550.302C688.334 542.88 690.955 538.678 699.932 527.695C709.474 516.021 713.804 509.397 732.777 477.443C753.747 442.124 757.534 436.556 766.862 427.322C774.08 420.177 789.336 409.253 798.207 404.877C803.811 402.112 813.076 392.778 816.06 386.889C817.462 384.122 819.378 379.213 820.318 375.98C822.128 369.756 822.815 354.838 821.508 350.159L820.731 347.374L825.008 349.622C831.307 352.931 840.483 352.741 847.898 349.148C854.915 345.748 863.021 337.312 866.59 329.696L869.286 323.943L869.417 295.443C869.607 254.124 868.494 247.905 860.207 243.972C851.809 239.987 841.086 246.187 820.073 267.178C797.791 289.437 794.217 299.249 799.186 324.528C804.138 349.717 804.229 358.267 799.652 368.004C795.26 377.348 788.127 383.462 769.991 393.429C754.764 401.798 752.018 400.914 749.784 386.931C748.687 380.062 746.228 374.707 737.994 361.247C732.232 351.828 729.404 348.787 719.786 341.67C708.198 333.096 696.817 321.118 689.518 309.817C682.43 298.842 677.978 294.673 672.379 293.764C670.403 293.444 668.786 293.016 668.786 292.814C668.786 292.613 670.301 290.309 672.153 287.695C674.005 285.082 676.812 279.793 678.39 275.943C681.002 269.57 681.251 267.914 681.178 257.443C681.105 247.104 680.769 245.035 677.852 236.943C675.578 230.632 674.772 226.932 675.156 224.56C675.457 222.699 679.274 215.049 683.638 207.56C695.809 186.673 697.32 183.765 702.139 171.943C713.546 143.957 716.618 120.885 711.956 98.2187C709.412 85.8467 706.46 79.4547 699.822 71.9427C691.887 62.9617 688.177 56.6437 683.412 43.9997C678.247 30.2947 673.913 22.7657 667.549 16.4417C659.83 8.77271 645.457 2.26072 633.286 0.918718C623.205 -0.192281 621.151 -0.240276 614.286 0.477724ZM639.045 7.38072C652.48 10.8177 663.054 17.6207 669.087 26.7097C671.83 30.8417 681.786 56.2697 681.786 59.1427C681.786 59.3917 680.648 58.2437 679.257 56.5907C676.569 53.3957 666.282 46.5757 661.286 44.6767C654.8 42.2107 649.261 41.3277 640.463 41.3567C628.804 41.3947 618.302 44.0217 605.668 50.0627C593.26 55.9957 591.753 55.5567 577.687 41.9177C569.991 34.4537 569.901 34.0227 574.611 27.0647C577.997 22.0617 586.312 15.3107 593.299 11.8927C606.631 5.36972 624.349 3.62272 639.045 7.38072ZM558.321 36.5607C563.433 38.5787 566.001 40.6447 575.11 50.0697L585.863 61.1977L583.918 64.5697C582.848 66.4247 578.954 76.4877 575.266 86.9317C567.654 108.485 555.756 133.443 553.094 133.443C552.17 133.443 549.361 131.734 546.85 129.645C539.021 123.13 536.098 121.446 531.621 120.875C519.789 119.366 509.861 134.569 511.332 151.943C511.657 155.793 512.844 167.268 513.967 177.443C516.333 198.868 515.994 208.155 512.229 225.039C510.551 232.563 509.84 238.475 510.02 243.401C510.27 250.219 510.124 250.789 507.66 252.658C505.693 254.149 502.929 254.773 496.66 255.142C485.726 255.786 475.667 253.655 465.139 248.464C458.007 244.949 455.532 242.924 445.291 232.235C399.88 184.836 385.719 147.855 396.394 104.545C398.655 95.3737 403.783 84.5947 409.291 77.4367C417.03 67.3787 422.253 64.1837 443.582 56.4657C472.618 45.9567 492.408 39.7867 505.96 37.0177C522.892 33.5567 522.557 33.5897 538.286 33.9007C550.266 34.1377 553.157 34.5217 558.321 36.5607ZM653.786 48.5517C659.872 49.9627 668.639 54.7577 673.158 59.1467C678.531 64.3657 676.927 65.2027 665.55 63.1157C650.596 60.3727 643.183 59.5627 627.286 58.9337C619.036 58.6067 610.711 58.0937 608.786 57.7917L605.286 57.2437L610.831 54.4307C624.42 47.5377 640.136 45.3867 653.786 48.5517ZM601.286 62.3907C604.586 62.9047 612.686 63.5827 619.286 63.8977C641.201 64.9447 648.197 65.5947 658.348 67.5277C675.099 70.7157 679.783 70.3307 681.879 65.5957L683.097 62.8437L689.096 68.8927C700.094 79.9827 705.671 91.6367 707.869 108.124C711.32 134.006 702.084 167.825 682.957 199.338C673.294 215.26 668.786 223.606 668.786 225.575C668.786 227.096 668.022 227.443 664.681 227.443C661.589 227.443 656.515 229.415 644.13 235.429C621.459 246.44 616.286 247.948 601.286 247.922C591.662 247.905 587.801 247.446 581.786 245.606C572.457 242.753 555.351 241.628 548.019 243.387C545.237 244.054 539.47 246.59 535.203 249.022C529.966 252.006 526.281 253.438 523.865 253.428C519.147 253.408 520.955 252.256 530.978 248.896C546.736 243.614 555.78 235.386 563.869 218.973C575.464 195.448 575.571 179.808 564.317 153.962C561.825 148.238 559.786 142.708 559.786 141.673C559.786 140.638 560.899 138.746 562.259 137.468C563.619 136.19 565.928 132.849 567.389 130.044C568.85 127.238 574.017 118.615 578.871 110.88C595.395 84.5477 598.494 76.3807 595.366 67.3977C592.99 60.5727 592.462 61.0187 601.286 62.3907ZM590.786 72.5217C590.786 74.6997 589.664 79.2427 588.293 82.6167C585.809 88.7297 576.901 103.892 576.203 103.194C575.843 102.833 587.239 70.1367 588.354 68.3327C589.507 66.4677 590.786 68.6707 590.786 72.5217ZM535.84 129.315C538.285 130.895 541.186 133.053 542.286 134.11C543.386 135.168 546.311 137.143 548.786 138.501C552.522 140.549 553.51 141.73 554.608 145.456C555.335 147.924 557.469 153.33 559.35 157.47C567.442 175.282 568.686 190.432 563.287 205.443C558.18 219.643 549.335 233.066 541.802 238.051C538.583 240.181 525.375 245.665 517.536 248.127C515.984 248.614 515.789 247.898 515.812 241.81C515.826 238.033 516.75 231.118 517.865 226.443C520.956 213.486 521.489 193.093 519.202 175.324C518.184 167.414 517.337 156.218 517.319 150.443C517.288 140.688 517.487 139.601 520.115 135.13C522.701 130.73 527.734 126.456 530.34 126.447C530.92 126.445 533.395 127.736 535.84 129.315ZM670.289 234.446C675.887 240.632 672.692 260.344 664.027 273.076C656.46 284.193 646.879 291.878 630.093 300.294C624.487 303.104 618.352 306.763 616.461 308.424C614.57 310.084 612.806 311.443 612.542 311.443C612.277 311.443 611.763 308.901 611.397 305.794C611.032 302.687 609.342 296.725 607.64 292.544C605.939 288.363 603.949 281.911 603.219 278.206C601.572 269.85 599.151 264.325 594.455 258.207L590.821 253.471L598.133 254.09C612.405 255.296 623.788 252.149 647.286 240.499C656.086 236.136 664.454 232.539 665.881 232.505C667.308 232.471 669.292 233.344 670.289 234.446ZM414.697 243.02C414.929 243.253 409.757 243.411 403.203 243.373C396.041 243.33 392.084 242.978 393.286 242.489C395.22 241.703 413.841 242.165 414.697 243.02ZM374.786 245.872C374.786 246.108 372.328 247.016 369.323 247.889C366.318 248.763 363.056 249.766 362.073 250.119C361.09 250.473 360.559 250.454 360.894 250.078C362.339 248.453 374.786 244.684 374.786 245.872ZM553.786 247.941C553.786 249.003 543.275 253.441 540.849 253.403L538.286 253.363L541.286 251.71C543.739 250.358 546.525 249.403 553.536 247.51C553.674 247.473 553.786 247.667 553.786 247.941ZM860.04 250.243C862.312 252.208 863.562 257.087 864.24 266.634C864.778 274.215 863.51 278.176 862.207 272.984C861.523 270.259 860.254 269.66 859.471 271.693C859.206 272.381 859.037 271.962 859.096 270.762C859.154 269.563 859.603 268.83 860.093 269.133C862.432 270.578 858.329 265.207 854.488 261.795C852.103 259.676 849.842 257.113 849.464 256.098C849.086 255.083 847.883 254.02 846.792 253.734C844.13 253.038 845.205 251.605 850.003 249.457C854.24 247.56 857.209 247.793 860.04 250.243ZM358.786 251.443C357.961 251.976 356.836 252.412 356.286 252.412C355.736 252.412 355.961 251.976 356.786 251.443C357.611 250.91 358.736 250.474 359.286 250.474C359.836 250.474 359.611 250.91 358.786 251.443ZM580.786 254.566C588.147 257.804 593.774 264.278 596.293 272.407C596.937 274.486 596.213 274.11 591.671 270.006C585.112 264.079 574.41 258.83 562.898 255.892C554.315 253.702 554.299 253.693 558.286 252.987C560.486 252.598 562.736 252.103 563.286 251.888C565.509 251.018 576.568 252.71 580.786 254.566ZM464.279 254.432C464.629 254.998 464.228 255.166 463.338 254.825C461.606 254.16 461.289 253.443 462.727 253.443C463.245 253.443 463.943 253.888 464.279 254.432ZM677.15 260.137C676.496 269.378 673.448 277.741 668.326 284.353C661.981 292.542 659.058 294.97 651.441 298.381C647.676 300.066 641.238 303.897 637.135 306.893C629.692 312.328 619.905 316.826 616.882 316.2C614.652 315.738 620.338 310.595 627.641 306.468C630.746 304.713 637.012 301.178 641.565 298.61C659.542 288.476 669.925 275.453 676.183 255.193C677.254 251.723 677.616 253.569 677.15 260.137ZM843.91 261.71C842.922 262.69 842.808 262.575 843.35 261.15C843.726 260.164 844.285 259.609 844.593 259.917C844.901 260.224 844.594 261.031 843.91 261.71ZM833.212 264.693C832.931 265.381 831.483 266.804 829.994 267.856C827.29 269.765 827.291 269.763 830.223 266.606C833.431 263.152 833.988 262.795 833.212 264.693ZM839.91 267.71C838.922 268.69 838.808 268.575 839.35 267.15C839.726 266.164 840.285 265.609 840.593 265.917C840.901 266.224 840.594 267.031 839.91 267.71ZM824.786 271.769C824.786 271.948 823.549 273.185 822.036 274.519L819.286 276.943L821.71 274.193C823.976 271.623 824.786 270.984 824.786 271.769ZM819.387 278.693C819.783 279.381 819.738 279.609 819.288 279.202C818.838 278.794 817.754 279.019 816.878 279.702C815.469 280.8 815.444 280.741 816.658 279.193C818.294 277.107 818.458 277.077 819.387 278.693ZM815.603 282.804C815.428 282.892 814.192 283.86 812.855 284.954L810.423 286.943L812.355 284.296C813.417 282.84 814.653 281.873 815.103 282.146C815.552 282.42 815.777 282.716 815.603 282.804ZM817.819 286.943C819.176 288.793 819.155 288.84 817.536 287.571C816.573 286.816 815.786 285.728 815.786 285.154C815.786 284.58 815.913 284.297 816.069 284.526C816.225 284.756 817.012 285.843 817.819 286.943ZM846.593 286.969C846.285 287.277 845.726 286.722 845.35 285.736C844.808 284.311 844.922 284.196 845.91 285.176C846.594 285.855 846.901 286.662 846.593 286.969ZM832.593 289.969C832.285 290.277 831.726 289.722 831.35 288.736C830.808 287.311 830.922 287.196 831.91 288.176C832.594 288.855 832.901 289.662 832.593 289.969ZM809.357 290.37C809.357 291.429 808.927 292.03 808.402 291.706C807.858 291.369 807.721 291.832 808.085 292.779C808.439 293.701 808.239 294.443 807.638 294.443C807.017 294.443 806.759 295.522 807.035 296.967C807.301 298.355 807.128 299.732 806.652 300.026C806.176 300.32 805.786 301.236 805.786 302.061C805.786 302.995 806.258 303.278 807.036 302.81C808.027 302.215 808.032 302.372 807.062 303.572C805.758 305.184 806.43 315.781 807.783 314.945C808.182 314.699 808.14 316.397 807.69 318.72C805.896 327.994 806.499 331.134 812.373 343.077C817.45 353.4 817.955 355.026 817.91 360.901C817.883 364.457 817.136 370.164 816.25 373.583C812.514 387.998 805.764 395.986 790.685 403.836C785.516 406.527 778.459 410.723 775.003 413.16C762.037 422.304 748.228 438.758 738.257 456.943C736.146 460.793 729.176 472.493 722.769 482.943C716.361 493.393 709.711 504.418 707.991 507.443C706.27 510.468 700.769 517.893 695.766 523.943C690.763 529.993 685.093 538.123 683.166 542.009C677.311 553.822 677.042 566.139 682.545 570.468C685.862 573.077 688.337 572.536 694.461 567.861C703.818 560.719 712.019 557.889 727.786 556.363C740.874 555.096 749.036 551.587 753.723 545.215C755.407 542.923 756.796 541.25 756.809 541.496C756.821 541.742 756.939 545.666 757.07 550.216L757.309 558.488L752.797 562.865C747.149 568.345 740.666 571.6 729.786 574.418C725.111 575.629 715.353 579.495 708.101 583.009C696.505 588.629 694.397 590.042 690.601 594.747C688.228 597.69 684.303 601.637 681.878 603.52C671.132 611.866 670.292 612.916 670.205 618.116C670.16 620.771 669.32 628.343 668.337 634.943C666.863 644.849 666.701 649.386 667.413 660.943C669.426 693.645 667.711 706.294 658.424 727.241C649.913 746.437 641.548 756.304 626.661 764.713C620.091 768.423 617.31 769.443 613.759 769.443C608.081 769.443 605.281 771.372 602.481 777.213C600.961 780.384 599.632 781.839 598.16 781.942C596.99 782.024 593.888 783.512 591.266 785.248C585.247 789.235 581.455 789.939 573.478 788.55C569.982 787.941 565.214 787.443 562.883 787.443C558.345 787.443 554.535 785.137 557.312 784.072C558.123 783.76 558.786 782.368 558.786 780.978C558.786 777.701 562.301 767.472 565.902 760.269C569.079 753.913 567.207 754.695 588.286 750.92C599.722 748.873 603.759 746.498 615.243 735.064C625.208 725.141 631.268 717.154 638.147 704.872C645.626 691.521 646.038 689.332 646.538 660.321C647.091 628.218 646.401 623.068 639.991 611.462L635.286 602.943V589.443C635.286 573.919 635.328 574.035 626.216 564.164C620.077 557.514 617.376 552.739 605.444 527.443C603.498 523.318 599.516 517.147 596.596 513.73C593.675 510.313 586.727 502.191 581.154 495.682C570.698 483.468 563.142 477.687 560.754 480.075C560.152 480.677 557.954 488.094 555.869 496.556C547.871 529.023 537.756 544.071 520.021 549.887C513.187 552.128 502.184 552.217 498.022 550.065C489.911 545.871 483.551 535.943 481.569 524.382C480.449 517.851 480.497 517.128 482.126 515.936C484.316 514.335 486.275 514.552 495.607 517.426C505.966 520.617 517.973 520.046 526.367 515.965C538.567 510.032 548.263 496.439 553.846 477.443C556.34 468.957 558.655 465.849 563.475 464.518C571.089 462.416 579.624 465.63 587.971 473.742C593.034 478.663 633.857 529.759 640.496 539.486C642.202 541.985 644.105 545.915 644.726 548.219C646.454 554.638 651.195 556.208 657.354 552.401C661.095 550.089 662.256 547.215 663.636 536.842C664.857 527.663 666.421 524.809 674.394 517.209C689.614 502.699 710.678 472.704 715.234 459.05C716.682 454.709 721.245 444.584 725.374 436.55C730.774 426.041 733.311 419.839 734.417 414.443C736.78 402.919 736.05 399.249 729.076 387.604C725.763 382.071 721.549 373.809 719.713 369.244C716.216 360.552 711.322 354.716 699.198 344.781C692.322 339.146 685.874 329.383 679.285 314.63C676.261 307.858 673.786 301.891 673.786 301.371C673.786 298.856 678.439 303.848 683.639 311.943C693.561 327.387 704.868 339.099 719.045 348.616C724.025 351.959 734.992 365.993 738.706 373.775C740.338 377.195 742.217 382.231 742.881 384.968C743.546 387.704 744.498 391.667 744.998 393.773C746.33 399.391 751.367 404.444 756.287 405.098C759.64 405.544 761.578 404.948 768.286 401.407C788.578 390.697 800.755 380.161 804.943 369.69C808.331 361.22 808.065 342.877 804.294 324.975C801.375 311.119 801.379 305.681 804.315 297.361C805.69 293.465 808.381 288.443 809.095 288.443C809.239 288.443 809.357 289.31 809.357 290.37ZM821.131 290.986C820.805 291.835 820.324 292.315 820.062 292.053C819.8 291.791 819.882 291.096 820.245 290.51C821.231 288.914 821.807 289.224 821.131 290.986ZM833.181 291.715C833.572 291.324 833.587 291.797 833.215 292.767C832.843 293.736 832.467 294.397 832.379 294.236C832.292 294.075 831.56 293.043 830.753 291.943C829.431 290.141 829.443 290.066 830.878 291.184C831.754 291.867 832.79 292.106 833.181 291.715ZM820.103 296.059C819.638 297.271 819.334 297.329 818.713 296.325C817.775 294.808 818.536 293.17 819.811 293.959C820.299 294.26 820.431 295.205 820.103 296.059ZM841.183 295.276C841.466 295.735 841.063 296.11 840.286 296.11C839.509 296.11 839.106 295.735 839.389 295.276C839.672 294.818 840.076 294.443 840.286 294.443C840.496 294.443 840.9 294.818 841.183 295.276ZM829.91 298.71C828.922 299.69 828.808 299.575 829.35 298.15C829.726 297.164 830.285 296.609 830.593 296.917C830.901 297.224 830.594 298.031 829.91 298.71ZM838.331 300.907C838.375 303.156 836.651 303.721 835.065 301.978C834.637 301.508 834.801 301.417 835.431 301.777C836.791 302.554 838.08 299.765 837.129 298.103C836.749 297.438 836.854 297.299 837.376 297.776C837.876 298.234 838.306 299.643 838.331 300.907ZM667.547 302.193C668.591 303.706 671.383 309.443 673.752 314.943C681.316 332.506 684.97 337.834 698.782 351.443C711.145 363.624 711.568 364.185 715.372 373.439C717.519 378.662 721.495 386.312 724.209 390.439C728.326 396.699 729.216 398.886 729.581 403.632C730.259 412.465 726.75 422.826 717.385 439.648C715.332 443.336 712.311 450.311 710.672 455.148C707.273 465.183 703.389 472.124 694.002 484.943C680.14 503.873 676.648 508.12 670.289 513.779C662.233 520.95 658.961 527.017 657.861 536.825C657.043 544.118 655.283 548.443 653.132 548.443C652.487 548.443 650.087 544.956 647.798 540.693C645.51 536.43 642.382 531.593 640.847 529.943C639.313 528.293 633.834 521.486 628.672 514.816C595.457 471.899 591.858 467.892 581.633 462.442C577.121 460.038 574.145 459.162 570.165 459.069C567.208 459 564.789 458.71 564.788 458.425C564.787 458.14 565.901 456.267 567.263 454.262C574.854 443.091 583.063 422.606 588.822 400.461C590.862 392.617 594.046 384.006 597.833 376.09C606.87 357.197 612.786 336.922 612.786 324.843C612.786 322.301 613.14 321.642 614.272 322.076C617.627 323.364 629.86 318.353 639.56 311.718C648.919 305.316 660.457 299.527 663.968 299.47C664.893 299.455 666.504 300.68 667.547 302.193ZM813.986 303.643C811.862 305.767 812.71 306.82 814.956 304.848C816.982 303.069 816.97 303.157 814.768 306.193C812.131 309.827 811.545 310.235 812.487 307.779C812.951 306.571 812.763 306.339 811.801 306.933C810.847 307.523 810.703 307.36 811.287 306.348C812.595 304.081 813.988 302.443 814.608 302.443C814.926 302.443 814.646 302.983 813.986 303.643ZM865.021 311.325C864.956 319.208 864.112 322.801 860.755 329.48C855.441 340.054 843.75 348.15 835.19 347.185C826.502 346.206 815.786 338.499 815.786 333.23V330.409L820.923 333.013C827.036 336.11 834.694 337.094 840.494 335.526C845.53 334.165 853.337 328.408 853.16 326.186C853.091 325.314 853.573 324.808 854.231 325.06C855.742 325.64 861.159 315.855 860.192 314.291C859.716 313.52 859.919 313.407 860.801 313.953C861.752 314.54 861.953 314.32 861.512 313.172C861.175 312.292 861.398 311.406 862.009 311.202C862.62 310.998 863.157 309.194 863.203 307.193C863.252 305.064 863.656 303.922 864.178 304.441C864.669 304.929 865.049 308.026 865.021 311.325ZM823.786 308.898C823.786 309.67 820.81 310.29 820.387 309.607C820.133 309.195 820.793 308.793 821.855 308.713C822.917 308.633 823.786 308.716 823.786 308.898ZM833.232 310.163C833.595 311.108 833.572 311.562 833.181 311.171C832.79 310.78 831.794 311.019 830.967 311.702C829.641 312.797 829.629 312.679 830.866 310.693C832.543 308 832.413 308.029 833.232 310.163ZM820.084 313.11C819.802 313.843 819.443 314.443 819.286 314.443C819.129 314.443 818.77 313.843 818.488 313.11C818.207 312.376 818.566 311.776 819.286 311.776C820.006 311.776 820.365 312.376 820.084 313.11ZM827.365 316.217C825.643 317.866 825.621 317.845 826.886 315.738C827.615 314.526 828.426 313.749 828.689 314.012C828.952 314.275 828.356 315.267 827.365 316.217ZM856.593 321.969C856.285 322.277 855.726 321.722 855.35 320.736C854.808 319.311 854.922 319.196 855.91 320.176C856.594 320.855 856.901 321.662 856.593 321.969ZM812.786 326.943C812.786 327.768 812.336 328.443 811.786 328.443C811.236 328.443 810.786 327.768 810.786 326.943C810.786 326.118 811.236 325.443 811.786 325.443C812.336 325.443 812.786 326.118 812.786 326.943ZM852.786 326.908C852.786 327.163 851.773 327.863 850.536 328.463C848.375 329.51 848.363 329.492 850.227 327.998C852.267 326.364 852.786 326.143 852.786 326.908ZM312.782 368.435C313.902 370.631 318.923 377.852 323.939 384.483L333.059 396.538L330.069 400.241C324.479 407.162 318.359 406.831 315.404 399.447C312.703 392.696 308.461 364.443 310.148 364.443C310.477 364.443 311.662 366.24 312.782 368.435ZM338.897 409.193C340.772 414.966 341.176 419.091 341.688 437.695C342.017 449.658 342.164 459.445 342.014 459.445C340.864 459.438 335.393 448.741 333.375 442.553C329.926 431.979 327.397 414.041 328.946 411.135C330.579 408.069 335.142 402.443 335.996 402.443C336.386 402.443 337.692 405.481 338.897 409.193ZM579.182 415.974C577.794 420.345 575.494 426.85 574.071 430.432C571.296 437.415 561.845 454.835 561.187 454.178C560.709 453.7 564.584 442.406 568.278 433.513C571.831 424.957 580.806 407.13 581.307 407.631C581.526 407.85 580.57 411.604 579.182 415.974ZM323.122 417.877C323.425 418.666 324.182 423.029 324.804 427.574C326.868 442.651 332.775 456.985 340.875 466.573C343.074 469.176 343.849 471.016 343.614 473.073L343.286 475.943L337.723 470.443C331.573 464.362 324.245 451.835 320.759 441.443C317.784 432.575 318.416 416.443 321.738 416.443C322.197 416.443 322.82 417.088 323.122 417.877ZM812.47 497.443C813.838 497.443 814.633 497.881 814.286 498.443C813.946 498.993 812.543 499.443 811.168 499.443C809.793 499.443 808.92 499.851 809.228 500.35C809.537 500.848 808.895 501.023 807.802 500.737C806.71 500.451 805.022 500.564 804.051 500.988C803.08 501.412 801.724 501.668 801.036 501.557C800.349 501.446 799.786 501.797 799.786 502.337C799.786 502.877 798.97 503.257 797.973 503.182C796.976 503.107 794.695 503.652 792.905 504.394C790.458 505.407 789.978 505.976 790.969 506.687C791.939 507.383 791.823 507.482 790.527 507.065C788.093 506.282 784.897 507.696 780.856 511.346C776.805 515.004 776.829 514.996 777.487 512.48C778.219 509.677 787.151 501.606 791.557 499.765C796.379 497.75 803.516 496.497 807.161 497.026C808.742 497.255 811.131 497.443 812.47 497.443ZM848.469 508.631C848.15 509.428 847.913 509.191 847.865 508.026C847.822 506.972 848.058 506.382 848.39 506.714C848.722 507.046 848.758 507.909 848.469 508.631ZM785.286 509.443C784.946 509.993 785.22 510.443 785.894 510.443C786.568 510.443 786.849 510.713 786.519 511.043C785.621 511.941 783.664 510.45 784.329 509.374C784.645 508.862 785.129 508.443 785.404 508.443C785.679 508.443 785.626 508.893 785.286 509.443ZM794.914 516.193C796.157 517.779 796.122 517.814 794.536 516.571C792.87 515.264 792.341 514.443 793.164 514.443C793.371 514.443 794.159 515.231 794.914 516.193ZM841.453 515.899C841.453 516.7 841.07 517.119 840.603 516.83C840.136 516.541 840.012 515.886 840.329 515.374C841.137 514.066 841.453 514.213 841.453 515.899ZM822.786 516.943C821.411 517.729 819.836 518.372 819.286 518.372C818.736 518.372 819.411 517.729 820.786 516.943C822.161 516.157 823.736 515.514 824.286 515.514C824.836 515.514 824.161 516.157 822.786 516.943ZM776.183 517.276C776.466 517.735 776.063 518.11 775.286 518.11C774.509 518.11 774.106 517.735 774.389 517.276C774.672 516.818 775.076 516.443 775.286 516.443C775.496 516.443 775.9 516.818 776.183 517.276ZM774.286 522.443C773.946 522.993 772.907 523.411 771.977 523.373C770.598 523.315 770.656 523.144 772.286 522.443C774.962 521.293 774.997 521.293 774.286 522.443ZM829.286 522.443C829.626 522.993 829.427 523.443 828.845 523.443C828.263 523.443 827.786 522.993 827.786 522.443C827.786 521.893 827.984 521.443 828.227 521.443C828.47 521.443 828.946 521.893 829.286 522.443ZM785.36 529.139C785.223 530.071 784.476 531.006 783.699 531.215C782.594 531.512 782.613 531.364 783.786 530.534C785.119 529.591 785.119 529.47 783.786 529.443C782.453 529.416 782.453 529.305 783.786 528.443C785.718 527.194 785.65 527.164 785.36 529.139ZM846.168 528.995C846.509 529.885 846.341 530.286 845.775 529.936C845.231 529.6 844.786 528.902 844.786 528.384C844.786 526.946 845.503 527.263 846.168 528.995ZM856.2 530.429C855.553 531.076 855.215 530.738 855.215 529.443C855.215 528.148 855.553 527.81 856.2 528.457C856.848 529.105 856.848 529.781 856.2 530.429ZM807.786 529.443C806.961 529.976 805.836 530.412 805.286 530.412C804.736 530.412 804.961 529.976 805.786 529.443C806.611 528.91 807.736 528.474 808.286 528.474C808.836 528.474 808.611 528.91 807.786 529.443ZM844.168 529.995C844.509 530.885 844.341 531.286 843.775 530.936C843.231 530.6 842.786 530.877 842.786 531.551C842.786 532.225 842.55 532.541 842.262 532.253C841.772 531.762 842.663 528.443 843.286 528.443C843.443 528.443 843.84 529.141 844.168 529.995ZM781.286 530.443C780.946 530.993 780.132 531.436 779.477 531.428C778.761 531.418 778.885 531.025 779.786 530.443C781.707 529.201 782.053 529.201 781.286 530.443ZM1048.65 532.895C1057.17 535.903 1060.05 539.278 1061.76 548.294C1063.21 555.944 1061.42 565.218 1056.67 574.713C1049.74 588.537 1035.79 607.99 1018.84 627.443C1011.03 636.418 982.257 667.921 972.271 678.443C968.356 682.568 960.464 690.893 954.733 696.943C933.504 719.356 869.832 783.018 856.286 795.375C819.417 829.009 793.162 848.046 737.286 881.66C706.616 900.111 693.882 907.92 670.963 922.337C653.976 933.022 620.418 955.6 611.268 962.5C605.841 966.594 596.649 974.511 590.843 980.094C585.037 985.677 580.223 990.177 580.145 990.094C580.067 990.011 582.446 981.393 585.431 970.943C594.377 939.62 600.674 913.773 602.97 898.943C604.966 886.057 605.145 881.004 605.222 835.443C605.31 783.36 605.59 779.74 609.84 775.894C612.745 773.265 614.967 774.957 616.605 781.042C619.258 790.898 616.349 872.785 612.228 904.229C610.438 917.886 607.272 930.93 602.345 944.943C598.143 956.895 598.006 958.886 601.237 961.003C604.759 963.31 606.901 962.224 614.009 954.528C618.526 949.636 621.949 946.981 626.216 945.059C629.478 943.591 634.203 940.716 636.716 938.671C642.292 934.135 673.171 907.115 680.845 900.056C683.902 897.244 689.744 892.018 693.826 888.443C712.357 872.214 720.76 864.309 752.286 833.44C763.286 822.669 777.686 808.719 784.286 802.44C790.886 796.16 817.211 770.297 842.786 744.967C897.804 690.475 914.185 674.9 938.286 654.165C961.58 634.124 978.578 618.662 981.17 615.157C983.804 611.596 982.414 608.786 978.251 609.254C972.695 609.88 959.157 617.79 944.786 628.806C896.211 666.043 854.721 704.688 806.682 757.443C801.423 763.218 784.141 782.793 768.277 800.943C752.414 819.093 737.103 836.418 734.253 839.443C731.403 842.468 725.745 848.626 721.679 853.128C693.338 884.508 627.222 944.213 624.181 941.172C623.229 940.219 664.821 868.275 685.593 834.943C748.01 734.79 827.174 649.966 915.881 588.192C939.109 572.016 988.392 545.134 1010.3 536.689C1026.2 530.561 1038.57 529.337 1048.65 532.895ZM774.286 533.443C773.946 533.993 773.218 534.443 772.668 534.443C772.118 534.443 771.946 533.993 772.286 533.443C772.626 532.893 773.354 532.443 773.904 532.443C774.454 532.443 774.626 532.893 774.286 533.443ZM806.286 533.443C806.626 533.993 806.454 534.443 805.904 534.443C805.354 534.443 804.626 533.993 804.286 533.443C803.946 532.893 804.118 532.443 804.668 532.443C805.218 532.443 805.946 532.893 806.286 533.443ZM855.771 533.526C855.779 532.747 856.075 532.399 856.429 532.752C857.301 533.624 854.776 536.555 853.716 535.9C853.253 535.613 853.141 534.681 853.469 533.827C853.95 532.573 854.226 532.531 854.91 533.609C855.601 534.699 855.758 534.684 855.771 533.526ZM775.286 536.443C774.946 536.993 774.132 537.436 773.477 537.428C772.761 537.418 772.885 537.025 773.786 536.443C775.707 535.201 776.053 535.201 775.286 536.443ZM788.286 537.443C787.946 537.993 787.132 538.436 786.477 538.428C785.761 538.418 785.885 538.025 786.786 537.443C788.707 536.201 789.053 536.201 788.286 537.443ZM851.469 542.631C851.15 543.428 850.913 543.191 850.865 542.026C850.822 540.972 851.058 540.382 851.39 540.714C851.722 541.046 851.758 541.909 851.469 542.631ZM765.131 544.986C764.805 545.835 764.324 546.315 764.062 546.053C763.8 545.791 763.882 545.096 764.245 544.51C765.231 542.914 765.807 543.224 765.131 544.986ZM837.712 544.854C838.533 545.844 838.563 546.463 837.81 546.928C837.219 547.293 836.86 546.996 837.011 546.267C837.162 545.539 836.69 545.067 835.962 545.218C835.233 545.369 834.922 545.031 835.271 544.468C836.094 543.135 836.314 543.17 837.712 544.854ZM842.944 550.243C841.249 552.384 839.085 554.767 838.136 555.539C837.186 556.311 838.407 554.428 840.848 551.355C843.289 548.281 845.453 545.898 845.657 546.059C845.86 546.219 844.64 548.102 842.944 550.243ZM828.22 552.55C827.75 553.31 828.281 553.428 829.911 552.926C832.587 552.102 832.413 552.345 828.63 554.707C826.864 555.81 826.036 555.96 826.158 555.154C826.385 553.662 827.728 551.443 828.404 551.443C828.679 551.443 828.596 551.941 828.22 552.55ZM767.91 554.71C766.922 555.69 766.808 555.575 767.35 554.15C767.726 553.164 768.285 552.609 768.593 552.917C768.901 553.224 768.594 554.031 767.91 554.71ZM847.786 552.821C847.786 553.028 846.999 553.816 846.036 554.571C844.45 555.814 844.415 555.779 845.658 554.193C846.965 552.527 847.786 551.998 847.786 552.821ZM767.973 557.306C768.622 556.368 768.707 556.684 768.244 558.318C767.744 560.086 767.894 560.494 768.833 559.914C769.706 559.375 769.846 559.537 769.288 560.44C768.658 561.46 768.185 561.342 767.133 559.903C766.392 558.89 765.822 557.584 765.865 557.002C765.908 556.419 766.188 556.556 766.486 557.306C766.944 558.457 767.175 558.457 767.973 557.306ZM772.786 560.836C772.786 561.052 772.088 561.497 771.234 561.825C770.344 562.166 769.943 561.998 770.293 561.432C770.88 560.481 772.786 560.026 772.786 560.836ZM776.786 560.836C776.786 561.052 776.088 561.497 775.234 561.825C774.344 562.166 773.943 561.998 774.293 561.432C774.88 560.481 776.786 560.026 776.786 560.836ZM367.578 563.012C376.824 564.895 392.727 572.238 404.7 580.153C413.641 586.064 431.074 602.623 432.247 606.32C432.986 608.648 430.405 612.254 429.291 610.451C428.948 609.896 429.257 609.429 429.977 609.411C430.813 609.391 430.619 608.874 429.439 607.98C428.423 607.21 426.887 606.851 426.025 607.182C425.103 607.535 424.716 607.366 425.083 606.771C425.427 606.214 423.814 604.751 421.497 603.52C419.181 602.289 415.036 599.712 412.286 597.795C403.762 591.851 397.573 588.588 395.982 589.198C395.049 589.556 394.715 589.367 395.121 588.71C395.9 587.45 390.066 585.152 388.517 586.109C387.866 586.512 387.783 586.257 388.296 585.428C388.883 584.477 388.663 584.276 387.515 584.717C386.635 585.054 385.774 584.924 385.601 584.426C385.159 583.157 372.961 580.164 370.671 580.763C369.633 581.034 368.998 580.908 369.262 580.483C369.999 579.29 361.673 578.443 349.205 578.443C342.722 578.443 337.64 578.871 337.284 579.447C336.943 579.999 335.592 580.181 334.282 579.853C332.972 579.524 331.364 579.586 330.709 579.99C330.055 580.395 328.113 580.811 326.395 580.916C321.572 581.209 305.786 586.635 306.482 587.76C306.819 588.306 306.606 588.45 306.009 588.081C304.889 587.388 297.786 590.308 297.786 591.462C297.786 591.818 297.21 592.11 296.505 592.11C294.353 592.11 289.762 595.595 290.449 596.707C290.834 597.329 290.61 597.452 289.896 597.011C288.454 596.12 280.705 601.844 272.221 610.065C264.002 618.03 260.601 622.728 261.361 625.062C261.816 626.456 261.724 626.592 261.005 625.586C259.838 623.953 258.518 625.581 259.318 627.666C259.614 628.438 258.828 629.941 257.571 631.006L255.286 632.943L257.197 630.687C258.247 629.446 258.871 628.194 258.582 627.906C257.503 626.827 254.951 632.092 255.858 633.525C256.351 634.305 256.749 635.393 256.74 635.943C256.732 636.493 256.229 636.088 255.621 635.042C254.567 633.226 254.46 633.249 253.234 635.539C252.303 637.28 252.249 638.296 253.038 639.246C253.85 640.225 253.774 640.478 252.739 640.249C250.79 639.819 247.616 646.383 248.293 649.443C248.663 651.113 248.548 651.496 247.948 650.597C247.277 649.591 246.775 650.035 245.969 652.347C245.376 654.05 245.147 655.443 245.46 655.443C245.774 655.443 245.588 656.006 245.046 656.693C244.505 657.381 243.757 659.218 243.384 660.777C242.867 662.938 243.012 663.431 243.996 662.855C244.705 662.439 244.394 663.115 243.304 664.356C241.778 666.094 241.318 668.076 241.304 672.969C241.287 679.028 241.221 679.2 239.884 676.655C237.925 672.924 239.014 635.736 241.389 625.277C245 609.375 251.686 600.753 264.56 595.393C273.383 591.72 286.354 585.358 303.786 576.153C328.429 563.141 348.203 559.068 367.578 563.012ZM831.786 561.836C831.786 562.052 831.088 562.497 830.234 562.825C829.344 563.166 828.943 562.998 829.293 562.432C829.88 561.481 831.786 561.026 831.786 561.836ZM814.024 563.75C812.808 564.293 811.34 564.293 810.37 563.75C809.168 563.077 809.692 562.843 812.403 562.843C815.417 562.843 815.701 563.002 814.024 563.75ZM809.515 565.047C809.183 565.379 808.32 565.415 807.599 565.126C806.801 564.807 807.038 564.57 808.203 564.522C809.257 564.479 809.847 564.715 809.515 565.047ZM826.786 564.836C826.786 565.052 826.088 565.497 825.234 565.825C824.344 566.166 823.943 565.998 824.293 565.432C824.88 564.481 826.786 564.026 826.786 564.836ZM817.914 571.193C819.157 572.779 819.122 572.814 817.536 571.571C815.87 570.264 815.341 569.443 816.164 569.443C816.371 569.443 817.159 570.231 817.914 571.193ZM778.185 573.607C777.93 574.019 777.061 574.102 776.254 573.792C774.218 573.011 774.42 572.54 776.717 572.713C777.779 572.793 778.439 573.195 778.185 573.607ZM811.515 573.047C811.183 573.379 810.32 573.415 809.599 573.126C808.801 572.807 809.038 572.57 810.203 572.522C811.257 572.479 811.847 572.715 811.515 573.047ZM506.339 578.358C506.028 578.861 506.238 579.502 506.805 579.783C507.372 580.063 507.29 580.186 506.623 580.055C505.038 579.745 504.278 577.443 505.762 577.443C506.39 577.443 506.65 577.855 506.339 578.358ZM539.135 580.276C540.55 581.84 540.573 582.11 539.29 582.11C538.463 582.11 538.007 581.889 538.277 581.618C538.548 581.348 538.267 580.523 537.655 579.785C535.972 577.757 537.235 578.176 539.135 580.276ZM534.786 579.836C534.786 580.052 534.088 580.497 533.234 580.825C532.344 581.166 531.943 580.998 532.293 580.432C532.88 579.481 534.786 579.026 534.786 579.836ZM497.286 581.443C496.946 581.993 496.132 582.436 495.477 582.428C494.761 582.418 494.885 582.025 495.786 581.443C497.707 580.201 498.053 580.201 497.286 581.443ZM373.515 582.047C373.183 582.379 372.32 582.415 371.599 582.126C370.801 581.807 371.038 581.57 372.203 581.522C373.257 581.479 373.847 581.715 373.515 582.047ZM490.185 587.607C489.93 588.019 489.061 588.102 488.254 587.792C486.218 587.011 486.42 586.54 488.717 586.713C489.779 586.793 490.439 587.195 490.185 587.607ZM485.148 588.943C484.831 589.768 484.115 590.443 483.557 590.443C482.971 590.443 483.068 589.808 483.786 588.943C484.471 588.118 485.187 587.443 485.377 587.443C485.567 587.443 485.464 588.118 485.148 588.943ZM478.786 593.836C478.786 594.052 478.088 594.497 477.234 594.825C476.344 595.166 475.943 594.998 476.293 594.432C476.88 593.481 478.786 593.026 478.786 593.836ZM478.279 598.432C478.629 598.998 478.228 599.166 477.338 598.825C475.606 598.16 475.289 597.443 476.727 597.443C477.245 597.443 477.943 597.888 478.279 598.432ZM469.148 602.943C468.831 603.768 468.115 604.443 467.557 604.443C466.971 604.443 467.068 603.808 467.786 602.943C468.471 602.118 469.187 601.443 469.377 601.443C469.567 601.443 469.464 602.118 469.148 602.943ZM450.908 612.118C449.729 614.145 449.445 613.496 450.41 610.982C450.752 610.088 451.244 609.567 451.501 609.825C451.759 610.082 451.492 611.114 450.908 612.118ZM434.381 611.598C434.824 612.313 434.656 612.481 433.941 612.038C433.306 611.646 432.786 611.877 432.786 612.551C432.786 613.225 432.516 613.506 432.186 613.176C431.614 612.604 432.484 610.443 433.286 610.443C433.496 610.443 433.989 610.963 434.381 611.598ZM436.593 615.969C436.285 616.277 435.726 615.722 435.35 614.736C434.808 613.311 434.922 613.196 435.91 614.176C436.594 614.855 436.901 615.662 436.593 615.969ZM464.224 614.547C464.496 614.82 463.638 615.043 462.317 615.043C460.996 615.043 460.113 614.723 460.355 614.332C460.822 613.576 463.395 613.719 464.224 614.547ZM975.382 615.948C974.335 616.74 970.735 620.002 967.382 623.196C964.029 626.389 958.586 631.239 955.286 633.972C923.551 660.256 889.207 692.277 838.286 743.056C813.86 767.413 766.458 813.468 749.839 828.989L742.393 835.943L751.839 824.947C786.074 785.099 836.159 731.041 865.443 702.333C897.323 671.08 951.541 626.961 970.373 616.948C975.495 614.224 978.435 613.637 975.382 615.948ZM490.243 619.374C490.56 619.886 490.292 620.63 489.648 621.028C488.95 621.46 488.744 621.32 489.138 620.683C489.501 620.095 489.233 619.386 488.542 619.107C487.643 618.745 487.625 618.578 488.477 618.522C489.132 618.479 489.927 618.862 490.243 619.374ZM541.91 620.71C540.922 621.69 540.808 621.575 541.35 620.15C541.726 619.164 542.285 618.609 542.593 618.917C542.901 619.224 542.594 620.031 541.91 620.71ZM449.786 619.821C449.786 620.028 448.998 620.816 448.036 621.571C446.45 622.814 446.415 622.779 447.658 621.193C448.965 619.527 449.786 618.998 449.786 619.821ZM469.786 620.826C469.786 621.037 468.885 621.445 467.785 621.733C466.684 622.021 466.035 621.848 466.344 621.35C466.882 620.479 469.786 620.037 469.786 620.826ZM500.515 621.047C500.183 621.379 499.32 621.415 498.599 621.126C497.801 620.807 498.038 620.57 499.203 620.522C500.257 620.479 500.847 620.715 500.515 621.047ZM550.131 622.986C549.805 623.835 549.324 624.315 549.062 624.053C548.8 623.791 548.882 623.096 549.245 622.51C550.231 620.914 550.807 621.224 550.131 622.986ZM439.469 624.631C439.15 625.428 438.913 625.191 438.865 624.026C438.822 622.972 439.058 622.382 439.39 622.714C439.722 623.046 439.758 623.909 439.469 624.631ZM454.91 626.71C453.922 627.69 453.808 627.575 454.35 626.15C454.726 625.164 455.285 624.609 455.593 624.917C455.901 625.224 455.594 626.031 454.91 626.71ZM550.286 626.443C551.605 627.01 551.775 627.321 550.786 627.357C549.961 627.388 548.611 626.976 547.786 626.443C545.958 625.262 547.537 625.262 550.286 626.443ZM517.515 638.047C517.183 638.379 516.32 638.415 515.599 638.126C514.801 637.807 515.038 637.57 516.203 637.522C517.257 637.479 517.847 637.715 517.515 638.047ZM499.289 641.438C498.951 641.985 497.687 642.915 496.48 643.505C494.59 644.429 494.632 644.294 496.786 642.532C499.586 640.242 500.192 639.977 499.289 641.438ZM576.286 642.443C577.281 643.543 577.871 644.443 577.596 644.443C577.321 644.443 576.281 643.543 575.286 642.443C574.291 641.343 573.701 640.443 573.976 640.443C574.251 640.443 575.291 641.343 576.286 642.443ZM439.74 643.529C439.126 644.676 438.371 645.362 438.062 645.053C437.754 644.744 438.07 643.805 438.766 642.967C440.564 640.801 441.05 641.081 439.74 643.529ZM553.279 642.432C553.629 642.998 553.228 643.166 552.338 642.825C550.606 642.16 550.289 641.443 551.727 641.443C552.245 641.443 552.943 641.888 553.279 642.432ZM567.289 646.273C566.982 646.58 565.73 645.79 564.508 644.517L562.286 642.202L565.067 643.958C566.597 644.924 567.597 645.965 567.289 646.273ZM562.03 645.107C561.339 645.386 561.025 646.02 561.332 646.517C561.639 647.014 561.154 647.138 560.254 646.792C558.945 646.29 558.885 645.996 559.952 645.319C560.686 644.854 561.736 644.502 562.286 644.537C562.836 644.572 562.721 644.829 562.03 645.107ZM481.712 647.854C482.614 648.941 482.585 649.437 481.585 650.014C480.87 650.426 480.62 650.395 481.027 649.945C481.435 649.495 481.267 648.523 480.655 647.785C480.042 647.047 479.766 646.443 480.041 646.443C480.316 646.443 481.068 647.078 481.712 647.854ZM568.393 649.968C568.511 650.775 568.288 651.633 567.897 651.874C567.506 652.116 567.186 651.233 567.186 649.912C567.186 647.398 568.021 647.437 568.393 649.968ZM573.279 650.432C573.629 650.998 573.228 651.166 572.338 650.825C570.606 650.16 570.289 649.443 571.727 649.443C572.245 649.443 572.943 649.888 573.279 650.432ZM476.786 651.943C476.786 652.1 476.186 652.459 475.453 652.741C474.719 653.022 474.119 652.663 474.119 651.943C474.119 651.223 474.719 650.864 475.453 651.145C476.186 651.427 476.786 651.786 476.786 651.943ZM572.453 653.899C572.453 654.7 572.07 655.119 571.603 654.83C571.136 654.541 571.012 653.886 571.329 653.374C572.137 652.066 572.453 652.213 572.453 653.899ZM577.286 654.443C578.281 655.543 578.871 656.443 578.596 656.443C578.321 656.443 577.281 655.543 576.286 654.443C575.291 653.343 574.701 652.443 574.976 652.443C575.251 652.443 576.291 653.343 577.286 654.443ZM551.515 654.047C551.183 654.379 550.32 654.415 549.599 654.126C548.801 653.807 549.038 653.57 550.203 653.522C551.257 653.479 551.847 653.715 551.515 654.047ZM590.786 659.575C590.786 659.988 590.266 660.646 589.631 661.038C588.924 661.476 588.748 661.313 589.178 660.618C589.563 659.995 589.383 658.463 588.777 657.214C587.721 655.037 587.74 655.023 589.231 656.884C590.086 657.952 590.786 659.163 590.786 659.575ZM428.786 657.884C428.786 658.127 428.336 658.603 427.786 658.943C427.236 659.283 426.786 659.084 426.786 658.502C426.786 657.92 427.236 657.443 427.786 657.443C428.336 657.443 428.786 657.641 428.786 657.884ZM437.405 659.967C436.515 660.857 435.786 661.194 435.786 660.714C435.786 659.582 438.022 657.346 438.588 657.912C438.828 658.152 438.296 659.076 437.405 659.967ZM481.453 658.899C481.453 659.7 481.07 660.119 480.603 659.83C480.136 659.541 480.012 658.886 480.329 658.374C481.137 657.066 481.453 657.213 481.453 658.899ZM566.914 659.193C568.157 660.779 568.122 660.814 566.536 659.571C564.87 658.264 564.341 657.443 565.164 657.443C565.371 657.443 566.159 658.231 566.914 659.193ZM475.786 660.836C475.786 661.052 475.088 661.497 474.234 661.825C473.344 662.166 472.943 661.998 473.293 661.432C473.88 660.481 475.786 660.026 475.786 660.836ZM459.786 663.943C459.101 664.768 458.06 665.443 457.472 665.443C456.885 665.443 457.277 664.782 458.345 663.975C460.853 662.077 461.343 662.067 459.786 663.943ZM423.046 665.455C424 666.526 423.84 666.512 422.349 665.395C420.63 664.106 420.478 664.121 421.003 665.526C421.336 666.416 421.073 667.11 420.405 667.11C419.75 667.11 419.215 666.339 419.215 665.396C419.215 663.409 421.251 663.44 423.046 665.455ZM580.131 665.986C579.805 666.835 579.324 667.315 579.062 667.053C578.8 666.791 578.882 666.096 579.245 665.51C580.231 663.914 580.807 664.224 580.131 665.986ZM464.786 668.443C464.786 668.993 464.588 669.443 464.345 669.443C464.102 669.443 463.626 668.993 463.286 668.443C462.946 667.893 463.145 667.443 463.727 667.443C464.309 667.443 464.786 667.893 464.786 668.443ZM584.317 669.193C584.155 671.281 581.86 675.466 581.816 673.752C581.8 673.097 582.243 672.278 582.802 671.933C583.361 671.587 583.56 670.886 583.243 670.374C582.927 669.862 582.946 668.993 583.286 668.443C584.18 666.996 584.47 667.207 584.317 669.193ZM574.2 671.429C573.553 672.076 573.215 671.738 573.215 670.443C573.215 669.148 573.553 668.81 574.2 669.457C574.848 670.105 574.848 670.781 574.2 671.429ZM428.602 671.947C427.975 673.325 427.273 674.263 427.043 674.033C426.575 673.566 428.603 669.443 429.3 669.443C429.544 669.443 429.23 670.57 428.602 671.947ZM446.151 674.662C445.292 676.051 443.84 674.467 444.469 672.827C444.934 671.615 445.238 671.557 445.859 672.561C446.296 673.269 446.428 674.214 446.151 674.662ZM416.582 676.398C415.203 678.607 414.231 678.332 415.131 675.986C415.457 675.137 416.191 674.443 416.763 674.443C417.421 674.443 417.355 675.16 416.582 676.398ZM430.908 684.118C429.729 686.145 429.445 685.496 430.41 682.982C430.752 682.088 431.244 681.567 431.501 681.825C431.759 682.082 431.492 683.114 430.908 684.118ZM428.286 689.443C427.433 691.093 426.184 692.436 425.51 692.428C424.592 692.416 424.607 692.209 425.57 691.598C426.307 691.13 426.586 689.965 426.226 688.863C425.772 687.477 425.863 687.314 426.553 688.277C427.329 689.361 427.621 689.315 428.115 688.027C428.45 687.156 428.974 686.443 429.28 686.443C429.587 686.443 429.139 687.793 428.286 689.443ZM439.786 689.821C439.786 690.028 438.998 690.816 438.036 691.571C436.45 692.814 436.415 692.779 437.658 691.193C438.965 689.527 439.786 688.998 439.786 689.821ZM408.131 692.986C407.805 693.835 407.324 694.315 407.062 694.053C406.8 693.791 406.882 693.096 407.245 692.51C408.231 690.914 408.807 691.224 408.131 692.986ZM422.843 697.336C421.887 699.122 418.786 702.09 418.786 701.218C418.786 700.96 419.677 699.722 420.765 698.467C421.854 697.212 422.459 695.723 422.111 695.159C421.746 694.569 421.968 694.438 422.634 694.849C423.415 695.332 423.483 696.141 422.843 697.336ZM410.908 705.118C409.729 707.145 409.445 706.496 410.41 703.982C410.752 703.088 411.244 702.567 411.501 702.825C411.759 703.082 411.492 704.114 410.908 705.118ZM414.407 705.064C414.533 705.923 414.357 706.347 414.015 706.006C413.674 705.664 413.292 704.682 413.165 703.822C413.039 702.963 413.215 702.539 413.557 702.88C413.898 703.222 414.28 704.204 414.407 705.064ZM428.131 704.986C427.805 705.835 427.324 706.315 427.062 706.053C426.8 705.791 426.882 705.096 427.245 704.51C428.231 702.914 428.807 703.224 428.131 704.986ZM406.297 711.443L408.286 713.943L406.036 712.038C404.799 710.99 403.786 709.678 403.786 709.121C403.786 708.565 403.903 708.297 404.047 708.526C404.19 708.756 405.203 710.068 406.297 711.443ZM356.786 711.836C356.786 712.052 356.088 712.497 355.234 712.825C354.344 713.166 353.943 712.998 354.293 712.432C354.88 711.481 356.786 711.026 356.786 711.836ZM315.51 714.423C315.592 715.512 315.314 716.617 314.893 716.877C314.305 717.24 314.171 714.287 314.703 712.693C314.98 711.861 315.381 712.722 315.51 714.423ZM359.288 714.684C359.738 714.277 359.769 714.527 359.357 715.242C358.78 716.242 358.284 716.271 357.197 715.369C356.421 714.725 355.786 713.973 355.786 713.698C355.786 713.423 356.39 713.699 357.128 714.312C357.866 714.924 358.838 715.092 359.288 714.684ZM361.357 717.429C361.357 718.603 360.99 719.047 360.459 718.516C359.965 718.022 359.863 717.128 360.232 716.53C361.172 715.009 361.357 715.156 361.357 717.429ZM326.286 717.443C325.946 717.993 325.132 718.436 324.477 718.428C323.761 718.418 323.885 718.025 324.786 717.443C326.707 716.201 327.053 716.201 326.286 717.443ZM349.786 719.013C349.786 719.288 348.886 719.032 347.786 718.443C346.686 717.854 345.786 717.148 345.786 716.873C345.786 716.598 346.686 716.854 347.786 717.443C348.886 718.032 349.786 718.738 349.786 719.013ZM388.312 719.25C388.005 719.558 387.198 719.251 386.519 718.567C385.539 717.579 385.654 717.465 387.079 718.007C388.065 718.383 388.62 718.942 388.312 719.25ZM247.469 720.631C247.15 721.428 246.913 721.191 246.865 720.026C246.822 718.972 247.058 718.382 247.39 718.714C247.722 719.046 247.758 719.909 247.469 720.631ZM355.286 723.443C356.281 724.543 356.871 725.443 356.596 725.443C356.321 725.443 355.281 724.543 354.286 723.443C353.291 722.343 352.701 721.443 352.976 721.443C353.251 721.443 354.291 722.343 355.286 723.443ZM247.555 728.016C248.4 728.634 248.795 729.62 248.432 730.207C247.425 731.837 249.581 736.688 250.939 735.849C251.637 735.417 251.825 735.571 251.412 736.239C250.648 737.475 254.142 744.659 255.146 743.917C255.498 743.656 255.579 743.725 255.326 744.07C254.304 745.462 260.402 754.661 267.674 762.695C269.538 764.756 270.388 765.133 271.052 764.195C271.706 763.27 271.822 763.335 271.493 764.443C270.962 766.229 273.488 769.421 275.13 769.039C275.766 768.892 275.953 768.958 275.545 769.187C275.137 769.416 275.471 770.271 276.287 771.087C277.103 771.903 278.193 772.309 278.709 771.99C279.225 771.671 279.906 771.828 280.222 772.339C280.538 772.85 279.706 773.148 278.373 773.002C275.119 772.645 263.843 764.49 259.296 759.206C252.939 751.818 244.477 731.591 244.902 724.799C245.008 723.111 245.063 723.121 245.519 724.918C245.794 726.004 246.711 727.399 247.555 728.016ZM320.286 726.443C319.802 727.226 319.227 727.284 318.56 726.617C318.01 726.067 317.887 725.089 318.286 724.443C318.77 723.66 319.345 723.602 320.012 724.269C320.562 724.819 320.685 725.797 320.286 726.443ZM368.706 727.443C369.828 729.8 369.808 729.832 368.341 728.002C367.486 726.934 366.786 725.622 366.786 725.085C366.786 723.815 367.248 724.382 368.706 727.443ZM359.279 727.432C359.629 727.998 359.228 728.166 358.338 727.825C356.606 727.16 356.289 726.443 357.727 726.443C358.245 726.443 358.943 726.888 359.279 727.432ZM380.786 726.821C380.786 727.028 379.998 727.816 379.036 728.571C377.45 729.814 377.415 729.779 378.658 728.193C379.965 726.527 380.786 725.998 380.786 726.821ZM571.91 730.71C570.922 731.69 570.808 731.575 571.35 730.15C571.726 729.164 572.285 728.609 572.593 728.917C572.901 729.224 572.594 730.031 571.91 730.71ZM318.469 731.631C318.15 732.428 317.913 732.191 317.865 731.026C317.822 729.972 318.058 729.382 318.39 729.714C318.722 730.046 318.758 730.909 318.469 731.631ZM413.191 732.829C413.544 731.909 414.112 731.435 414.452 731.776C414.792 732.116 414.561 733.009 413.937 733.761C413.314 734.512 413.137 735.495 413.545 735.945C413.952 736.395 413.726 736.441 413.041 736.048C412.357 735.654 411.32 734.344 410.736 733.137C409.764 731.126 409.795 731.091 411.113 732.722C412.438 734.364 412.599 734.372 413.191 732.829ZM375.286 733.443C375.626 733.993 375.427 734.443 374.845 734.443C374.263 734.443 373.786 733.993 373.786 733.443C373.786 732.893 373.984 732.443 374.227 732.443C374.47 732.443 374.946 732.893 375.286 733.443ZM364.786 734.836C364.786 735.052 364.088 735.497 363.234 735.825C362.344 736.166 361.943 735.998 362.293 735.432C362.88 734.481 364.786 734.026 364.786 734.836ZM432.707 737.815C432.658 738.518 432.437 738.469 432.122 737.687C431.843 736.996 431.279 736.639 430.867 736.893C430.456 737.147 430.119 736.707 430.119 735.915C430.119 734.828 430.447 734.746 431.453 735.581C432.186 736.19 432.75 737.195 432.707 737.815ZM566.52 738.356C563.548 742.16 563.007 742.462 562.33 740.698C561.973 739.766 562 739.324 562.391 739.715C563.247 740.571 565.953 738.521 565.319 737.496C565.074 737.1 565.522 736.776 566.314 736.776C567.481 736.776 567.52 737.076 566.52 738.356ZM577.131 737.986C576.805 738.835 576.324 739.315 576.062 739.053C575.8 738.791 575.882 738.096 576.245 737.51C577.231 735.914 577.807 736.224 577.131 737.986ZM1197.79 743.487C1206.97 744.94 1214.28 748.718 1217.59 753.722C1219.8 757.065 1220.28 758.904 1220.23 763.874C1220.17 771.189 1218.44 774.804 1211.41 782.27C1202.73 791.489 1190.81 799.479 1170.79 809.506C1156.41 816.705 1145.32 821.204 1100.79 837.923C973.589 885.671 860.695 930.519 811.524 952.836C764.508 974.174 719.009 999.481 677.485 1027.39C641.815 1051.36 622.477 1066.33 590.879 1094.44C570.48 1112.58 560.108 1120.78 552.387 1124.85C544.398 1129.07 544.705 1129.47 542.795 1112.44C539.244 1080.78 542.256 1065.36 556.421 1042.66C563.053 1032.03 606.811 990.553 637.786 965.532C695.628 918.807 757.103 880.539 837.249 841.366C913.618 804.039 991.442 775.226 1066.29 756.568C1087.71 751.228 1116.3 746.326 1141.79 743.623C1153.8 742.349 1190.04 742.261 1197.79 743.487ZM559.786 745.788C559.786 745.978 558.773 746.99 557.536 748.038L555.286 749.943L557.191 747.693C558.981 745.579 559.786 744.988 559.786 745.788ZM265.009 754.805C265.678 754.392 265.806 754.602 265.341 755.354C264.775 756.27 264.115 756.146 262.687 754.853C261.641 753.907 260.786 752.653 260.786 752.066C260.786 751.478 261.492 752.006 262.354 753.237C263.217 754.469 264.412 755.174 265.009 754.805ZM551.148 755.943C550.52 757.577 548.786 758.006 548.786 756.526C548.786 755.767 549.487 755.251 551.505 754.522C551.625 754.479 551.464 755.118 551.148 755.943ZM566.515 755.047C566.183 755.379 565.32 755.415 564.599 755.126C563.801 754.807 564.038 754.57 565.203 754.522C566.257 754.479 566.847 754.715 566.515 755.047ZM318.168 757.995C318.509 758.885 318.341 759.286 317.775 758.936C317.231 758.6 316.786 757.902 316.786 757.384C316.786 755.946 317.503 756.263 318.168 757.995ZM309.786 758.943C309.786 759.768 309.35 760.443 308.817 760.443C308.285 760.443 308.108 759.768 308.424 758.943C308.741 758.118 309.177 757.443 309.393 757.443C309.609 757.443 309.786 758.118 309.786 758.943ZM559.786 757.821C559.786 758.028 558.998 758.816 558.036 759.571C556.45 760.814 556.415 760.779 557.658 759.193C558.965 757.527 559.786 756.998 559.786 757.821ZM270.181 760.613C269.695 761.4 270.003 761.574 271.122 761.144C272.037 760.793 272.786 760.957 272.786 761.509C272.786 762.676 268.234 762.261 267.074 760.987C266.641 760.512 266.817 760.427 267.467 760.799C268.116 761.171 268.93 761.018 269.276 760.459C269.621 759.9 270.129 759.443 270.404 759.443C270.679 759.443 270.579 759.969 270.181 760.613ZM543.91 764.71C542.922 765.69 542.808 765.575 543.35 764.15C543.726 763.164 544.285 762.609 544.593 762.917C544.901 763.224 544.594 764.031 543.91 764.71ZM554.786 763.821C554.786 764.028 553.998 764.816 553.036 765.571C551.45 766.814 551.415 766.779 552.658 765.193C553.965 763.527 554.786 762.998 554.786 763.821ZM326.91 770.71C325.922 771.69 325.808 771.575 326.35 770.15C326.726 769.164 327.285 768.609 327.593 768.917C327.901 769.224 327.594 770.031 326.91 770.71ZM549.29 771.571C548.992 772.349 547.779 773.591 546.595 774.33C544.589 775.583 544.608 775.471 546.864 772.691C549.402 769.563 550.202 769.194 549.29 771.571ZM316.681 774.247C317.309 775.42 317.294 776.557 316.64 777.497C315.775 778.74 315.696 778.733 316.075 777.443C316.317 776.618 316.111 775.155 315.616 774.193C315.121 773.231 314.941 772.443 315.216 772.443C315.491 772.443 316.15 773.255 316.681 774.247ZM558.469 774.631C558.15 775.428 557.913 775.191 557.865 774.026C557.822 772.972 558.058 772.382 558.39 772.714C558.722 773.046 558.758 773.909 558.469 774.631ZM329.707 777.728C329.648 778.637 329.501 778.627 329.122 777.687C328.843 776.996 328.251 776.656 327.805 776.931C327.36 777.206 326.734 776.749 326.413 775.914C325.939 774.678 326.197 774.593 327.809 775.455C328.896 776.037 329.75 777.06 329.707 777.728ZM298.279 778.432C298.629 778.998 298.228 779.166 297.338 778.825C295.606 778.16 295.289 777.443 296.727 777.443C297.245 777.443 297.943 777.888 298.279 778.432ZM320.202 779.084C320.729 780.457 320.582 780.519 319.309 779.462C317.574 778.022 317.393 777.443 318.679 777.443C319.17 777.443 319.855 778.182 320.202 779.084ZM301.228 781.35C301.537 781.848 300.888 782.021 299.787 781.733C297.452 781.122 297.157 780.443 299.227 780.443C300.02 780.443 300.92 780.851 301.228 781.35ZM332.168 781.995C332.509 782.885 332.341 783.286 331.775 782.936C331.231 782.6 330.786 781.902 330.786 781.384C330.786 779.946 331.503 780.263 332.168 781.995ZM382.755 787.943C382.755 788.493 382.319 788.268 381.786 787.443C381.253 786.618 380.817 785.493 380.817 784.943C380.817 784.393 381.253 784.618 381.786 785.443C382.319 786.268 382.755 787.393 382.755 787.943ZM423.286 788.443C424.139 790.093 424.612 791.443 424.337 791.443C424.062 791.443 423.139 790.093 422.286 788.443C421.433 786.793 420.96 785.443 421.235 785.443C421.51 785.443 422.433 786.793 423.286 788.443ZM326.349 788.672C326.69 789.014 326.266 789.19 325.407 789.064C324.547 788.937 323.565 788.555 323.223 788.214C322.882 787.872 323.306 787.696 324.165 787.822C325.025 787.949 326.007 788.331 326.349 788.672ZM408.766 788.967C408.07 789.805 407.295 790.285 407.043 790.034C406.35 789.34 407.759 787.443 408.967 787.443C409.631 787.443 409.555 788.017 408.766 788.967ZM525.168 789.995C525.509 790.885 525.341 791.286 524.775 790.936C524.231 790.6 523.786 789.902 523.786 789.384C523.786 787.946 524.503 788.263 525.168 789.995ZM376.076 792.444C376.364 793.545 376.191 794.194 375.693 793.885C375.194 793.577 374.786 792.677 374.786 791.884C374.786 789.814 375.465 790.109 376.076 792.444ZM339.655 794.309C339.069 794.51 337.856 793.942 336.96 793.046C335.454 791.54 335.535 791.512 338.026 792.68C339.508 793.374 340.241 794.108 339.655 794.309ZM405.786 791.821C405.786 792.028 404.998 792.816 404.036 793.571C402.45 794.814 402.415 794.779 403.658 793.193C404.965 791.527 405.786 790.998 405.786 791.821ZM417.2 794.429C416.553 795.076 416.215 794.738 416.215 793.443C416.215 792.148 416.553 791.81 417.2 792.457C417.848 793.105 417.848 793.781 417.2 794.429ZM542.582 793.398C541.911 794.473 541.168 795.158 540.931 794.922C540.503 794.493 542.682 791.443 543.417 791.443C543.629 791.443 543.254 792.323 542.582 793.398ZM395.786 793.443C396.611 793.976 396.836 794.412 396.286 794.412C395.736 794.412 394.611 793.976 393.786 793.443C392.961 792.91 392.736 792.474 393.286 792.474C393.836 792.474 394.961 792.91 395.786 793.443ZM390.822 795.899C390.158 796.7 389.944 797.938 390.347 798.649C390.923 799.667 390.802 799.686 389.775 798.735C388.714 797.753 388.71 797.24 389.751 795.985C390.455 795.137 391.256 794.443 391.531 794.443C391.806 794.443 391.487 795.098 390.822 795.899ZM551.286 796.443C550.946 796.993 550.218 797.443 549.668 797.443C549.118 797.443 548.946 796.993 549.286 796.443C549.626 795.893 550.354 795.443 550.904 795.443C551.454 795.443 551.626 795.893 551.286 796.443ZM323.595 800.063C322.377 801.28 321.848 801.353 321.25 800.384C320.748 799.573 320.885 799.386 321.639 799.852C322.293 800.256 323.069 799.868 323.417 798.963C323.756 798.08 324.288 797.612 324.6 797.924C324.912 798.235 324.459 799.198 323.595 800.063ZM381.689 798.362C382.701 799.003 382.379 799.208 380.535 799.097C379.129 799.012 378.186 798.605 378.441 798.193C379.043 797.218 379.958 797.266 381.689 798.362ZM440.065 800.483C439.772 801.604 439.309 802.299 439.035 802.026C438.494 801.485 439.45 798.443 440.161 798.443C440.402 798.443 440.359 799.361 440.065 800.483ZM529.453 799.899C529.453 800.7 529.07 801.119 528.603 800.83C528.136 800.541 528.012 799.886 528.329 799.374C529.137 798.066 529.453 798.213 529.453 799.899ZM519.691 801.193C518.955 802.156 518.28 803.075 518.193 803.236C518.105 803.397 517.758 802.811 517.421 801.934C517.084 801.057 517.223 800.595 517.728 800.907C518.234 801.22 518.93 801.018 519.276 800.459C519.621 799.9 520.158 799.443 520.467 799.443C520.777 799.443 520.428 800.23 519.691 801.193ZM542.168 800.995C542.509 801.885 542.341 802.286 541.775 801.936C541.231 801.6 540.786 800.902 540.786 800.384C540.786 798.946 541.503 799.263 542.168 800.995ZM333.786 800.884C333.786 801.127 333.336 801.603 332.786 801.943C332.236 802.283 331.786 802.084 331.786 801.502C331.786 800.92 332.236 800.443 332.786 800.443C333.336 800.443 333.786 800.641 333.786 800.884ZM598.798 884.943C597.2 901.013 593.848 916.157 583.359 954.7C574.381 987.691 568.944 1003.13 568.833 995.948C568.807 994.301 571.665 978.101 575.184 959.948C590.277 882.09 594.274 856.882 597.272 820.633C598.105 810.562 598.893 801.787 599.023 801.133C599.905 796.712 599.692 875.955 598.798 884.943ZM318.786 803.821C318.786 804.028 317.998 804.816 317.036 805.571C315.45 806.814 315.415 806.779 316.658 805.193C317.965 803.527 318.786 802.998 318.786 803.821ZM402.381 804.598C402.819 805.305 402.656 805.481 401.961 805.051C401.338 804.666 399.806 804.846 398.557 805.452C396.38 806.508 396.366 806.489 398.227 804.998C400.544 803.142 401.429 803.056 402.381 804.598ZM541.469 805.631C541.15 806.428 540.913 806.191 540.865 805.026C540.822 803.972 541.058 803.382 541.39 803.714C541.722 804.046 541.758 804.909 541.469 805.631ZM296.469 807.631C296.15 808.428 295.913 808.191 295.865 807.026C295.822 805.972 296.058 805.382 296.39 805.714C296.722 806.046 296.758 806.909 296.469 807.631ZM527.183 806.276C527.466 806.735 527.063 807.11 526.286 807.11C525.509 807.11 525.106 806.735 525.389 806.276C525.672 805.818 526.076 805.443 526.286 805.443C526.496 805.443 526.9 805.818 527.183 806.276ZM312.286 808.443C311.946 808.993 311.132 809.436 310.477 809.428C309.761 809.418 309.885 809.025 310.786 808.443C312.707 807.201 313.053 807.201 312.286 808.443ZM356.923 809.231C356.201 809.471 355.136 809.193 354.554 808.611C353.812 807.869 354.203 807.739 355.866 808.174C357.218 808.528 357.672 808.981 356.923 809.231ZM326.279 810.432C326.629 810.998 326.228 811.166 325.338 810.825C323.606 810.16 323.289 809.443 324.727 809.443C325.245 809.443 325.943 809.888 326.279 810.432ZM510.084 814.776C510.365 815.51 510.006 816.11 509.286 816.11C508.566 816.11 508.207 815.51 508.488 814.776C508.77 814.043 509.129 813.443 509.286 813.443C509.443 813.443 509.802 814.043 510.084 814.776ZM299.786 814.821C299.786 815.028 299.151 815.725 298.375 816.369C297.295 817.266 296.79 817.258 296.221 816.337C295.766 815.602 295.899 815.395 296.562 815.805C297.159 816.174 297.93 816.018 298.276 815.459C298.894 814.459 299.786 814.082 299.786 814.821ZM313.286 817.443C312.946 817.993 312.132 818.436 311.477 818.428C310.761 818.418 310.885 818.025 311.786 817.443C313.707 816.201 314.053 816.201 313.286 817.443ZM547.908 819.118C546.729 821.145 546.445 820.496 547.41 817.982C547.752 817.088 548.244 816.567 548.501 816.825C548.759 817.082 548.492 818.114 547.908 819.118ZM508.91 819.71C507.922 820.69 507.808 820.575 508.35 819.15C508.726 818.164 509.285 817.609 509.593 817.917C509.901 818.224 509.594 819.031 508.91 819.71ZM517.404 821.105C516.558 822.666 515.848 823.627 515.826 823.24C515.758 822.051 518.085 817.408 518.527 817.85C518.755 818.079 518.25 819.543 517.404 821.105ZM307.279 820.432C307.642 821.019 307.193 821.153 306.174 820.762C304.918 820.279 304.677 820.458 305.276 821.428C305.825 822.315 305.709 822.513 304.924 822.028C304.28 821.63 304.012 820.886 304.329 820.374C305.08 819.158 306.509 819.186 307.279 820.432ZM312.312 821.25C312.005 821.558 311.198 821.251 310.519 820.567C309.539 819.579 309.654 819.465 311.079 820.007C312.065 820.383 312.62 820.942 312.312 821.25ZM444.755 822.943C444.755 823.493 444.319 823.268 443.786 822.443C443.253 821.618 442.817 820.493 442.817 819.943C442.817 819.393 443.253 819.618 443.786 820.443C444.319 821.268 444.755 822.393 444.755 822.943ZM552.243 822.374C552.56 822.886 552.436 823.541 551.969 823.83C551.502 824.119 551.119 823.7 551.119 822.899C551.119 821.213 551.435 821.066 552.243 822.374ZM373.593 825.969C373.285 826.277 372.726 825.722 372.35 824.736C371.808 823.311 371.922 823.196 372.91 824.176C373.594 824.855 373.901 825.662 373.593 825.969ZM300.786 824.884C300.786 825.127 300.336 825.603 299.786 825.943C299.236 826.283 298.786 826.084 298.786 825.502C298.786 824.92 299.236 824.443 299.786 824.443C300.336 824.443 300.786 824.641 300.786 824.884ZM389.786 826.332C389.786 826.821 388.88 828.284 387.772 829.582L385.757 831.943L387.522 828.699C389.372 825.298 389.786 824.865 389.786 826.332ZM373.908 830.118C372.729 832.145 372.445 831.496 373.41 828.982C373.752 828.088 374.244 827.567 374.501 827.825C374.759 828.082 374.492 829.114 373.908 830.118ZM447.469 832.631C447.15 833.428 446.913 833.191 446.865 832.026C446.822 830.972 447.058 830.382 447.39 830.714C447.722 831.046 447.758 831.909 447.469 832.631ZM365.131 835.986C364.805 836.835 364.324 837.315 364.062 837.053C363.8 836.791 363.882 836.096 364.245 835.51C365.231 833.914 365.807 834.224 365.131 835.986ZM368.786 835.821C368.786 836.028 367.998 836.816 367.036 837.571C365.45 838.814 365.415 838.779 366.658 837.193C367.965 835.527 368.786 834.998 368.786 835.821ZM495.786 836.443C495.786 836.993 495.309 837.443 494.727 837.443C494.145 837.443 493.946 836.993 494.286 836.443C494.626 835.893 495.102 835.443 495.345 835.443C495.588 835.443 495.786 835.893 495.786 836.443ZM460.286 837.443C460.626 837.993 460.427 838.443 459.845 838.443C459.263 838.443 458.786 837.993 458.786 837.443C458.786 836.893 458.984 836.443 459.227 836.443C459.47 836.443 459.946 836.893 460.286 837.443ZM506.786 836.788C506.786 836.978 505.773 837.99 504.536 839.038L502.286 840.943L504.191 838.693C505.981 836.579 506.786 835.988 506.786 836.788ZM364.243 839.374C364.56 839.886 364.436 840.541 363.969 840.83C363.502 841.119 363.119 840.7 363.119 839.899C363.119 838.213 363.435 838.066 364.243 839.374ZM375.822 839.899C375.158 840.7 374.885 841.794 375.216 842.33C375.548 842.866 375.292 843.63 374.648 844.028C373.863 844.513 373.747 844.315 374.296 843.428C374.91 842.434 374.642 842.284 373.224 842.829C371.658 843.43 371.745 843.115 373.734 840.999C376.29 838.278 377.849 837.457 375.822 839.899ZM304.335 840.523C304.659 841.047 305.413 841.174 306.01 840.805C306.673 840.395 306.806 840.602 306.351 841.337C305.794 842.239 305.266 842.256 304.241 841.405C303.489 840.781 302.435 840.542 301.899 840.873C301.363 841.205 300.699 841.112 300.424 840.667C300.149 840.222 300.785 839.793 301.836 839.714C302.887 839.635 304.012 839.999 304.335 840.523ZM455.349 843.693L458.286 846.943L455.036 844.006C453.248 842.391 451.786 840.928 451.786 840.756C451.786 839.983 452.611 840.664 455.349 843.693ZM360.786 842.443C359.961 842.976 358.836 843.412 358.286 843.412C357.736 843.412 357.961 842.976 358.786 842.443C359.611 841.91 360.736 841.474 361.286 841.474C361.836 841.474 361.611 841.91 360.786 842.443ZM471.515 844.047C471.183 844.379 470.32 844.415 469.599 844.126C468.801 843.807 469.038 843.57 470.203 843.522C471.257 843.479 471.847 843.715 471.515 844.047ZM295.914 846.193C297.157 847.779 297.122 847.814 295.536 846.571C293.87 845.264 293.341 844.443 294.164 844.443C294.371 844.443 295.159 845.23 295.914 846.193ZM299.914 849.193C301.157 850.779 301.122 850.814 299.536 849.571C297.87 848.264 297.341 847.443 298.164 847.443C298.371 847.443 299.159 848.23 299.914 849.193ZM363.786 849.443C362.961 849.976 361.836 850.412 361.286 850.412C360.736 850.412 360.961 849.976 361.786 849.443C362.611 848.91 363.736 848.474 364.286 848.474C364.836 848.474 364.611 848.91 363.786 849.443ZM465.228 850.35C465.537 850.848 464.888 851.021 463.787 850.733C461.452 850.122 461.157 849.443 463.227 849.443C464.02 849.443 464.92 849.851 465.228 850.35ZM485.286 851.443C484.946 851.993 485.145 852.443 485.727 852.443C486.309 852.443 486.786 852.948 486.786 853.565C486.786 854.341 486.322 854.303 485.286 853.443C483.544 851.997 483.316 850.443 484.845 850.443C485.427 850.443 485.626 850.893 485.286 851.443ZM565.538 864.331C564.784 878.749 558.99 891.687 550.786 897.272C547.572 899.461 546.592 899.61 538.786 899.096C529.103 898.459 520.683 896.443 512.95 892.912C506.348 889.897 499.786 884.803 499.786 882.692C499.786 881.822 500.044 881.368 500.36 881.684C500.676 882 503.422 880.95 506.462 879.351C509.502 877.751 512.843 876.443 513.888 876.443C514.932 876.443 515.786 875.998 515.786 875.455C515.786 874.911 516.574 874.533 517.536 874.613C518.498 874.694 520.411 874.682 521.786 874.586C523.85 874.443 524.024 874.224 522.786 873.333C521.542 872.439 521.602 872.357 523.135 872.855C525.376 873.584 537.786 871.421 537.786 870.302C537.786 869.864 538.535 869.793 539.45 870.144C540.494 870.545 540.869 870.386 540.456 869.718C540.094 869.132 540.493 868.386 541.344 868.059C542.229 867.719 542.629 867.888 542.279 868.454C541.051 870.442 543.503 869.373 545.814 866.914C547.121 865.522 548.807 864.621 549.56 864.91C551.461 865.639 554.993 863.587 554.159 862.238C553.775 861.616 553.93 861.414 554.516 861.776C555.685 862.498 563.769 854.188 563.816 852.215C563.833 851.516 564.34 851.793 564.943 852.831C565.636 854.024 565.855 858.261 565.538 864.331ZM301.286 853.443C300.946 853.993 300.132 854.436 299.477 854.428C298.761 854.418 298.885 854.025 299.786 853.443C301.707 852.201 302.053 852.201 301.286 853.443ZM557.507 859.15C556.131 860.527 555.557 860.612 554.543 859.591C553.532 858.572 553.608 858.447 554.935 858.952C555.842 859.297 556.881 859.099 557.244 858.511C557.607 857.924 558.199 857.443 558.559 857.443C558.92 857.443 558.446 858.211 557.507 859.15ZM547.293 866.432C546.943 866.998 547.344 867.166 548.234 866.825C549.966 866.16 550.283 865.443 548.845 865.443C548.327 865.443 547.629 865.888 547.293 866.432ZM86.7859 870.379C113.745 873.712 136.401 878.036 187.286 889.56C255.485 905.005 287.477 915.372 321.286 932.983C344.637 945.147 361.258 954.443 359.655 954.443C359.338 954.443 352.15 951.798 343.682 948.565C302.638 932.895 263.819 922.055 180.786 903.078C143.306 894.511 117.013 894.557 122.587 903.178C123.547 904.663 139.643 908.402 164.786 912.98C191.505 917.845 192.924 918.14 207.837 921.922C224.458 926.136 238.564 930.378 267.786 939.95C297.318 949.623 323.811 957.231 353.286 964.502C387.617 972.97 388.691 973.279 394.956 976.456C405.417 981.761 434.032 1003.15 454.286 1020.81C465.214 1030.34 482.448 1046.98 493.364 1058.54C503.415 1069.19 522.778 1093.05 522.8 1094.81C522.933 1105.91 523.912 1113.14 525.589 1115.39C528.045 1118.69 531.368 1119.13 534.792 1116.6L537.526 1114.57L538.189 1120.22C538.554 1123.32 539.104 1126.86 539.412 1128.09C539.898 1130.03 539.405 1130.47 535.628 1131.49C528.786 1133.34 517.211 1132.24 511.21 1129.18C504.78 1125.89 496.832 1117.31 489.786 1106.04C463.62 1064.18 456.852 1056.74 429.564 1039.86C386.55 1013.25 347.938 994.643 302.939 978.834C235.257 955.055 194.385 944.598 143.286 937.988C79.9579 929.797 50.2449 924.664 34.9729 919.279C18.0239 913.303 11.5789 908.807 7.23489 899.928C4.19589 893.717 4.48989 889.96 8.42489 884.72C18.9569 870.699 47.3479 865.503 86.7859 870.379ZM392.261 874.028C394.447 874.425 396.868 875.382 397.64 876.154C398.412 876.926 399.684 877.312 400.467 877.012C401.25 876.712 401.646 876.861 401.348 877.343C400.773 878.273 407.786 884.1 409 883.702C409.393 883.573 409.47 884.102 409.172 884.878C408.635 886.278 412.028 888.868 413.054 887.841C413.347 887.549 413.925 887.859 414.34 888.531C414.823 889.311 414.678 889.494 413.941 889.038C412.531 888.167 412.412 890.068 413.771 891.735C414.313 892.399 415.929 894.407 417.362 896.196C418.796 897.985 420.447 899.153 421.032 898.791C421.654 898.407 421.802 898.608 421.389 899.276C420.456 900.786 423.996 904.508 426.549 904.7C427.659 904.784 428.373 905.355 428.138 905.969C427.902 906.584 429.325 907.954 431.3 909.015L434.891 910.943L432.088 912.148C428.056 913.882 419.516 913.709 414.556 911.794C404.028 907.728 394.589 897.541 387.347 882.429C383.13 873.632 382.911 872.016 386.036 872.766C387.273 873.063 390.075 873.631 392.261 874.028ZM321.515 874.047C321.183 874.379 320.32 874.415 319.599 874.126C318.801 873.807 319.038 873.57 320.203 873.522C321.257 873.479 321.847 873.715 321.515 874.047ZM496.786 876.051C496.786 876.878 494.844 877.346 494.399 876.626C494.11 876.159 494.529 875.776 495.33 875.776C496.131 875.776 496.786 875.9 496.786 876.051ZM471.786 882.821C471.786 883.028 470.998 883.816 470.036 884.571C468.45 885.814 468.415 885.779 469.658 884.193C470.965 882.527 471.786 881.998 471.786 882.821ZM467.306 885.423C467.226 886.511 466.912 887.651 466.608 887.954C466.161 888.402 466.206 884.579 466.658 883.693C467.095 882.838 467.43 883.734 467.306 885.423ZM460.676 889.81C461.531 890.841 461.488 891.446 460.498 892.267C459.476 893.115 459.186 892.813 459.186 890.899C459.186 888.031 459.194 888.025 460.676 889.81ZM485.786 889.336C485.786 889.827 485.047 890.512 484.145 890.859C482.772 891.386 482.71 891.239 483.767 889.966C485.207 888.231 485.786 888.05 485.786 889.336ZM476.786 889.884C476.786 890.127 476.336 890.603 475.786 890.943C475.236 891.283 474.786 891.084 474.786 890.502C474.786 889.92 475.236 889.443 475.786 889.443C476.336 889.443 476.786 889.641 476.786 889.884ZM473.786 891.821C473.786 892.028 472.998 892.816 472.036 893.571C470.45 894.814 470.415 894.779 471.658 893.193C472.965 891.527 473.786 890.998 473.786 891.821ZM444.279 896.432C444.629 896.998 444.228 897.166 443.338 896.825C441.606 896.16 441.289 895.443 442.727 895.443C443.245 895.443 443.943 895.888 444.279 896.432ZM475.51 897.423C475.592 898.512 475.314 899.617 474.893 899.877C474.305 900.24 474.171 897.287 474.703 895.693C474.98 894.861 475.381 895.722 475.51 897.423ZM455.786 896.828C455.786 897.04 454.549 897.966 453.036 898.887L450.286 900.562L452.647 898.502C454.951 896.493 455.786 896.047 455.786 896.828ZM170.786 905.87C209.624 913.986 263.597 927.294 289.124 935.048C315.422 943.036 363.044 960.222 359.372 960.399C358.869 960.423 351.258 958.835 342.458 956.87C325.165 953.008 315.045 950.043 272.786 936.457C221.052 919.825 205.7 915.718 170.286 909.034C157.086 906.543 143.361 903.822 139.786 902.989L133.286 901.474L143.786 901.948C150.161 902.236 160.769 903.777 170.786 905.87ZM440.312 905.25C440.005 905.558 439.198 905.251 438.519 904.567C437.539 903.579 437.654 903.465 439.079 904.007C440.065 904.383 440.62 904.942 440.312 905.25ZM434.382 907.894C434.566 909.153 434.249 909.137 432.192 907.789C429.397 905.958 429.069 905.231 431.45 906.144C432.686 906.619 432.905 906.418 432.303 905.363C431.65 904.218 431.752 904.183 432.829 905.183C433.564 905.865 434.263 907.085 434.382 907.894ZM439.786 908.013C439.786 908.288 438.886 908.032 437.786 907.443C436.686 906.854 435.786 906.148 435.786 905.873C435.786 905.598 436.686 905.854 437.786 906.443C438.886 907.032 439.786 907.738 439.786 908.013ZM454.312 909.25C454.005 909.558 453.198 909.251 452.519 908.567C451.539 907.579 451.654 907.465 453.079 908.007C454.065 908.383 454.62 908.942 454.312 909.25ZM531.301 1105.29C533.862 1109.16 533.841 1111.82 531.241 1112.82C530.476 1113.12 529.591 1112.94 529.274 1112.42C528.408 1111.02 527.413 1101.44 528.133 1101.44C528.476 1101.44 529.902 1103.17 531.301 1105.29ZM489.644 1130.98C498.311 1132.64 514.595 1137.85 517.311 1139.84C518.904 1141 518.164 1141.3 511.205 1142.31C506.85 1142.95 497.211 1143.91 489.786 1144.46C449.886 1147.4 417.722 1155.11 376.286 1171.64C357.61 1179.1 328.947 1192.9 321.156 1198.19C312.917 1203.79 304.786 1211.31 304.786 1213.34C304.786 1215.52 306.706 1217.44 308.893 1217.44C310.405 1217.44 322.363 1212.47 349.786 1200.43C374.974 1189.37 383.734 1185.67 398.348 1179.93C430.605 1167.27 474.394 1153.41 492.786 1150.04C500.934 1148.55 510.756 1147.9 519.286 1148.28L523.286 1148.46L518.174 1151.39C507.954 1157.26 505.128 1164.13 510.375 1170.37C512.112 1172.43 512.504 1173.44 511.567 1173.44C509.25 1173.44 473.528 1183.14 453.786 1189.12C412.345 1201.69 381.787 1214.21 351.786 1230.91C323.335 1246.76 303.788 1254.16 285.426 1256.04C269.394 1257.68 255.768 1247.03 255.796 1232.88C255.814 1223.48 264.943 1208.62 276.864 1198.58C286.499 1190.47 301.332 1179.97 313.815 1172.42C365.457 1141.17 444.973 1122.43 489.644 1130.98ZM734.036 1134.1C733.349 1134.38 732.224 1134.38 731.536 1134.1C730.849 1133.83 731.411 1133.6 732.786 1133.6C734.161 1133.6 734.724 1133.83 734.036 1134.1ZM750.373 1137.55C757.749 1139.82 762.844 1143.1 764.577 1146.7C765.659 1148.95 765.62 1149.86 764.342 1152.33C762.864 1155.19 758.952 1158.52 755.702 1159.68C754.362 1160.16 754.153 1159.38 754.341 1154.6C754.51 1150.29 754.055 1148.13 752.424 1145.51C748.889 1139.83 748.876 1139.82 747.692 1141.44C746.753 1142.73 746.673 1142.7 747.132 1141.27C747.782 1139.23 746.308 1137.91 741.181 1135.94L737.286 1134.45L740.786 1135.07C742.711 1135.41 747.025 1136.53 750.373 1137.55ZM541.236 1139.1C541.665 1140.81 541.409 1142.25 540.518 1143.14C539.338 1144.32 538.536 1144.18 535.101 1142.23C529.971 1139.32 529.529 1138.12 533.286 1137.32C539.311 1136.03 540.535 1136.31 541.236 1139.1ZM744.345 1139C746.175 1140.46 746.143 1140.48 743.786 1139.36C740.725 1137.9 740.158 1137.44 741.428 1137.44C741.965 1137.44 743.277 1138.14 744.345 1139ZM742.279 1140.43C742.629 1141 742.228 1141.17 741.338 1140.82C739.606 1140.16 739.289 1139.44 740.727 1139.44C741.245 1139.44 741.943 1139.89 742.279 1140.43ZM559.786 1143.99C559.786 1144.29 559.186 1145.76 558.453 1147.24C556.842 1150.5 556.169 1159.94 557.61 1159.05C558.203 1158.68 558.373 1159.31 558.035 1160.6C557.615 1162.2 557.806 1162.55 558.783 1161.94C559.648 1161.41 559.854 1161.52 559.387 1162.28C558.576 1163.59 561.715 1168.36 563.421 1168.41C564.045 1168.43 565.303 1169.58 566.215 1170.97C567.127 1172.37 568.304 1173.24 568.83 1172.92C569.356 1172.59 569.786 1172.85 569.786 1173.49C569.786 1175.33 564.753 1173.69 560.786 1170.56C556.867 1167.47 548.978 1152.69 548.859 1148.22C548.799 1145.98 549.365 1145.33 552.036 1144.56C555.773 1143.48 559.786 1143.19 559.786 1143.99ZM542.24 1155.69C545.027 1158.58 548.052 1162.85 548.963 1165.18C550.506 1169.14 550.505 1169.56 548.953 1171.42C547.507 1173.14 546.757 1173.27 543.286 1172.43C541.086 1171.9 534.97 1171.51 529.694 1171.56C519.004 1171.67 514.536 1170.18 512.569 1165.87C511.007 1162.44 513.866 1158.77 520.885 1155.19C533.062 1148.99 535.829 1149.05 542.24 1155.69ZM443.786 1158.35C408.328 1170.13 370.456 1185.3 321.443 1207.36C317.679 1209.06 314.39 1210.44 314.134 1210.44C312.572 1210.44 316.18 1207.49 324.154 1202.24C344.807 1188.64 391.677 1168.84 424.508 1159.84C434.458 1157.11 460.058 1151.57 462.786 1151.56C463.611 1151.55 455.061 1154.61 443.786 1158.35ZM738.286 1164.44C737.946 1164.99 736.907 1165.41 735.977 1165.37C734.598 1165.31 734.656 1165.14 736.286 1164.44C738.962 1163.29 738.997 1163.29 738.286 1164.44ZM544.533 1178.6C546.319 1179.15 548.456 1180.56 549.283 1181.74C551.374 1184.73 551.122 1191.1 548.702 1196.44C546.164 1202.04 543.426 1205.02 538.286 1207.79C532.876 1210.7 517.874 1210.65 501.286 1207.67C469.228 1201.91 448.766 1200.98 431.514 1204.5C417.561 1207.34 406.786 1212.75 406.786 1216.92C406.786 1220.57 409.011 1223.58 413.241 1225.63L417.744 1227.82L409.555 1230.18C387.954 1236.42 376.833 1248.3 372.283 1269.99C369.241 1284.49 367.641 1360.37 369.837 1385.94C372.068 1411.91 376.454 1433.97 383.454 1454.44C403.419 1512.82 446.882 1555.96 505.286 1575.37C519.237 1580 518.273 1580.4 501.412 1576.98C473.251 1571.26 443.676 1558.53 423.716 1543.54C380.587 1511.14 359.248 1465.56 350.052 1386.19C348.534 1373.08 348.308 1362.6 348.444 1311.44C348.531 1278.72 348.841 1249.24 349.131 1245.94C349.807 1238.26 351.378 1236.89 370.175 1227.56C403.956 1210.8 451.6 1194.1 501.786 1181.43C520.477 1176.72 535.223 1175.74 544.533 1178.6ZM746.341 1201.97C751.066 1203.7 756.736 1209.23 759.698 1214.99C763.041 1221.5 764.135 1229.78 764.115 1248.44C764.095 1268.15 763.183 1277.11 758.211 1306.44C754.94 1325.74 753.182 1333.93 754.244 1324.94C758.307 1290.52 756.555 1259.01 749.718 1243.56C744.509 1231.78 732.923 1221.91 717.861 1216.41C709.384 1213.32 692.184 1209.46 686.629 1209.41C682.215 1209.37 684.684 1207.92 690.786 1206.96C693.261 1206.58 701.065 1205.14 708.128 1203.76C729.879 1199.52 738.561 1199.12 746.341 1201.97ZM485.786 1210.4C502.538 1212.97 505.967 1213.59 505.551 1214.01C505.37 1214.19 493.987 1215.94 480.254 1217.9C466.522 1219.86 450.111 1222.34 443.786 1223.41C432.314 1225.35 432.265 1225.35 423.602 1223.33C410.063 1220.17 409.336 1217.34 420.948 1212.99C432.872 1208.51 440.535 1207.44 457.286 1207.9C465.536 1208.13 478.361 1209.26 485.786 1210.4Z" fill="black"/>
</svg>
